<?xml version="1.0" encoding="utf-8"?>
<!-- Generator: Adobe Illustrator 23.0.1, SVG Export Plug-In . SVG Version: 6.00 Build 0)  -->
<svg version="1.1" xmlns="http://www.w3.org/2000/svg" xmlns:xlink="http://www.w3.org/1999/xlink" x="0px" y="0px"
	 viewBox="0 0 940 807" style="enable-background:new 0 0 940 807;" xml:space="preserve">
<style type="text/css">
	.st0{fill:#EC8E25;}
	.st1{fill:#886138;}
	.st2{fill:#734B23;}
	.st3{fill:#FFD4B3;}
	.st4{fill:#F1F1F1;}
	.st5{fill:#262626;}
	.st6{fill:#323333;}
	.st7{opacity:0.46;clip-path:url(#SVGID_2_);}
	.st8{fill:#FFB288;}
	.st9{fill-opacity:0;stroke:#181919;stroke-width:3.405;stroke-linecap:round;stroke-linejoin:round;}
	.st10{fill:#FFFFFF;}
	.st11{fill:url(#SVGID_3_);stroke:#F38E8D;stroke-miterlimit:10;}
	.st12{fill:url(#SVGID_4_);stroke:#F38E8D;stroke-miterlimit:10;}
	.st13{fill-opacity:0;stroke:#734B23;stroke-width:3.405;stroke-linecap:round;stroke-linejoin:round;}
	.st14{fill-opacity:0;stroke:#FFB288;stroke-width:3.405;stroke-linecap:round;stroke-linejoin:round;}
	.st15{opacity:0.48;clip-path:url(#SVGID_6_);}
	.st16{fill:url(#SVGID_7_);}
	.st17{opacity:0.48;clip-path:url(#SVGID_9_);}
	.st18{fill:url(#SVGID_10_);}
	.st19{fill:#40210D;}
	.st20{fill-opacity:0;stroke:#030000;stroke-width:2.294;stroke-linecap:round;stroke-linejoin:round;}
	.st21{fill-opacity:0;stroke:#DD2326;stroke-width:4.255;stroke-linecap:round;stroke-linejoin:round;}
	.st22{fill:#181919;}
	.st23{fill:#989898;}
	.st24{fill-opacity:0;stroke:#CBCBCB;stroke-width:6.75;stroke-linecap:round;stroke-linejoin:round;}
	.st25{fill:#B2B2B2;}
	.st26{fill-opacity:0;stroke:#181919;stroke-width:3;stroke-linecap:round;stroke-linejoin:round;}
	.st27{stroke:#000000;stroke-miterlimit:10;}
	.st28{fill-rule:evenodd;clip-rule:evenodd;fill:#4182C4;}
	.st29{fill-rule:evenodd;clip-rule:evenodd;fill:#B2D2F0;}
	.st30{fill-rule:evenodd;clip-rule:evenodd;fill:#FFFFFF;}
	.st31{fill-rule:evenodd;clip-rule:evenodd;fill:#F5A40E;}
	.st32{fill-rule:evenodd;clip-rule:evenodd;fill:#FFCC00;}
	.st33{font-family:'AmericanTypewriter';}
	.st34{font-size:16.8996px;}
</style>
<g id="Layer_1">
	<path class="st0" d="M722.3,738.6H570.8c-29.8,0-54.1-24.3-54.1-54.1V501.7c0-29.8,24.3-54.1,54.1-54.1h151.5
		c29.8,0,54.1,24.3,54.1,54.1v182.9C776.4,714.3,752.1,738.6,722.3,738.6"/>
	<path class="st1" d="M571.6,638.6c0-4.2-3.4-7.6-7.6-7.6c-4.2,0-7.6,3.4-7.6,7.6c0,4.2,3.4,7.6,7.6,7.6
		C568.2,646.2,571.6,642.8,571.6,638.6"/>
	<path class="st1" d="M571.6,682.8c0-4.2-3.4-7.6-7.6-7.6c-4.2,0-7.6,3.4-7.6,7.6c0,4.2,3.4,7.6,7.6,7.6
		C568.2,690.4,571.6,687,571.6,682.8"/>
	<path class="st1" d="M571.4,727c0-4.2-3.4-7.6-7.6-7.6c-4.2,0-7.6,3.4-7.6,7.6c0,4.2,3.4,7.6,7.6,7.6
		C568,734.6,571.4,731.2,571.4,727"/>
	<path class="st2" d="M925,712.2c-48.6-33.8-234.1-57.9-455.6-57.9c-221.5,0-407.1,24.1-455.6,57.9H1.5v17
		c0,41.5,209.5,75.1,468,75.1s468-33.6,468-75.1v-17H925z"/>
	<path class="st3" d="M510.2,365.8l7.8,52.1c0,0,8.5,162.5,24.6,164c11.7,1.1,29.5-156.5,41-164.2v-69.8L510.2,365.8z"/>
	<path class="st4" d="M510.3,441l25.2,165.2l45.6-134.3c0,0-17-33.5-40.7-31.3C540.5,440.6,522.2,443.1,510.3,441"/>
	<path class="st5" d="M482.1,425.9c0,0-9,1.6-12,4.2c-6.4,5.5-23,16.1-31.9,29.5c-28.1,42.1-78,124.2-78,124.2l49.9,22.5
		c22.7-34.8,69.2-103.6,69.2-103.6"/>
	<path class="st6" d="M515.4,412.6l10.4,209.6c0,0,57.8-201.4,61-214.1l62,12.5c-1.4,50,3.4,94.4,3.4,141.1
		c0,31.3,3.3,187.2,3.3,187.2s-126.6,25.9-202.9-3.5c0,0-1-39.3,0-98.4c0.8-47.2,3.1-113.6,6.1-134.5c5.5-38,14-83.9,14-83.9
		L515.4,412.6z"/>
	<g>
		<defs>
			<rect id="SVGID_1_" x="510.2" y="346.4" width="73.4" height="52.6"/>
		</defs>
		<clipPath id="SVGID_2_">
			<use xlink:href="#SVGID_1_"  style="overflow:visible;"/>
		</clipPath>
		<g class="st7">
			<path class="st8" d="M510.2,364.4l4.7,33.1c10,1.1,20,1.6,29.2,1.6c13.9,0,26.5-1.3,39.4-3.6v-49L510.2,364.4z"/>
		</g>
	</g>
	<path class="st9" d="M499.5,425l-5.8,54.8l12.7,10.2l-13,12.7l17.8,103.6"/>
	<path class="st9" d="M607.4,417.8v62l-23.7,9.7l23.7,13.1l-61.7,103.6"/>
	<path class="st10" d="M514.6,405l-3.4,10.1l7.4,45.8l21.9-20.3L514.6,405z"/>
	<path class="st10" d="M585.2,400.7l-44.7,39.9l27.4,28.3l21.9-61.2L585.2,400.7z"/>
	<path class="st3" d="M467.5,44.8c0,0-69,55.3-72.8,174.4c-4.5,140.5,91.9,164.2,166.8,164.1c82.4,0,141.6-76.9,157.2-129.3
		C740.7,180.2,707.6-52.2,467.5,44.8"/>
	
		<radialGradient id="SVGID_3_" cx="484.7319" cy="242.6716" r="11.5703" gradientTransform="matrix(1.2008 0 0 1.435 -112.3636 -111.2049)" gradientUnits="userSpaceOnUse">
		<stop  offset="0" style="stop-color:#FFB08C"/>
		<stop  offset="1" style="stop-color:#FFAA84;stop-opacity:0"/>
	</radialGradient>
	<path class="st11" d="M451.4,228.5c0.6,3.3,2.3,9.6,7,13.6c7.6,6.3,20.2,4,29.7-7.3"/>
	
		<radialGradient id="SVGID_4_" cx="572.0561" cy="247.7616" r="11.5703" gradientTransform="matrix(1.2008 0 0 1.435 -112.3636 -111.2049)" gradientUnits="userSpaceOnUse">
		<stop  offset="0" style="stop-color:#FFB08C"/>
		<stop  offset="1" style="stop-color:#FFAA84;stop-opacity:0"/>
	</radialGradient>
	<path class="st12" d="M556.3,235.8c0.6,3.3,2.3,9.6,7,13.6c7.6,6.3,20.2,4,29.7-7.3"/>
	<path class="st2" d="M481.8,216c0.5-10.4-4.5-19.1-11.2-19.4c-6.7-0.3-12.5,7.8-13,18.2s4.5,19.1,11.2,19.4
		C475.5,234.6,481.3,226.4,481.8,216"/>
	<path class="st2" d="M588,222.9c0.7-10.4-4.2-19.2-10.9-19.6c-6.7-0.4-12.6,7.6-13.3,18c-0.7,10.4,4.2,19.2,10.9,19.6
		C581.3,241.4,587.3,233.3,588,222.9"/>
	<path class="st13" d="M583.2,162c0,0,9.2-15,25.9,3.2"/>
	<path class="st14" d="M503.2,241c0,0-17.6,9.1,0,17.3"/>
	<g>
		<defs>
			<path id="SVGID_5_" d="M617.8,303.2c25.5-0.3,44.8-20.1,45.4-45.4v-0.2c-0.4-25.5-20.2-44.7-45.5-45.3h0
				c-25.6,0.3-44.8,20.1-45.4,45.5C572.4,282.9,592.7,303.2,617.8,303.2z"/>
		</defs>
		<clipPath id="SVGID_6_">
			<use xlink:href="#SVGID_5_"  style="overflow:visible;"/>
		</clipPath>
		<g class="st15">
			
				<radialGradient id="SVGID_7_" cx="617.825" cy="1049.7445" r="45.4458" gradientTransform="matrix(1 0 0 1 0 -792)" gradientUnits="userSpaceOnUse">
				<stop  offset="0" style="stop-color:#FFB08C"/>
				<stop  offset="1" style="stop-color:#FFAA84;stop-opacity:0"/>
			</radialGradient>
			<path class="st16" d="M617.8,303.2c25.5-0.3,44.8-20.1,45.4-45.4v-0.2c-0.4-25.5-20.2-44.7-45.5-45.3
				c-25.1,0-45.4,20.4-45.4,45.5C572.4,282.9,592.7,303.2,617.8,303.2z"/>
		</g>
	</g>
	<g>
		<defs>
			<path id="SVGID_8_" d="M441.1,288.8c20.8-0.1,37-17,37.5-37.5v0c-0.1-20.8-17-37-37.5-37.5c-20.7,0-37.5,16.8-37.5,37.5
				C403.6,272.1,420.4,288.9,441.1,288.8z"/>
		</defs>
		<clipPath id="SVGID_9_">
			<use xlink:href="#SVGID_8_"  style="overflow:visible;"/>
		</clipPath>
		<g class="st17">
			
				<radialGradient id="SVGID_10_" cx="441.058" cy="1043.349" r="37.497" gradientTransform="matrix(1 0 0 1 0 -792)" gradientUnits="userSpaceOnUse">
				<stop  offset="0" style="stop-color:#FFB08C"/>
				<stop  offset="1" style="stop-color:#FFAA84;stop-opacity:0"/>
			</radialGradient>
			<path class="st18" d="M441.1,288.8c20.7,0,37.5-16.8,37.5-37.5c0-20.7-16.8-37.5-37.5-37.5c-20.7,0-37.5,16.8-37.5,37.5
				C403.6,272.1,420.4,288.9,441.1,288.8z"/>
		</g>
	</g>
	<path class="st19" d="M682.2,49.8c-13.7-9.3-27.8-16.6-42-22.1l14.5-0.5c-25.2-7.3-36.3-6.8-36.3-6.8c-5.6-1.5-11.1-2.8-16.6-3.9
		c-11.5-6.2-26.8-12.3-44.7-14.4l14.8,10.8c-26.6-1.3-50.6,2.4-68.7,9c-11.5,1.3-23.1,3.4-33.9,6.7l16.1,1.8c-0.5,0.3-1,0.6-1.4,0.9
		c-34.8,23.3-60,42.2-74.1,91.9l69.8-41.4l-22.1,22.6l95.6-31.7L532,102.9l66.4-17.5l-26.5,19l51.5-8.7l54,94.6l29.1,10.3l-6.3,55.1
		l28.2-46.6C728.4,209.1,757.2,100.8,682.2,49.8"/>
	<path class="st3" d="M717.8,213.5c0,0,7.5-30.2,28.3-9.8s-4.2,87.4-42.8,75.7"/>
	<path class="st20" d="M467.5,44.8c0,0-42.6,22.6-57.4,77.1l49.5-31.8"/>
	<path class="st20" d="M465.1,65.2c0,0,27.4-22.2,87.5-28.4l-45.9,33.1"/>
	<path class="st20" d="M663.4,107.7l28.7,47.9c0,0-1.8-52.9-25.3-86.5c0,0,21.4,17.5,30.3,42.4"/>
	<path class="st21" d="M546.8,298.4c0,0-26.8-18.4-46.1,8.3"/>
	<path class="st22" d="M532,665.2c0-4.9-3.9-8.8-8.8-8.8s-8.8,3.9-8.8,8.8c0,4.9,3.9,8.8,8.8,8.8S532,670,532,665.2"/>
	<path class="st22" d="M532,728.5c0-4.9-3.9-8.8-8.8-8.8s-8.8,3.9-8.8,8.8c0,4.9,3.9,8.8,8.8,8.8S532,733.4,532,728.5"/>
	<path class="st1" d="M937.4,712c0-41.5-209.6-75.1-468-75.1c-258.5,0-468,33.6-468,75.1c0,41.5,209.6,75.1,468,75.1
		C727.8,787.2,937.4,753.5,937.4,712"/>
	<path class="st23" d="M183.4,707l119.1-45.8l285.1,23.9c9.3,0.8,11.1,13.6,2.3,16.9l-104.9,39L183.4,707z"/>
	<path class="st24" d="M193.2,713.9L485,741.1"/>
	<path class="st3" d="M623.6,620l-62.8,18c0,0-18.2-6-33.1-4c-21.9,2.9-38.8,22-38.8,22s-22,30.6-8,22.1c14-8.6,22-15.4,22-15.4
		l19.7-12.8c0,0-16.1,14.2-19.7,30.5l-3.5,16.2c0,0,3.1,8.9,9-0.8c0,0,4.3,13.1,14.1,1c9.8-12.2,20-20.4,20-20.4s-24.2,28.9-11.1,24
		c13-4.8,38.3-18,41.4-39.4l73.7-13.7L623.6,620z"/>
	<path class="st25" d="M485,741.1l-291.9-28.6c-5.7,0.2-10.5-4.4-10.7-10.3l-46.5-178.1c-0.2-1.1-0.2-2.2-0.1-3.3
		c0.7-4.2,3.7-7.6,7.7-8.6c1-0.3,2.1-0.3,3.2-0.2l293.5,22.1c5.7-0.2,10.5,4.4,10.7,10.3L494.9,730
		C495.1,735.9,490.6,740.9,485,741.1"/>
	<path class="st4" d="M584,630.7l-17,4l12.8,32.3l18.2-4.5"/>
	<path class="st6" d="M646.6,420.9c0,0,32.2-1.5,55.5,70.1c9.6,29.5,29.9,90.4,39,135.5c6.6,32.8-148.1,40.2-148.1,40.2l-16.8-36
		l99.5-22l-26-90.4L646.6,420.9z"/>
	<path class="st26" d="M649.7,518.3l26,91L591.6,628"/>
	<path class="st27" d="M559.5,243.8"/>
	<path class="st13" d="M452.2,156.9c0,0,9.2-15,25.9,3.2"/>
</g>
<g id="Layer_2">
	<g>
		<path class="st28" d="M96,72.5h248.5c6.9,0,12.6,5.7,12.6,12.6v232.3c0,6.9-5.7,12.6-12.6,12.6H96c-6.9,0-12.6-5.7-12.6-12.6V85.1
			C83.4,78.1,89,72.5,96,72.5z"/>
		<path class="st29" d="M63.6,72.5h248.5c6.9,0,12.6,5.7,12.6,12.6v232.3c0,6.9-5.7,12.6-12.6,12.6H63.6c-6.9,0-12.6-5.7-12.6-12.6
			V85.1C51,78.1,56.7,72.5,63.6,72.5z"/>
		<path class="st28" d="M282.6,182.7c10,0,19.9,0,29.9,0c0,9.6,0,19.1,0,28.7c-10,0-19.9,0-29.9,0
			C282.6,201.9,282.6,192.3,282.6,182.7L282.6,182.7z M246,143.8c10,0,19.9,0,29.9,0c0,9.6,0,19.1,0,28.7c-10,0-19.9,0-29.9,0
			C246,162.9,246,153.4,246,143.8L246,143.8z M282.6,143.8h29.9v28.7h-29.9V143.8L282.6,143.8z M246,260.7c10,0,19.9,0,29.9,0
			c0,9.6,0,19.1,0,28.7c-10,0-19.9,0-29.9,0C246,279.8,246,270.2,246,260.7L246,260.7z M282.6,260.7c10,0,19.9,0,29.9,0
			c0,9.6,0,19.1,0,28.7c-10,0-19.9,0-29.9,0C282.6,279.8,282.6,270.2,282.6,260.7L282.6,260.7z M246,221.7c10,0,19.9,0,29.9,0
			c0,9.6,0,19.1,0,28.7c-10,0-19.9,0-29.9,0C246,240.8,246,231.3,246,221.7L246,221.7z M282.6,221.7c10,0,19.9,0,29.9,0
			c0,9.6,0,19.1,0,28.7c-10,0-19.9,0-29.9,0C282.6,240.8,282.6,231.3,282.6,221.7L282.6,221.7z M246,182.7c10,0,19.9,0,29.9,0
			c0,9.6,0,19.1,0,28.7c-10,0-19.9,0-29.9,0C246,201.9,246,192.3,246,182.7z"/>
		<path class="st30" d="M209.4,182.7c10,0,19.9,0,29.9,0c0,9.6,0,19.1,0,28.7c-10,0-19.9,0-29.9,0
			C209.4,201.9,209.4,192.3,209.4,182.7L209.4,182.7z M99.7,182.7c10,0,19.9,0,29.9,0c0,9.6,0,19.1,0,28.7c-10,0-19.9,0-29.9,0
			C99.7,201.9,99.7,192.3,99.7,182.7L99.7,182.7z M99.7,143.8c10,0,19.9,0,29.9,0c0,9.6,0,19.1,0,28.7c-10,0-19.9,0-29.9,0
			C99.7,162.9,99.7,153.4,99.7,143.8L99.7,143.8z M63.2,143.8h29.9v28.7H63.2V143.8L63.2,143.8z M136.3,143.8c10,0,19.9,0,29.9,0
			c0,9.6,0,19.1,0,28.7c-10,0-19.9,0-29.9,0C136.3,162.9,136.3,153.4,136.3,143.8L136.3,143.8z M172.9,143.8c10,0,19.9,0,29.9,0
			c0,9.6,0,19.1,0,28.7c-10,0-19.9,0-29.9,0C172.9,162.9,172.9,153.4,172.9,143.8L172.9,143.8z M209.4,143.8c10,0,19.9,0,29.9,0
			c0,9.6,0,19.1,0,28.7c-10,0-19.9,0-29.9,0C209.4,162.9,209.4,153.4,209.4,143.8L209.4,143.8z M99.7,221.7c10,0,19.9,0,29.9,0
			c0,9.6,0,19.1,0,28.7c-10,0-19.9,0-29.9,0C99.7,240.8,99.7,231.3,99.7,221.7L99.7,221.7z M99.7,260.7c10,0,19.9,0,29.9,0
			c0,9.6,0,19.1,0,28.7c-10,0-19.9,0-29.9,0C99.7,279.8,99.7,270.2,99.7,260.7L99.7,260.7z M99.7,299.6c10,0,19.9,0,29.9,0
			c0,9.6,0,19.1,0,28.7c-10,0-19.9,0-29.9,0C99.7,318.8,99.7,309.2,99.7,299.6L99.7,299.6z M63.2,299.6h29.9v28.7H63.2V299.6
			L63.2,299.6z M136.3,299.6c10,0,19.9,0,29.9,0c0,9.6,0,19.1,0,28.7c-10,0-19.9,0-29.9,0C136.3,318.8,136.3,309.2,136.3,299.6
			L136.3,299.6z M63.2,260.7c10,0,19.9,0,29.9,0c0,9.6,0,19.1,0,28.7c-10,0-19.9,0-29.9,0C63.2,279.8,63.2,270.2,63.2,260.7
			L63.2,260.7z M136.3,260.7c10,0,19.9,0,29.9,0c0,9.6,0,19.1,0,28.7c-10,0-19.9,0-29.9,0C136.3,279.8,136.3,270.2,136.3,260.7
			L136.3,260.7z M172.9,260.7c10,0,19.9,0,29.9,0c0,9.6,0,19.1,0,28.7c-10,0-19.9,0-29.9,0C172.9,279.8,172.9,270.2,172.9,260.7
			L172.9,260.7z M209.4,260.7c10,0,19.9,0,29.9,0c0,9.6,0,19.1,0,28.7c-10,0-19.9,0-29.9,0C209.4,279.8,209.4,270.2,209.4,260.7
			L209.4,260.7z M63.2,221.7c10,0,19.9,0,29.9,0c0,9.6,0,19.1,0,28.7c-10,0-19.9,0-29.9,0C63.2,240.8,63.2,231.3,63.2,221.7
			L63.2,221.7z M136.3,221.7c10,0,19.9,0,29.9,0c0,9.6,0,19.1,0,28.7c-10,0-19.9,0-29.9,0C136.3,240.8,136.3,231.3,136.3,221.7
			L136.3,221.7z M172.9,221.7c10,0,19.9,0,29.9,0c0,9.6,0,19.1,0,28.7c-10,0-19.9,0-29.9,0C172.9,240.8,172.9,231.3,172.9,221.7
			L172.9,221.7z M209.4,221.7c10,0,19.9,0,29.9,0c0,9.6,0,19.1,0,28.7c-10,0-19.9,0-29.9,0C209.4,240.8,209.4,231.3,209.4,221.7
			L209.4,221.7z M63.2,182.7c10,0,19.9,0,29.9,0c0,9.6,0,19.1,0,28.7c-10,0-19.9,0-29.9,0C63.2,201.9,63.2,192.3,63.2,182.7
			L63.2,182.7z M136.3,182.7c10,0,19.9,0,29.9,0c0,9.6,0,19.1,0,28.7c-10,0-19.9,0-29.9,0C136.3,201.9,136.3,192.3,136.3,182.7
			L136.3,182.7z M172.9,182.7c10,0,19.9,0,29.9,0c0,9.6,0,19.1,0,28.7c-10,0-19.9,0-29.9,0C172.9,201.9,172.9,192.3,172.9,182.7z"/>
		<path class="st31" d="M96,72.5h248.5c6.9,0,12.6,5.7,12.6,12.6v34.5H83.4V85.1C83.4,78.1,89,72.5,96,72.5z"/>
		<path class="st32" d="M63.6,72.5h248.5c6.9,0,12.6,5.7,12.6,12.6v34.5H51V85.1C51,78.1,56.7,72.5,63.6,72.5z"/>
		<text transform="matrix(1 0 0 1 89.6361 103.3197)" class="st33 st34">Nights with 8 Hours of sleep</text>
	</g>
	<circle class="st6" cx="193.2" cy="81" r="4.9"/>
</g>
</svg>
