<?xml version="1.0" encoding="utf-8"?>
<!-- Generator: Adobe Illustrator 23.0.1, SVG Export Plug-In . SVG Version: 6.00 Build 0)  -->
<svg version="1.1" id="publicdomainvectors.org" xmlns="http://www.w3.org/2000/svg" xmlns:xlink="http://www.w3.org/1999/xlink"
	 x="0px" y="0px" viewBox="0 0 500 500" style="enable-background:new 0 0 500 500;" xml:space="preserve">
<style type="text/css">
	.st0{fill-rule:evenodd;clip-rule:evenodd;fill:#DBBA99;}
	.st1{fill-rule:evenodd;clip-rule:evenodd;fill:#B87227;}
	.st2{fill-rule:evenodd;clip-rule:evenodd;fill:#DE8E39;}
	.st3{fill-rule:evenodd;clip-rule:evenodd;fill:#DCEEFA;}
	.st4{fill-rule:evenodd;clip-rule:evenodd;fill:#BDD5E6;}
	.st5{fill-rule:evenodd;clip-rule:evenodd;fill:#FFFFFF;}
	.st6{fill-rule:evenodd;clip-rule:evenodd;fill:#F29D72;}
	.st7{fill-rule:evenodd;clip-rule:evenodd;fill:#EB8B5B;}
	.st8{fill-rule:evenodd;clip-rule:evenodd;fill:#CC4F46;}
	.st9{fill-rule:evenodd;clip-rule:evenodd;fill:#332D2A;}
	.st10{fill:#F8FAED;}
	.st11{fill-rule:evenodd;clip-rule:evenodd;fill:#4182C4;}
	.st12{fill-rule:evenodd;clip-rule:evenodd;fill:#B2D2F0;}
	.st13{fill-rule:evenodd;clip-rule:evenodd;fill:#F5A40E;}
	.st14{fill-rule:evenodd;clip-rule:evenodd;fill:#FFCC00;}
	.st15{font-family:'AmericanTypewriter';}
	.st16{font-size:8.3078px;}
	.st17{fill:#BDD5E6;}
</style>
<rect class="st0" width="500" height="500"/>
<path class="st1" d="M82.6,124.4L82.6,124.4c9.4,0,17.2,7.7,17.2,17.2v319.2c0,9.4-7.7,17.2-17.2,17.2h0c-9.4,0-17.2-7.7-17.2-17.2
	V141.6c0-2.6,0.6-5.1,1.7-7.4v-9.8H82.6z"/>
<path class="st2" d="M67.1,124.4L67.1,124.4c10.7,0,19.5,8.8,19.5,19.5v329.8c0,10.7-8.8,19.5-19.5,19.5l0,0
	c-10.7,0-19.5-8.8-19.5-19.5V143.9C47.6,133.2,56.4,124.4,67.1,124.4z"/>
<path class="st1" d="M417.4,124.4L417.4,124.4c-9.4,0-17.2,7.7-17.2,17.2v319.2c0,9.4,7.7,17.2,17.2,17.2l0,0
	c9.4,0,17.2-7.7,17.2-17.2V141.6c0-2.6-0.6-5.1-1.7-7.4v-9.8H417.4z"/>
<path class="st2" d="M432.9,124.4L432.9,124.4c-10.7,0-19.5,8.8-19.5,19.5v329.8c0,10.7,8.8,19.5,19.5,19.5l0,0
	c10.7,0,19.5-8.8,19.5-19.5V143.9C452.4,133.2,443.6,124.4,432.9,124.4z"/>
<polygon class="st3" points="47.6,281.9 452.4,281.9 500,345.1 500,428.6 0,428.6 0,345.1 "/>
<rect x="93" y="167.8" class="st1" width="314" height="114.1"/>
<rect y="428.6" class="st4" width="500" height="71.4"/>
<path class="st5" d="M162.7,293.9l4.4-59.6c0.6-8.2,8.6-14.9,17.7-14.9c43.4,0,86.9,0,130.3,0c9.1,0,17.1,6.7,17.7,14.9l4.4,59.6
	c0.6,8.2-6.3,14.9-15.5,14.9c-47.9,0-95.7,0-143.6,0C169.1,308.8,162.1,302.1,162.7,293.9z"/>
<polygon class="st6" points="223.9,207.9 262.5,207.9 266.5,265 219.9,265 "/>
<path class="st6" d="M256,247l40.5,4.8c8.2,1,14.9,8.6,14.9,16.9v31c0,8.3-6.7,14.3-14.9,13.4l-40.5-4.8c-5.4-0.6-10.2-4.2-12.8-8.9
	c-2.6,4.7-7.4,8.3-12.8,8.9l-40.5,4.8c-8.2,1-14.9-5.1-14.9-13.4v-31c0-8.3,6.7-15.9,14.9-16.9l40.5-4.8c5.4-0.6,10.2,1.8,12.8,5.9
	C245.8,248.8,250.6,246.4,256,247z"/>
<path class="st7" d="M228.3,207.9h34.1l3.4,47.9c-16.2-2.5-33.8-16.1-36.2-32.7l-1.1-7.8C228.2,212.8,228.1,210.3,228.3,207.9z"/>
<path class="st8" d="M0,328c0-15.2,12.3-27.5,27.5-27.5H250h222.5c15.2,0,27.5,12.3,27.5,27.5v136.3c0-15.2-12.3-27.5-27.5-27.5H250
	H27.5C12.3,436.8,0,449.1,0,464.3V328z"/>
<path class="st9" d="M282.9,195.3c1.2,0,2.1-1.2,2.1-2.7c0-1.5-0.9-2.7-2.1-2.7c-1.2,0-2.1,1.2-2.1,2.7
	C280.8,194.1,281.7,195.3,282.9,195.3z"/>
<ellipse class="st8" cx="250" cy="330.4" rx="123.2" ry="66.3"/>
<path class="st6" d="M248,167.8L248,167.8c18.3,0,35.5,15,38.1,33.3l1.1,7.8c2.6,18.3-10.3,33.4-28.6,33.4h0
	c-18.3,0-35.5-15-38.1-33.4l-1.1-7.8C216.8,182.8,229.6,167.8,248,167.8z"/>
<path class="st9" d="M281.5,188l0.5-6.6c0.8-9.5-4-18.7-12.3-23.4c-8.3-4.8-18.6-4.4-26.5,1l-7.7,2.9c-16.4,6.2-26.2,23.1-23.3,40.4
	c1.4,8.7,6,16.6,12.8,22.2c1,0.8,2.3,1.1,3.6,0.8c1.3-0.3,2.3-1.3,2.7-2.5c3.4-9,5.9-18.4,7.5-27.9c0.4-2.5,2.3-4.6,4.7-5.2
	c2.5-0.7,5.1,0.2,6.7,2.2c0.9,1.1,2.2,1.7,3.6,1.7c1.4,0,2.7-0.6,3.6-1.7c2.1-2.6,3-5.9,2.5-9.2c-0.1-0.8,0.1-1.6,0.7-2.2
	c0.6-0.6,1.4-0.8,2.2-0.7C271.1,179.4,277.3,182.2,281.5,188z"/>
<path class="st5" d="M273.3,219.9c3,0,4.9,1.5,4.2,3.3c-0.7,1.8-3.7,3.3-6.7,3.3c-3,0-4.9-1.5-4.2-3.3
	C267.3,221.4,270.3,219.9,273.3,219.9z"/>
<path class="st9" d="M277.6,199.3c-0.7,2.5-3.3,4.4-6.5,4.4c-3.2,0-5.8-1.9-6.5-4.4c1.6,1.1,3.9,1.8,6.5,1.8
	C273.7,201,276,200.3,277.6,199.3z"/>
<path class="st9" d="M277.6,192.1c-0.9-2.4-4.3-3.8-8.4-3.3c-4.1,0.6-7.5,2.9-8.4,5.6c2.1-1.4,5.1-2.5,8.4-2.9
	C272.5,191,275.5,191.3,277.6,192.1z"/>
<path class="st6" d="M286.1,211.5c2,0,3.6-1.6,3.6-3.5c0-2-1.6-3.6-3.6-3.6c-2,0-3.6,1.6-3.6,3.6
	C282.6,209.9,284.2,211.5,286.1,211.5z"/>
<path class="st5" d="M278.6,154.6l22.9-8.4l-2.2-6l-14.1,5.2l6.2-26.4l-1.6-4.3l-21.5,7.8l2.2,6l12.7-4.6l-6.2,26.4L278.6,154.6
	L278.6,154.6z M318.6,34.6l16-2.2l-0.6-4.2l-9.9,1.4l7.7-16.3l-0.4-3l-15,2.1l0.6,4.2l8.9-1.2l-7.7,16.3L318.6,34.6L318.6,34.6z
	 M283.1,67.4l18.2-11.3l-3-4.8l-11.2,7l0.6-23.8l-2.1-3.4l-17,10.6l3,4.8l10-6.3L281,64L283.1,67.4L283.1,67.4z M310.4,105.3
	l20.8-2.9l-0.8-5.5l-12.8,1.8l10-21.1l-0.5-3.9l-19.5,2.7l0.8,5.5l11.5-1.6l-10,21.1L310.4,105.3z"/>
<path class="st5" d="M252.9,467.6c1.2,0,2.2-1,2.2-2.2c0-1.2-1-2.2-2.2-2.2c-1.2,0-2.2,1-2.2,2.2
	C250.7,466.6,251.6,467.6,252.9,467.6z"/>
<g>
	<g>
		<g>
			<path class="st10" d="M160.2,478.2v0.2c0.4-0.5,0.8-0.8,1.2-1.1c0.4-0.2,0.9-0.3,1.4-0.3c0.6,0,1.2,0.2,1.7,0.5
				c0.5,0.3,0.9,0.8,1.2,1.4c0.3,0.6,0.4,1.4,0.4,2.2c0,0.6-0.1,1.2-0.3,1.7c-0.2,0.5-0.4,1-0.7,1.3c-0.3,0.4-0.7,0.6-1.1,0.8
				c-0.4,0.2-0.9,0.3-1.3,0.3c-0.6,0-1-0.1-1.4-0.4c-0.4-0.2-0.8-0.6-1.1-1v3.1c0,0.9-0.3,1.4-1,1.4c-0.4,0-0.6-0.1-0.7-0.3
				c-0.1-0.2-0.2-0.6-0.2-1v-8.9c0-0.4,0.1-0.7,0.2-0.9c0.2-0.2,0.4-0.3,0.7-0.3c0.3,0,0.5,0.1,0.7,0.3
				C160.1,477.5,160.2,477.8,160.2,478.2z M164.1,481.2c0-0.5-0.1-1-0.2-1.4c-0.2-0.4-0.4-0.7-0.7-0.9c-0.3-0.2-0.6-0.3-0.9-0.3
				c-0.5,0-1,0.2-1.4,0.7c-0.4,0.5-0.6,1.1-0.6,2c0,0.8,0.2,1.5,0.6,1.9c0.4,0.5,0.8,0.7,1.4,0.7c0.3,0,0.6-0.1,0.9-0.3
				c0.3-0.2,0.5-0.5,0.7-0.9C164,482.2,164.1,481.8,164.1,481.2z"/>
			<path class="st10" d="M172.8,484.3V484c-0.2,0.3-0.5,0.6-0.7,0.8c-0.3,0.2-0.5,0.4-0.9,0.5c-0.3,0.1-0.7,0.2-1.1,0.2
				c-0.5,0-0.9-0.1-1.3-0.3c-0.4-0.2-0.7-0.5-0.9-0.9c-0.2-0.4-0.4-1.1-0.4-1.9v-4.1c0-0.4,0.1-0.7,0.3-0.9c0.2-0.2,0.4-0.3,0.7-0.3
				c0.3,0,0.5,0.1,0.7,0.3c0.2,0.2,0.3,0.5,0.3,0.9v3.3c0,0.5,0,0.9,0.1,1.2c0.1,0.3,0.2,0.6,0.4,0.8c0.2,0.2,0.5,0.3,0.8,0.3
				c0.3,0,0.6-0.1,0.9-0.3c0.3-0.2,0.5-0.5,0.6-0.8c0.1-0.3,0.2-0.9,0.2-1.9v-2.5c0-0.4,0.1-0.7,0.3-0.9c0.2-0.2,0.4-0.3,0.7-0.3
				c0.3,0,0.5,0.1,0.7,0.3c0.2,0.2,0.3,0.5,0.3,0.9v6c0,0.4-0.1,0.7-0.3,0.9c-0.2,0.2-0.4,0.3-0.7,0.3c-0.3,0-0.5-0.1-0.7-0.3
				C172.9,484.9,172.8,484.6,172.8,484.3z"/>
		</g>
		<g>
			<path class="st10" d="M178.5,475.1v3.2c0.4-0.4,0.7-0.7,1.1-0.9c0.4-0.2,0.9-0.3,1.4-0.3c0.7,0,1.2,0.2,1.7,0.5
				c0.5,0.3,0.9,0.8,1.2,1.4c0.3,0.6,0.4,1.3,0.4,2.2c0,0.6-0.1,1.2-0.2,1.7c-0.2,0.5-0.4,1-0.7,1.4c-0.3,0.4-0.6,0.7-1.1,0.9
				c-0.4,0.2-0.9,0.3-1.4,0.3c-0.3,0-0.6,0-0.9-0.1c-0.3-0.1-0.5-0.2-0.7-0.3c-0.2-0.1-0.4-0.2-0.5-0.4c-0.1-0.1-0.3-0.3-0.5-0.6
				v0.2c0,0.4-0.1,0.7-0.3,0.9c-0.2,0.2-0.4,0.3-0.7,0.3c-0.3,0-0.5-0.1-0.7-0.3c-0.2-0.2-0.2-0.5-0.2-0.9v-9c0-0.4,0.1-0.7,0.2-0.9
				c0.2-0.2,0.4-0.3,0.7-0.3c0.3,0,0.5,0.1,0.7,0.3C178.4,474.5,178.5,474.8,178.5,475.1z M178.6,481.3c0,0.8,0.2,1.5,0.5,1.9
				c0.4,0.4,0.8,0.7,1.4,0.7c0.5,0,0.9-0.2,1.3-0.7c0.4-0.5,0.5-1.1,0.5-1.9c0-0.5-0.1-1-0.2-1.4c-0.2-0.4-0.4-0.7-0.6-0.9
				c-0.3-0.2-0.6-0.3-1-0.3c-0.4,0-0.7,0.1-1,0.3c-0.3,0.2-0.5,0.5-0.7,0.9C178.6,480.2,178.6,480.7,178.6,481.3z"/>
		</g>
		<g>
			<path class="st10" d="M185.7,484.2v-9c0-0.4,0.1-0.7,0.3-0.9c0.2-0.2,0.4-0.3,0.7-0.3s0.5,0.1,0.7,0.3c0.2,0.2,0.3,0.5,0.3,0.9v9
				c0,0.4-0.1,0.7-0.3,0.9c-0.2,0.2-0.4,0.3-0.7,0.3c-0.3,0-0.5-0.1-0.7-0.3C185.8,484.9,185.7,484.6,185.7,484.2z"/>
			<path class="st10" d="M190.7,476.1c-0.3,0-0.5-0.1-0.7-0.3c-0.2-0.2-0.3-0.4-0.3-0.8c0-0.3,0.1-0.5,0.3-0.7
				c0.2-0.2,0.4-0.3,0.7-0.3c0.3,0,0.5,0.1,0.7,0.3c0.2,0.2,0.3,0.4,0.3,0.7c0,0.3-0.1,0.6-0.3,0.7C191.2,476,191,476.1,190.7,476.1
				z M191.7,478.2v6c0,0.4-0.1,0.7-0.3,0.9c-0.2,0.2-0.4,0.3-0.7,0.3c-0.3,0-0.5-0.1-0.7-0.3c-0.2-0.2-0.3-0.5-0.3-0.9v-5.9
				c0-0.4,0.1-0.7,0.3-0.9c0.2-0.2,0.4-0.3,0.7-0.3c0.3,0,0.5,0.1,0.7,0.3C191.6,477.6,191.7,477.8,191.7,478.2z"/>
			<path class="st10" d="M200.9,482.9c0,0.3-0.1,0.5-0.2,0.8c-0.1,0.3-0.4,0.6-0.7,0.8c-0.3,0.3-0.7,0.5-1.1,0.6
				c-0.5,0.2-1,0.2-1.5,0.2c-1.2,0-2.2-0.4-2.9-1.1c-0.7-0.7-1-1.7-1-3c0-0.8,0.2-1.6,0.5-2.2c0.3-0.6,0.8-1.2,1.4-1.5
				c0.6-0.4,1.3-0.5,2.1-0.5c0.5,0,1,0.1,1.4,0.2c0.4,0.2,0.8,0.4,1.1,0.6c0.3,0.2,0.5,0.5,0.7,0.8c0.2,0.3,0.2,0.5,0.2,0.8
				c0,0.2-0.1,0.5-0.3,0.6c-0.2,0.2-0.4,0.3-0.6,0.3c-0.2,0-0.3,0-0.4-0.1c-0.1-0.1-0.2-0.2-0.4-0.4c-0.2-0.4-0.5-0.7-0.8-0.9
				c-0.3-0.2-0.6-0.3-1-0.3c-0.6,0-1.1,0.2-1.4,0.7c-0.4,0.5-0.5,1.1-0.5,2c0,0.4,0,0.7,0.1,1.1c0.1,0.3,0.2,0.6,0.4,0.8
				c0.2,0.2,0.4,0.4,0.6,0.5c0.2,0.1,0.5,0.2,0.8,0.2c0.4,0,0.7-0.1,1-0.3c0.3-0.2,0.5-0.5,0.8-0.9c0.1-0.2,0.3-0.4,0.4-0.5
				c0.1-0.1,0.3-0.2,0.5-0.2c0.2,0,0.4,0.1,0.6,0.3C200.8,482.5,200.9,482.7,200.9,482.9z"/>
			<path class="st10" d="M208,484.3v-0.2c-0.3,0.3-0.5,0.6-0.8,0.8c-0.3,0.2-0.5,0.4-0.8,0.5c-0.3,0.1-0.6,0.2-1,0.2
				c-0.5,0-0.9-0.1-1.3-0.3c-0.4-0.2-0.8-0.5-1-0.9c-0.3-0.4-0.5-0.8-0.7-1.4c-0.2-0.5-0.2-1.1-0.2-1.7c0-1.3,0.3-2.3,0.9-3
				c0.6-0.7,1.4-1.1,2.4-1.1c0.6,0,1.1,0.1,1.4,0.3c0.4,0.2,0.8,0.5,1.1,0.9v-3c0-0.4,0.1-0.7,0.2-1c0.2-0.2,0.4-0.3,0.7-0.3
				c0.3,0,0.5,0.1,0.7,0.3c0.2,0.2,0.2,0.5,0.2,0.9v9.1c0,0.4-0.1,0.7-0.3,0.9c-0.2,0.2-0.4,0.3-0.7,0.3c-0.3,0-0.5-0.1-0.7-0.3
				C208.1,484.9,208,484.6,208,484.3z M204.1,481.2c0,0.6,0.1,1,0.2,1.4c0.2,0.4,0.4,0.7,0.7,0.9c0.3,0.2,0.6,0.3,0.9,0.3
				c0.3,0,0.7-0.1,1-0.3c0.3-0.2,0.5-0.5,0.7-0.9c0.2-0.4,0.3-0.9,0.3-1.5c0-0.6-0.1-1-0.3-1.4c-0.2-0.4-0.4-0.7-0.7-0.9
				c-0.3-0.2-0.6-0.3-1-0.3c-0.4,0-0.7,0.1-1,0.3c-0.3,0.2-0.5,0.5-0.7,0.9C204.2,480.2,204.1,480.7,204.1,481.2z"/>
			<path class="st10" d="M219.3,481.2c0,0.6-0.1,1.2-0.3,1.7c-0.2,0.5-0.4,1-0.8,1.3c-0.4,0.4-0.8,0.7-1.2,0.9
				c-0.5,0.2-1,0.3-1.6,0.3c-0.6,0-1.1-0.1-1.6-0.3c-0.5-0.2-0.9-0.5-1.2-0.9c-0.3-0.4-0.6-0.8-0.8-1.3c-0.2-0.5-0.3-1.1-0.3-1.7
				c0-0.6,0.1-1.2,0.3-1.7c0.2-0.5,0.4-1,0.8-1.3c0.3-0.4,0.8-0.7,1.2-0.8c0.5-0.2,1-0.3,1.6-0.3c0.6,0,1.1,0.1,1.6,0.3
				c0.5,0.2,0.9,0.5,1.3,0.9c0.3,0.4,0.6,0.8,0.8,1.3C219.2,480.1,219.3,480.6,219.3,481.2z M217.3,481.2c0-0.8-0.2-1.5-0.5-2
				c-0.4-0.5-0.8-0.7-1.4-0.7c-0.4,0-0.7,0.1-1,0.3c-0.3,0.2-0.5,0.5-0.7,0.9c-0.2,0.4-0.2,0.9-0.2,1.4c0,0.5,0.1,1,0.2,1.4
				c0.2,0.4,0.4,0.7,0.7,0.9c0.3,0.2,0.6,0.3,1,0.3c0.6,0,1.1-0.2,1.4-0.7C217.1,482.7,217.3,482.1,217.3,481.2z"/>
			<path class="st10" d="M227.6,479.5c-0.1,0.3-0.2,1-0.2,1.9v2.7c0,0.4-0.1,0.8-0.3,1c-0.2,0.2-0.4,0.3-0.7,0.3
				c-0.3,0-0.5-0.1-0.7-0.3c-0.2-0.2-0.3-0.5-0.3-1v-3.3c0-0.5,0-0.9-0.1-1.2c0-0.3-0.1-0.5-0.3-0.7c-0.1-0.2-0.4-0.3-0.7-0.3
				c-0.6,0-1.1,0.2-1.3,0.7c-0.2,0.5-0.3,1.1-0.3,2v2.8c0,0.4-0.1,0.8-0.3,1c-0.2,0.2-0.4,0.3-0.7,0.3c-0.3,0-0.5-0.1-0.7-0.3
				c-0.2-0.2-0.3-0.5-0.3-1v-5.9c0-0.4,0.1-0.7,0.3-0.9c0.2-0.2,0.4-0.3,0.7-0.3c0.3,0,0.5,0.1,0.7,0.3c0.2,0.2,0.3,0.4,0.3,0.8v0.2
				c0.3-0.4,0.7-0.7,1.1-0.9c0.4-0.2,0.8-0.3,1.3-0.3c0.5,0,0.9,0.1,1.3,0.3c0.4,0.2,0.7,0.5,0.9,0.9c0.3-0.4,0.7-0.7,1.1-0.9
				c0.4-0.2,0.8-0.3,1.3-0.3c0.5,0,1,0.1,1.4,0.3c0.4,0.2,0.7,0.5,0.9,1c0.2,0.4,0.3,1,0.3,1.8v4c0,0.4-0.1,0.8-0.3,1
				c-0.2,0.2-0.4,0.3-0.7,0.3c-0.3,0-0.5-0.1-0.7-0.3c-0.2-0.2-0.3-0.5-0.3-1v-3.5c0-0.4,0-0.8-0.1-1.1c0-0.3-0.1-0.5-0.3-0.7
				c-0.2-0.2-0.4-0.3-0.7-0.3c-0.3,0-0.5,0.1-0.7,0.2C227.9,479,227.7,479.3,227.6,479.5L227.6,479.5z"/>
			<path class="st10" d="M238.9,484.3c-0.5,0.4-0.9,0.7-1.4,0.9c-0.4,0.2-0.9,0.3-1.5,0.3c-0.5,0-1-0.1-1.3-0.3
				c-0.4-0.2-0.7-0.5-0.9-0.9c-0.2-0.4-0.3-0.7-0.3-1.2c0-0.6,0.2-1,0.5-1.4c0.3-0.4,0.8-0.7,1.4-0.8c0.1,0,0.4-0.1,0.9-0.2
				c0.5-0.1,0.9-0.2,1.3-0.3c0.4-0.1,0.7-0.2,1.2-0.3c0-0.5-0.1-0.9-0.3-1.2c-0.2-0.3-0.6-0.4-1.2-0.4c-0.5,0-0.9,0.1-1.1,0.2
				c-0.3,0.1-0.5,0.4-0.6,0.7c-0.2,0.3-0.3,0.5-0.4,0.6c-0.1,0.1-0.2,0.1-0.5,0.1c-0.2,0-0.4-0.1-0.6-0.2c-0.2-0.2-0.2-0.3-0.2-0.6
				c0-0.4,0.1-0.7,0.4-1.1c0.2-0.3,0.6-0.6,1.2-0.9c0.5-0.2,1.2-0.3,2-0.3c0.9,0,1.6,0.1,2.1,0.3c0.5,0.2,0.8,0.5,1.1,1
				c0.2,0.5,0.3,1.1,0.3,1.8c0,0.5,0,0.9,0,1.2c0,0.3,0,0.7,0,1.1c0,0.4,0.1,0.8,0.2,1.2c0.1,0.4,0.2,0.7,0.2,0.8
				c0,0.2-0.1,0.4-0.3,0.6c-0.2,0.2-0.4,0.3-0.6,0.3c-0.2,0-0.4-0.1-0.6-0.3C239.4,484.9,239.2,484.6,238.9,484.3z M238.8,481.3
				c-0.3,0.1-0.7,0.2-1.3,0.4c-0.6,0.1-0.9,0.2-1.1,0.3c-0.2,0.1-0.4,0.2-0.6,0.3c-0.2,0.2-0.3,0.4-0.3,0.7c0,0.3,0.1,0.6,0.3,0.8
				c0.2,0.2,0.5,0.3,0.9,0.3c0.4,0,0.8-0.1,1.1-0.3c0.3-0.2,0.6-0.4,0.7-0.7c0.2-0.3,0.3-0.8,0.3-1.5V481.3z"/>
			<path class="st10" d="M243.8,476.1c-0.3,0-0.5-0.1-0.7-0.3c-0.2-0.2-0.3-0.4-0.3-0.8c0-0.3,0.1-0.5,0.3-0.7
				c0.2-0.2,0.4-0.3,0.7-0.3c0.3,0,0.5,0.1,0.7,0.3c0.2,0.2,0.3,0.4,0.3,0.7c0,0.3-0.1,0.6-0.3,0.7C244.3,476,244,476.1,243.8,476.1
				z M244.7,478.2v6c0,0.4-0.1,0.7-0.3,0.9c-0.2,0.2-0.4,0.3-0.7,0.3c-0.3,0-0.5-0.1-0.7-0.3c-0.2-0.2-0.3-0.5-0.3-0.9v-5.9
				c0-0.4,0.1-0.7,0.3-0.9c0.2-0.2,0.4-0.3,0.7-0.3c0.3,0,0.5,0.1,0.7,0.3C244.6,477.6,244.7,477.8,244.7,478.2z"/>
		</g>
		<g>
			<path class="st10" d="M248.6,478.2v0.2c0.3-0.5,0.7-0.8,1.1-1.1c0.4-0.2,0.9-0.3,1.4-0.3c0.5,0,1,0.1,1.4,0.4
				c0.4,0.2,0.7,0.6,0.9,1c0.1,0.3,0.2,0.5,0.3,0.8c0,0.3,0.1,0.7,0.1,1.1v3.8c0,0.4-0.1,0.7-0.3,0.9c-0.2,0.2-0.4,0.3-0.7,0.3
				c-0.3,0-0.5-0.1-0.7-0.3c-0.2-0.2-0.3-0.5-0.3-0.9v-3.4c0-0.7-0.1-1.2-0.3-1.6c-0.2-0.4-0.5-0.5-1.1-0.5c-0.4,0-0.7,0.1-1,0.3
				c-0.3,0.2-0.5,0.5-0.6,0.9c-0.1,0.3-0.1,0.9-0.1,1.7v2.6c0,0.4-0.1,0.7-0.3,0.9c-0.2,0.2-0.4,0.3-0.7,0.3c-0.3,0-0.5-0.1-0.7-0.3
				c-0.2-0.2-0.3-0.5-0.3-0.9v-6c0-0.4,0.1-0.7,0.2-0.9c0.2-0.2,0.4-0.3,0.7-0.3c0.2,0,0.3,0,0.5,0.1c0.1,0.1,0.3,0.2,0.3,0.4
				C248.5,477.7,248.6,477.9,248.6,478.2z"/>
			<path class="st10" d="M257,478.3l1.6,4.7l1.7-4.9c0.1-0.4,0.3-0.7,0.4-0.8c0.1-0.2,0.3-0.2,0.6-0.2c0.3,0,0.5,0.1,0.6,0.3
				c0.2,0.2,0.3,0.4,0.3,0.6c0,0.1,0,0.2,0,0.3c0,0.1-0.1,0.2-0.1,0.3c0,0.1-0.1,0.2-0.1,0.4l-1.9,4.9c-0.1,0.1-0.1,0.3-0.2,0.5
				c-0.1,0.2-0.2,0.4-0.3,0.6c-0.1,0.2-0.2,0.3-0.4,0.4c-0.2,0.1-0.3,0.1-0.6,0.1c-0.3,0-0.5-0.1-0.7-0.2c-0.2-0.1-0.3-0.3-0.4-0.4
				c-0.1-0.2-0.2-0.5-0.4-0.9l-1.9-4.9c0-0.1-0.1-0.2-0.1-0.4c0-0.1-0.1-0.2-0.1-0.4c0-0.1,0-0.2,0-0.3c0-0.1,0-0.3,0.1-0.4
				c0.1-0.1,0.2-0.3,0.3-0.3c0.1-0.1,0.3-0.1,0.5-0.1c0.3,0,0.6,0.1,0.7,0.3C256.7,477.5,256.8,477.9,257,478.3z"/>
		</g>
		<g>
			<path class="st10" d="M268.9,481.7H265c0,0.5,0.1,0.9,0.3,1.2c0.2,0.4,0.4,0.6,0.7,0.8c0.3,0.2,0.6,0.3,1,0.3
				c0.2,0,0.5,0,0.6-0.1c0.2-0.1,0.4-0.2,0.6-0.3c0.2-0.1,0.3-0.3,0.5-0.4c0.2-0.1,0.4-0.3,0.6-0.6c0.1-0.1,0.2-0.1,0.4-0.1
				c0.2,0,0.4,0.1,0.5,0.2c0.1,0.1,0.2,0.3,0.2,0.5c0,0.2-0.1,0.4-0.2,0.7c-0.1,0.2-0.3,0.5-0.6,0.7c-0.3,0.2-0.6,0.4-1.1,0.6
				c-0.4,0.2-0.9,0.2-1.5,0.2c-1.3,0-2.3-0.4-3-1.1c-0.7-0.8-1.1-1.8-1.1-3.1c0-0.6,0.1-1.2,0.3-1.7c0.2-0.5,0.4-1,0.8-1.3
				c0.3-0.4,0.7-0.7,1.2-0.9c0.5-0.2,1-0.3,1.6-0.3c0.8,0,1.4,0.2,2,0.5c0.6,0.3,1,0.8,1.2,1.3c0.3,0.5,0.4,1.1,0.4,1.7
				c0,0.5-0.1,0.9-0.4,1C269.8,481.7,269.4,481.7,268.9,481.7z M265,480.6h3.6c0-0.7-0.2-1.2-0.5-1.6c-0.3-0.3-0.7-0.5-1.3-0.5
				c-0.5,0-0.9,0.2-1.2,0.5C265.3,479.3,265.1,479.9,265,480.6z"/>
			<path class="st10" d="M279.3,482.9c0,0.3-0.1,0.5-0.2,0.8c-0.1,0.3-0.4,0.6-0.7,0.8c-0.3,0.3-0.7,0.5-1.1,0.6
				c-0.5,0.2-1,0.2-1.5,0.2c-1.2,0-2.2-0.4-2.9-1.1c-0.7-0.7-1-1.7-1-3c0-0.8,0.2-1.6,0.5-2.2c0.3-0.6,0.8-1.2,1.4-1.5
				c0.6-0.4,1.3-0.5,2.1-0.5c0.5,0,1,0.1,1.4,0.2c0.4,0.2,0.8,0.4,1.1,0.6c0.3,0.2,0.5,0.5,0.7,0.8c0.2,0.3,0.2,0.5,0.2,0.8
				c0,0.2-0.1,0.5-0.3,0.6c-0.2,0.2-0.4,0.3-0.6,0.3c-0.2,0-0.3,0-0.4-0.1c-0.1-0.1-0.2-0.2-0.4-0.4c-0.2-0.4-0.5-0.7-0.8-0.9
				c-0.3-0.2-0.6-0.3-1-0.3c-0.6,0-1.1,0.2-1.4,0.7c-0.4,0.5-0.5,1.1-0.5,2c0,0.4,0,0.7,0.1,1.1c0.1,0.3,0.2,0.6,0.4,0.8
				c0.2,0.2,0.4,0.4,0.6,0.5c0.2,0.1,0.5,0.2,0.8,0.2c0.4,0,0.7-0.1,1-0.3c0.3-0.2,0.5-0.5,0.8-0.9c0.1-0.2,0.2-0.4,0.4-0.5
				c0.1-0.1,0.3-0.2,0.5-0.2c0.2,0,0.4,0.1,0.6,0.3C279.2,482.5,279.3,482.7,279.3,482.9z"/>
			<path class="st10" d="M281.1,477.2h0.2V476c0-0.3,0-0.6,0-0.8c0-0.2,0.1-0.3,0.1-0.5c0.1-0.1,0.2-0.3,0.3-0.3
				c0.1-0.1,0.3-0.1,0.5-0.1c0.2,0,0.5,0.1,0.7,0.3c0.1,0.1,0.2,0.3,0.3,0.5c0,0.2,0.1,0.5,0.1,0.8v1.4h0.7c0.3,0,0.5,0.1,0.6,0.2
				c0.2,0.1,0.2,0.3,0.2,0.5c0,0.3-0.1,0.5-0.3,0.6c-0.2,0.1-0.5,0.2-0.9,0.2h-0.4v3.8c0,0.3,0,0.6,0,0.7c0,0.2,0.1,0.3,0.2,0.4
				c0.1,0.1,0.2,0.2,0.5,0.2c0.1,0,0.3,0,0.5-0.1c0.2,0,0.3-0.1,0.5-0.1c0.2,0,0.3,0.1,0.4,0.2c0.1,0.1,0.2,0.3,0.2,0.5
				c0,0.3-0.2,0.6-0.5,0.8c-0.4,0.2-0.8,0.3-1.5,0.3c-0.6,0-1.1-0.1-1.4-0.3c-0.3-0.2-0.5-0.5-0.6-0.9c-0.1-0.4-0.2-0.9-0.2-1.5v-4
				h-0.3c-0.3,0-0.5-0.1-0.6-0.2c-0.2-0.1-0.2-0.3-0.2-0.5s0.1-0.4,0.2-0.5C280.6,477.3,280.8,477.2,281.1,477.2z"/>
			<path class="st10" d="M293.7,481.2c0,0.6-0.1,1.2-0.3,1.7c-0.2,0.5-0.4,1-0.8,1.3c-0.3,0.4-0.8,0.7-1.2,0.9
				c-0.5,0.2-1,0.3-1.6,0.3c-0.6,0-1.1-0.1-1.6-0.3c-0.5-0.2-0.9-0.5-1.2-0.9c-0.3-0.4-0.6-0.8-0.8-1.3c-0.2-0.5-0.3-1.1-0.3-1.7
				c0-0.6,0.1-1.2,0.3-1.7c0.2-0.5,0.4-1,0.8-1.3c0.3-0.4,0.8-0.7,1.2-0.8c0.5-0.2,1-0.3,1.6-0.3c0.6,0,1.1,0.1,1.6,0.3
				c0.5,0.2,0.9,0.5,1.3,0.9c0.3,0.4,0.6,0.8,0.8,1.3C293.6,480.1,293.7,480.6,293.7,481.2z M291.7,481.2c0-0.8-0.2-1.5-0.5-2
				c-0.4-0.5-0.8-0.7-1.4-0.7c-0.4,0-0.7,0.1-1,0.3c-0.3,0.2-0.5,0.5-0.7,0.9c-0.2,0.4-0.2,0.9-0.2,1.4c0,0.5,0.1,1,0.2,1.4
				c0.2,0.4,0.4,0.7,0.7,0.9c0.3,0.2,0.6,0.3,1,0.3c0.6,0,1.1-0.2,1.4-0.7C291.5,482.7,291.7,482.1,291.7,481.2z"/>
		</g>
		<g>
			<path class="st10" d="M297.2,482.5v1.7c0,0.4-0.1,0.7-0.3,0.9c-0.2,0.2-0.4,0.3-0.7,0.3c-0.3,0-0.5-0.1-0.7-0.3
				c-0.2-0.2-0.3-0.5-0.3-0.9v-5.7c0-0.9,0.3-1.4,1-1.4c0.3,0,0.6,0.1,0.7,0.3c0.1,0.2,0.2,0.5,0.2,1c0.2-0.4,0.5-0.7,0.7-1
				c0.2-0.2,0.6-0.3,1-0.3c0.4,0,0.8,0.1,1.2,0.3c0.4,0.2,0.6,0.5,0.6,0.9c0,0.3-0.1,0.5-0.3,0.6c-0.2,0.2-0.3,0.2-0.5,0.2
				c-0.1,0-0.2,0-0.5-0.1c-0.3-0.1-0.5-0.1-0.7-0.1c-0.3,0-0.5,0.1-0.7,0.2c-0.2,0.2-0.3,0.4-0.4,0.7c-0.1,0.3-0.2,0.7-0.2,1.1
				C297.2,481.3,297.2,481.8,297.2,482.5z"/>
		</g>
		<g>
			<path class="st10" d="M307.7,482.7c0,0.6-0.1,1.1-0.4,1.5c-0.3,0.4-0.7,0.7-1.2,0.9c-0.5,0.2-1.2,0.3-1.9,0.3
				c-0.7,0-1.3-0.1-1.8-0.3c-0.5-0.2-0.9-0.5-1.1-0.8c-0.2-0.3-0.4-0.7-0.4-1c0-0.2,0.1-0.4,0.2-0.6c0.2-0.2,0.4-0.2,0.6-0.2
				c0.2,0,0.4,0.1,0.5,0.2c0.1,0.1,0.2,0.3,0.3,0.4c0.2,0.4,0.4,0.6,0.7,0.8c0.3,0.2,0.7,0.3,1.2,0.3c0.4,0,0.7-0.1,1-0.3
				c0.3-0.2,0.4-0.4,0.4-0.6c0-0.4-0.1-0.6-0.4-0.8c-0.3-0.2-0.7-0.3-1.3-0.5c-0.7-0.2-1.2-0.4-1.7-0.6c-0.4-0.2-0.8-0.5-1-0.8
				c-0.3-0.3-0.4-0.7-0.4-1.2c0-0.4,0.1-0.8,0.4-1.2c0.2-0.4,0.6-0.7,1-0.9c0.5-0.2,1-0.3,1.7-0.3c0.5,0,1,0.1,1.4,0.2
				c0.4,0.1,0.8,0.3,1,0.4c0.3,0.2,0.5,0.4,0.6,0.6c0.1,0.2,0.2,0.5,0.2,0.7c0,0.2-0.1,0.4-0.2,0.6c-0.2,0.1-0.4,0.2-0.6,0.2
				c-0.2,0-0.4-0.1-0.5-0.2c-0.1-0.1-0.3-0.3-0.5-0.5c-0.2-0.2-0.3-0.4-0.5-0.5c-0.2-0.1-0.5-0.2-0.8-0.2c-0.4,0-0.7,0.1-0.9,0.2
				c-0.2,0.2-0.4,0.4-0.4,0.6c0,0.2,0.1,0.4,0.3,0.5c0.2,0.1,0.4,0.3,0.7,0.3c0.3,0.1,0.7,0.2,1.2,0.3c0.6,0.2,1.1,0.3,1.5,0.6
				c0.4,0.2,0.7,0.5,0.9,0.8C307.6,482,307.7,482.4,307.7,482.7z"/>
		</g>
		<g>
			<path class="st10" d="M310,485.4c-0.3,0-0.6-0.1-0.8-0.3c-0.2-0.2-0.3-0.5-0.3-0.8c0-0.3,0.1-0.6,0.3-0.8
				c0.2-0.2,0.5-0.3,0.8-0.3c0.3,0,0.6,0.1,0.8,0.3c0.2,0.2,0.3,0.5,0.3,0.8c0,0.4-0.1,0.6-0.3,0.8
				C310.5,485.3,310.3,485.4,310,485.4z"/>
			<path class="st10" d="M320.7,481.2c0,0.6-0.1,1.2-0.3,1.7c-0.2,0.5-0.4,1-0.8,1.3c-0.4,0.4-0.8,0.7-1.2,0.9
				c-0.5,0.2-1,0.3-1.6,0.3c-0.6,0-1.1-0.1-1.6-0.3c-0.5-0.2-0.9-0.5-1.2-0.9c-0.4-0.4-0.6-0.8-0.8-1.3c-0.2-0.5-0.3-1.1-0.3-1.7
				c0-0.6,0.1-1.2,0.3-1.7c0.2-0.5,0.4-1,0.8-1.3c0.3-0.4,0.8-0.7,1.2-0.8c0.5-0.2,1-0.3,1.6-0.3c0.6,0,1.1,0.1,1.6,0.3
				c0.5,0.2,0.9,0.5,1.3,0.9c0.3,0.4,0.6,0.8,0.8,1.3C320.6,480.1,320.7,480.6,320.7,481.2z M318.7,481.2c0-0.8-0.2-1.5-0.5-2
				c-0.4-0.5-0.8-0.7-1.4-0.7c-0.4,0-0.7,0.1-1,0.3c-0.3,0.2-0.5,0.5-0.7,0.9c-0.2,0.4-0.2,0.9-0.2,1.4c0,0.5,0.1,1,0.2,1.4
				c0.2,0.4,0.4,0.7,0.7,0.9c0.3,0.2,0.6,0.3,1,0.3c0.6,0,1.1-0.2,1.4-0.7C318.6,482.7,318.7,482.1,318.7,481.2z"/>
		</g>
		<g>
			<path class="st10" d="M324.2,482.5v1.7c0,0.4-0.1,0.7-0.3,0.9c-0.2,0.2-0.4,0.3-0.7,0.3c-0.3,0-0.5-0.1-0.7-0.3
				c-0.2-0.2-0.3-0.5-0.3-0.9v-5.7c0-0.9,0.3-1.4,1-1.4c0.3,0,0.6,0.1,0.7,0.3c0.1,0.2,0.2,0.5,0.2,1c0.2-0.4,0.5-0.7,0.7-1
				c0.2-0.2,0.6-0.3,1-0.3c0.4,0,0.8,0.1,1.2,0.3c0.4,0.2,0.6,0.5,0.6,0.9c0,0.3-0.1,0.5-0.2,0.6c-0.2,0.2-0.3,0.2-0.5,0.2
				c-0.1,0-0.2,0-0.5-0.1c-0.3-0.1-0.5-0.1-0.7-0.1c-0.3,0-0.5,0.1-0.7,0.2c-0.2,0.2-0.3,0.4-0.4,0.7c-0.1,0.3-0.2,0.7-0.2,1.1
				C324.3,481.3,324.2,481.8,324.2,482.5z"/>
		</g>
		<g>
			<path class="st10" d="M335.7,478.6v6c0,0.7-0.1,1.3-0.2,1.8c-0.1,0.5-0.4,0.9-0.7,1.2c-0.3,0.3-0.7,0.6-1.2,0.7
				c-0.5,0.2-1.1,0.2-1.9,0.2c-0.7,0-1.3-0.1-1.8-0.3c-0.5-0.2-1-0.5-1.2-0.8c-0.3-0.3-0.4-0.6-0.4-1c0-0.3,0.1-0.5,0.2-0.6
				c0.2-0.2,0.4-0.2,0.6-0.2c0.3,0,0.5,0.1,0.8,0.4c0.1,0.1,0.2,0.3,0.3,0.4c0.1,0.1,0.2,0.3,0.4,0.4c0.1,0.1,0.3,0.2,0.5,0.2
				c0.2,0,0.4,0.1,0.7,0.1c0.5,0,0.9-0.1,1.2-0.2c0.3-0.1,0.5-0.4,0.6-0.6c0.1-0.3,0.2-0.6,0.2-0.9c0-0.3,0-0.8,0.1-1.5
				c-0.3,0.4-0.7,0.8-1.1,1c-0.4,0.2-0.9,0.3-1.4,0.3c-0.7,0-1.2-0.2-1.7-0.5c-0.5-0.4-0.9-0.8-1.1-1.5c-0.3-0.6-0.4-1.4-0.4-2.2
				c0-0.6,0.1-1.2,0.2-1.7c0.2-0.5,0.4-0.9,0.7-1.3c0.3-0.3,0.6-0.6,1-0.8c0.4-0.2,0.8-0.3,1.3-0.3c0.6,0,1,0.1,1.5,0.3
				c0.4,0.2,0.8,0.6,1.1,1.1v-0.3c0-0.4,0.1-0.6,0.3-0.8c0.2-0.2,0.4-0.3,0.7-0.3c0.4,0,0.6,0.1,0.8,0.4
				C335.6,477.7,335.7,478.1,335.7,478.6z M330,481.2c0,0.8,0.2,1.5,0.5,1.9c0.3,0.4,0.8,0.6,1.4,0.6c0.3,0,0.6-0.1,0.9-0.3
				c0.3-0.2,0.5-0.5,0.7-0.8c0.2-0.4,0.3-0.8,0.3-1.3c0-0.8-0.2-1.5-0.5-2c-0.4-0.5-0.8-0.7-1.4-0.7c-0.6,0-1,0.2-1.4,0.7
				C330.1,479.7,330,480.3,330,481.2z"/>
		</g>
	</g>
	<g>
		<g>
			<path class="st10" d="M235.4,456.6c0-3.3,1.1-6.2,3.4-8.6c2.3-2.4,5-3.5,8.2-3.5c3.2,0,5.9,1.2,8.2,3.5c2.3,2.4,3.4,5.2,3.4,8.6
				c0,3.3-1.1,6.2-3.4,8.6c-2.3,2.4-5,3.6-8.2,3.6c-3.2,0-5.9-1.2-8.2-3.6C236.6,462.8,235.4,459.9,235.4,456.6z M238.4,456.6
				c0,2.6,0.8,4.8,2.5,6.7c1.7,1.8,3.7,2.7,6.1,2.7c2.4,0,4.4-0.9,6.1-2.7c1.7-1.8,2.5-4,2.5-6.7c0-2.6-0.8-4.8-2.5-6.7
				c-1.7-1.8-3.7-2.7-6.1-2.7c-2.4,0-4.5,0.9-6.1,2.7C239.2,451.8,238.4,454,238.4,456.6z M250,458.5h2.9c-0.2,1.6-0.9,2.8-1.9,3.7
				c-1,0.9-2.2,1.3-3.6,1.3c-1.9,0-3.4-0.7-4.6-2c-1.1-1.3-1.6-2.9-1.6-4.9c0-2.1,0.5-3.7,1.6-5c1.1-1.2,2.6-1.9,4.5-1.9
				c1.5,0,2.7,0.4,3.7,1.2c1.1,0.8,1.7,2,1.9,3.5H250c-0.3-1.3-1.1-2-2.4-2c-2.3,0-3.4,1.3-3.4,4c0,1.3,0.3,2.3,0.9,3.1
				c0.6,0.8,1.4,1.2,2.5,1.2C249,460.7,249.9,460,250,458.5z"/>
		</g>
		<polygon class="st10" points="240.1,464.2 241.8,465.6 254.3,449.7 252.6,448.2 		"/>
	</g>
</g>
<g>
	<path class="st11" d="M125.7,14.5h122.1c3.4,0,6.2,2.8,6.2,6.2v114.2c0,3.4-2.8,6.2-6.2,6.2H125.7c-3.4,0-6.2-2.8-6.2-6.2V20.7
		C119.4,17.3,122.2,14.5,125.7,14.5z"/>
	<path class="st12" d="M109.7,14.5h122.1c3.4,0,6.2,2.8,6.2,6.2v114.2c0,3.4-2.8,6.2-6.2,6.2H109.7c-3.4,0-6.2-2.8-6.2-6.2V20.7
		C103.5,17.3,106.3,14.5,109.7,14.5z"/>
	<path class="st11" d="M217.4,68.7c4.9,0,9.8,0,14.7,0c0,4.7,0,9.4,0,14.1c-4.9,0-9.8,0-14.7,0C217.4,78.1,217.4,73.4,217.4,68.7
		L217.4,68.7z M199.4,49.6c4.9,0,9.8,0,14.7,0c0,4.7,0,9.4,0,14.1c-4.9,0-9.8,0-14.7,0C199.4,59,199.4,54.3,199.4,49.6L199.4,49.6z
		 M217.4,49.6h14.7v14.1h-14.7V49.6L217.4,49.6z M199.4,107c4.9,0,9.8,0,14.7,0c0,4.7,0,9.4,0,14.1c-4.9,0-9.8,0-14.7,0
		C199.4,116.4,199.4,111.7,199.4,107L199.4,107z M217.4,107c4.9,0,9.8,0,14.7,0c0,4.7,0,9.4,0,14.1c-4.9,0-9.8,0-14.7,0
		C217.4,116.4,217.4,111.7,217.4,107L217.4,107z M199.4,87.9c4.9,0,9.8,0,14.7,0c0,4.7,0,9.4,0,14.1c-4.9,0-9.8,0-14.7,0
		C199.4,97.3,199.4,92.6,199.4,87.9L199.4,87.9z M217.4,87.9c4.9,0,9.8,0,14.7,0c0,4.7,0,9.4,0,14.1c-4.9,0-9.8,0-14.7,0
		C217.4,97.3,217.4,92.6,217.4,87.9L217.4,87.9z M199.4,68.7c4.9,0,9.8,0,14.7,0c0,4.7,0,9.4,0,14.1c-4.9,0-9.8,0-14.7,0
		C199.4,78.1,199.4,73.4,199.4,68.7z"/>
	<path class="st5" d="M181.4,68.7c4.9,0,9.8,0,14.7,0c0,4.7,0,9.4,0,14.1c-4.9,0-9.8,0-14.7,0C181.4,78.1,181.4,73.4,181.4,68.7
		L181.4,68.7z M127.5,68.7c4.9,0,9.8,0,14.7,0c0,4.7,0,9.4,0,14.1c-4.9,0-9.8,0-14.7,0C127.5,78.1,127.5,73.4,127.5,68.7L127.5,68.7
		z M127.5,49.6c4.9,0,9.8,0,14.7,0c0,4.7,0,9.4,0,14.1c-4.9,0-9.8,0-14.7,0C127.5,59,127.5,54.3,127.5,49.6L127.5,49.6z M109.5,49.6
		h14.7v14.1h-14.7V49.6L109.5,49.6z M145.5,49.6c4.9,0,9.8,0,14.7,0c0,4.7,0,9.4,0,14.1c-4.9,0-9.8,0-14.7,0
		C145.5,59,145.5,54.3,145.5,49.6L145.5,49.6z M163.5,49.6c4.9,0,9.8,0,14.7,0c0,4.7,0,9.4,0,14.1c-4.9,0-9.8,0-14.7,0
		C163.5,59,163.5,54.3,163.5,49.6L163.5,49.6z M181.4,49.6c4.9,0,9.8,0,14.7,0c0,4.7,0,9.4,0,14.1c-4.9,0-9.8,0-14.7,0
		C181.4,59,181.4,54.3,181.4,49.6L181.4,49.6z M127.5,87.9c4.9,0,9.8,0,14.7,0c0,4.7,0,9.4,0,14.1c-4.9,0-9.8,0-14.7,0
		C127.5,97.3,127.5,92.6,127.5,87.9L127.5,87.9z M127.5,107c4.9,0,9.8,0,14.7,0c0,4.7,0,9.4,0,14.1c-4.9,0-9.8,0-14.7,0
		C127.5,116.4,127.5,111.7,127.5,107L127.5,107z M127.5,126.2c4.9,0,9.8,0,14.7,0c0,4.7,0,9.4,0,14.1c-4.9,0-9.8,0-14.7,0
		C127.5,135.6,127.5,130.9,127.5,126.2L127.5,126.2z M109.5,126.2h14.7v14.1h-14.7V126.2L109.5,126.2z M145.5,126.2
		c4.9,0,9.8,0,14.7,0c0,4.7,0,9.4,0,14.1c-4.9,0-9.8,0-14.7,0C145.5,135.6,145.5,130.9,145.5,126.2L145.5,126.2z M109.5,107
		c4.9,0,9.8,0,14.7,0c0,4.7,0,9.4,0,14.1c-4.9,0-9.8,0-14.7,0C109.5,116.4,109.5,111.7,109.5,107L109.5,107z M145.5,107
		c4.9,0,9.8,0,14.7,0c0,4.7,0,9.4,0,14.1c-4.9,0-9.8,0-14.7,0C145.5,116.4,145.5,111.7,145.5,107L145.5,107z M163.5,107
		c4.9,0,9.8,0,14.7,0c0,4.7,0,9.4,0,14.1c-4.9,0-9.8,0-14.7,0C163.5,116.4,163.5,111.7,163.5,107L163.5,107z M181.4,107
		c4.9,0,9.8,0,14.7,0c0,4.7,0,9.4,0,14.1c-4.9,0-9.8,0-14.7,0C181.4,116.4,181.4,111.7,181.4,107L181.4,107z M109.5,87.9
		c4.9,0,9.8,0,14.7,0c0,4.7,0,9.4,0,14.1c-4.9,0-9.8,0-14.7,0C109.5,97.3,109.5,92.6,109.5,87.9L109.5,87.9z M145.5,87.9
		c4.9,0,9.8,0,14.7,0c0,4.7,0,9.4,0,14.1c-4.9,0-9.8,0-14.7,0C145.5,97.3,145.5,92.6,145.5,87.9L145.5,87.9z M163.5,87.9
		c4.9,0,9.8,0,14.7,0c0,4.7,0,9.4,0,14.1c-4.9,0-9.8,0-14.7,0C163.5,97.3,163.5,92.6,163.5,87.9L163.5,87.9z M181.4,87.9
		c4.9,0,9.8,0,14.7,0c0,4.7,0,9.4,0,14.1c-4.9,0-9.8,0-14.7,0C181.4,97.3,181.4,92.6,181.4,87.9L181.4,87.9z M109.5,68.7
		c4.9,0,9.8,0,14.7,0c0,4.7,0,9.4,0,14.1c-4.9,0-9.8,0-14.7,0C109.5,78.1,109.5,73.4,109.5,68.7L109.5,68.7z M145.5,68.7
		c4.9,0,9.8,0,14.7,0c0,4.7,0,9.4,0,14.1c-4.9,0-9.8,0-14.7,0C145.5,78.1,145.5,73.4,145.5,68.7L145.5,68.7z M163.5,68.7
		c4.9,0,9.8,0,14.7,0c0,4.7,0,9.4,0,14.1c-4.9,0-9.8,0-14.7,0C163.5,78.1,163.5,73.4,163.5,68.7z"/>
	<path class="st13" d="M125.7,14.5h122.1c3.4,0,6.2,2.8,6.2,6.2v17H119.4v-17C119.4,17.3,122.2,14.5,125.7,14.5z"/>
	<path class="st14" d="M109.7,14.5h122.1c3.4,0,6.2,2.8,6.2,6.2v17H103.5v-17C103.5,17.3,106.3,14.5,109.7,14.5z"/>
	<polygon class="st14" points="144.6,58.1 150.2,63 161.8,51.4 157,46.6 150.2,59.2 146.7,56.3 	"/>
	<polygon class="st14" points="163.3,58.9 168.9,63.8 180.5,52.2 175.7,47.4 168.9,60 165.4,57.1 	"/>
	<polygon class="st14" points="124.8,58.6 130.6,63.7 142.6,51.6 137.6,46.6 130.6,59.7 126.9,56.7 	"/>
	<polygon class="st14" points="108.9,58.6 114.8,63.7 126.8,51.6 121.8,46.6 114.8,59.7 111.1,56.7 	"/>
	<polygon class="st14" points="109.4,78.5 115,83.3 126.3,71.9 121.6,67.2 115,79.5 111.5,76.7 	"/>
	<polygon class="st14" points="216.2,58.8 221.8,63.7 233.3,52.1 228.5,47.3 221.8,59.9 218.2,57 	"/>
	<polygon class="st14" points="199.4,59.9 205,64.8 216.5,53.2 211.8,48.4 205,61 201.5,58.1 	"/>
	<polygon class="st14" points="183.2,58.5 188.8,63.3 200.4,51.8 195.6,47 188.8,59.5 185.3,56.6 	"/>
	<polygon class="st14" points="180.5,78 186,82.8 197.3,71.5 192.6,66.7 186,79.1 182.5,76.2 	"/>
	<polygon class="st14" points="164.3,78.1 169.9,82.9 181.2,71.6 176.5,66.8 169.9,79.2 166.4,76.3 	"/>
	<polygon class="st14" points="147.3,78 152.8,82.8 164.2,71.5 159.4,66.7 152.8,79.1 149.3,76.2 	"/>
	<polygon class="st14" points="130.4,78.1 135.9,82.9 147.3,71.6 142.6,66.8 135.9,79.2 132.4,76.3 	"/>
	<polygon class="st14" points="124,98.1 129.5,102.9 140.9,91.5 136.1,86.8 129.5,99.1 126,96.3 	"/>
	<polygon class="st14" points="110.7,97.3 116.2,102.1 127.6,90.7 122.8,86 116.2,98.3 112.7,95.5 	"/>
	<polygon class="st14" points="217.4,78 222.9,82.8 234.3,71.5 229.5,66.7 222.9,79.1 219.4,76.2 	"/>
	<polygon class="st14" points="199.6,78 205.1,82.8 216.5,71.5 211.7,66.7 205.1,79.1 201.6,76.2 	"/>
	<polygon class="st14" points="144.8,97.3 150.3,102.1 161.7,90.7 156.9,86 150.3,98.3 146.8,95.5 	"/>
	<polygon class="st14" points="127.2,135.7 132.7,140.5 144.1,129.1 139.3,124.4 132.7,136.8 129.2,133.9 	"/>
	<polygon class="st14" points="217.4,97.7 222.2,101.9 232.1,92 228,87.9 222.2,98.6 219.2,96.2 	"/>
	<polygon class="st14" points="181.8,97.3 187.3,102.1 198.7,90.7 193.9,86 187.3,98.3 183.8,95.5 	"/>
	<polygon class="st14" points="163.3,97.3 168.8,102.1 180.2,90.7 175.4,86 168.8,98.3 165.3,95.5 	"/>
	<polygon class="st14" points="199.6,97.2 205.1,102 216.5,90.6 211.7,85.9 205.1,98.2 201.6,95.4 	"/>
	<polygon class="st14" points="127.2,117.4 132.7,122.2 144.1,110.9 139.3,106.1 132.7,118.5 129.2,115.6 	"/>
	<polygon class="st14" points="110.7,117.5 116.2,122.3 127.6,110.9 122.8,106.2 116.2,118.6 112.7,115.7 	"/>
	<polygon class="st14" points="109.4,135.7 115,140.5 126.3,129.1 121.6,124.4 115,136.8 111.5,133.9 	"/>
	<polygon class="st14" points="142,116.7 147.5,121.5 158.9,110.1 154.2,105.4 147.5,117.7 144.1,114.9 	"/>
	<polygon class="st14" points="217.4,117.1 222.2,121.3 232.1,111.4 228,107.3 222.2,118 219.2,115.5 	"/>
	<polygon class="st14" points="182.5,117.3 188,122.1 199.4,110.7 194.7,106 188,118.4 184.6,115.5 	"/>
	<polygon class="st14" points="162.3,116.7 167.8,121.5 179.2,110.1 174.4,105.4 167.8,117.7 164.3,114.9 	"/>
	<polygon class="st14" points="201.5,118.3 207.1,123.1 218.4,111.7 213.7,107 207.1,119.3 203.6,116.5 	"/>
	<polygon class="st14" points="147.3,135.7 152.8,140.5 164.2,129.1 159.4,124.4 152.8,136.8 149.3,133.9 	"/>
	<text transform="matrix(1 0 0 1 119.45 30.903)" class="st15 st16">Nights with 8 Hours of sleep</text>
</g>
<g>
	<g>
		<path class="st17" d="M335.9,473c-60.1-0.9-120.2-0.6-180.2,1c-7.8,0.2-7.4,11,0,11.9c61.7,7.3,123.9,5,185.9,2.7
			c-0.5-3.9-1.1-7.8-1.6-11.7c-31.2,7.3-63.4,9.8-95.3,6.3c-30.3-3.3-61.4-11.7-91.2-1.1c1.5,3.6,3.1,7.3,4.6,10.9
			c31.5-24,72.6-33.8,111.5-25.9c7.6,1.5,10.3-8.8,3.2-11.5c-12.3-4.6-26.1-3-37.2,3.9c-3.4,2.1-4.4,8.4,0,10.3
			c8.9,3.7,24.5,5.5,25.5-8.2c0.4-5.5-2.9-10.8-7.6-13.6c-6-3.5-13.2-2.4-19.6-1.1c2.2,2.9,4.5,5.8,6.7,8.7c2.1-3.5,8.5,1,10.6,2.4
			c4.6,3.3,9,6.8,14.8,7.6c7.5,1,10.7-10.4,3.2-11.5c-7.9-1.1-12.9-8.7-20.6-10.7c-7-1.9-14.4-0.3-18.2,6.2
			c-2.8,4.7,1.8,9.7,6.7,8.7c2.6-0.5,5.4-1.1,8.1-0.7c0.9,0.1,4.8,1.4,4.1,3.1c-0.6,1.4-6.6-0.8-7.6-1.3c0,3.4,0,6.9,0,10.3
			c8.6-5.4,18.5-6.3,28-2.7c1.1-3.8,2.1-7.7,3.2-11.5c-41.9-8.5-86.6,1.2-120.7,27.1c-4.9,3.7-2.4,13.3,4.6,10.9
			c29.8-10.5,61.5-0.9,91.8,1.9c31.7,3,63.8,0.2,94.7-7.1c6.5-1.5,5.2-11.9-1.6-11.7c-61.9,2.4-124.2,4.6-185.9-2.7
			c0,4,0,7.9,0,11.9c60.1-1.6,120.2-2,180.2-1C343.6,485,343.6,473.1,335.9,473L335.9,473z"/>
	</g>
</g>
</svg>
