<?xml version="1.0" encoding="utf-8"?>
<!-- Generator: Adobe Illustrator 23.0.1, SVG Export Plug-In . SVG Version: 6.00 Build 0)  -->
<svg version="1.1" xmlns="http://www.w3.org/2000/svg" xmlns:xlink="http://www.w3.org/1999/xlink" x="0px" y="0px"
	 viewBox="0 0 534.5 725.5" style="enable-background:new 0 0 534.5 725.5;" xml:space="preserve">
<style type="text/css">
	.st0{clip-path:url(#SVGID_2_);}
	.st1{fill:#FDFDFD;}
	.st2{fill:#97CCFE;}
	.st3{fill:#424242;}
	.st4{fill:#FFDE98;}
	.st5{fill:#FEFEFE;}
	.st6{fill:#80704A;}
	.st7{fill:#C3C3C3;}
	.st8{fill:#DBDBDB;}
	.st9{fill:#D7D7D7;}
	.st10{fill:#FEF3DE;}
	.st11{fill:#D4D4D4;}
	.st12{fill:#BFBFBF;}
	.st13{fill:#D6D6D6;}
	.st14{fill:#E7EEF5;}
	.st15{fill:#C6C6C6;}
	.st16{fill:#ECECEC;}
	.st17{fill:#D2E8FD;}
	.st18{fill-rule:evenodd;clip-rule:evenodd;fill:#FFFFFF;stroke:#000000;stroke-width:4.2733;}
	.st19{fill:#FFFFFF;stroke:#000000;stroke-width:4.2733;stroke-linejoin:round;}
	.st20{fill:url(#path933_10_);stroke:#0055DF;stroke-width:2.5;stroke-linejoin:round;}
	.st21{fill:url(#path933_11_);stroke:#0055DF;stroke-width:2.5;stroke-linejoin:round;}
	.st22{fill:url(#path933_12_);stroke:#0055DF;stroke-width:2;stroke-linejoin:round;}
	.st23{fill:url(#path933_13_);stroke:#0055DF;stroke-width:2;stroke-linejoin:round;}
	.st24{fill:url(#path933_14_);stroke:#0055DF;stroke-width:2;stroke-linejoin:round;}
	.st25{fill:url(#path933_15_);stroke:#0055DF;stroke-width:2;stroke-linejoin:round;}
	.st26{fill:url(#path933_16_);stroke:#0055DF;stroke-width:2.5;stroke-linejoin:round;}
	.st27{fill:url(#path933_17_);stroke:#0055DF;stroke-width:2.5;stroke-linejoin:round;}
	.st28{fill:url(#path933_18_);stroke:#0055DF;stroke-width:2;stroke-linejoin:round;}
	.st29{opacity:0.4021;fill:url(#rect6709_1_);enable-background:new    ;}
	.st30{opacity:0.4021;fill:url(#path6711_1_);enable-background:new    ;}
	.st31{opacity:0.4021;fill:url(#path6713_1_);enable-background:new    ;}
	.st32{fill:none;stroke:#535353;stroke-width:2;stroke-linecap:round;stroke-linejoin:round;}
	.st33{fill-rule:evenodd;clip-rule:evenodd;fill:url(#path4170_1_);}
	.st34{fill:none;stroke:#666666;stroke-width:2;}
	.st35{fill-rule:evenodd;clip-rule:evenodd;fill:url(#path3093_1_);}
	.st36{fill-rule:evenodd;clip-rule:evenodd;fill:url(#path5067_1_);}
	.st37{fill-rule:evenodd;clip-rule:evenodd;fill:#FFFFFF;}
	.st38{fill:none;stroke:url(#path4252_1_);stroke-linecap:round;stroke-linejoin:round;}
	.st39{fill-rule:evenodd;clip-rule:evenodd;fill:#FFFFFF;fill-opacity:0.4802;}
	.st40{fill-rule:evenodd;clip-rule:evenodd;fill:#C9C9C9;}
	.st41{fill-rule:evenodd;clip-rule:evenodd;fill:url(#path5026_1_);}
	.st42{fill-rule:evenodd;clip-rule:evenodd;fill:#E4E4E4;}
	.st43{fill:none;stroke:url(#path5419_1_);stroke-width:1.0778;}
	.st44{fill-rule:evenodd;clip-rule:evenodd;fill:url(#path4347_1_);}
	.st45{fill-rule:evenodd;clip-rule:evenodd;fill:url(#path4641_1_);}
	.st46{fill-rule:evenodd;clip-rule:evenodd;fill:url(#path5039_1_);}
	.st47{fill-rule:evenodd;clip-rule:evenodd;fill:url(#path5045_1_);}
	.st48{opacity:0.5257;fill:none;stroke:url(#path2204_1_);enable-background:new    ;}
	.st49{fill:#FFFFFF;}
	.st50{fill:#E0ADAD;}
	.st51{fill:#C28F8F;}
	.st52{fill:#FF7F2A;}
	.st53{fill:#867777;}
	.st54{fill:#2AD4FF;}
	.st55{fill:#C87137;}
	.st56{fill:#0088AA;}
	.st57{fill:#8D0F27;}
	.st58{fill:#3B3B3B;}
	.st59{fill:#552200;}
	.st60{fill:#004455;}
	.st61{fill:#5C320E;}
	.st62{fill:#1D1D1D;}
	.st63{fill:#3E1400;}
	.st64{fill:#DF0600;stroke:#FF0000;stroke-width:11;stroke-linejoin:round;}
	.st65{fill:#CA521F;stroke:#CE6532;stroke-width:2;}
	.st66{fill:#3F973E;}
	.st67{fill:#E2E3E4;}
	.st68{fill:#D5804B;stroke:#CE6532;stroke-width:2;}
	.st69{fill:none;stroke:#000000;stroke-width:8.9411;}
	.st70{fill:none;stroke:#000000;stroke-width:2;}
	.st71{fill-rule:evenodd;clip-rule:evenodd;fill:#FFFF00;}
	.st72{opacity:0.3049;fill-rule:evenodd;clip-rule:evenodd;fill:#FFFFFF;enable-background:new    ;}
	.st73{opacity:0.3455;fill-rule:evenodd;clip-rule:evenodd;enable-background:new    ;}
	.st74{fill-rule:evenodd;clip-rule:evenodd;fill:#DBAA6E;}
	.st75{opacity:0.6301;fill-rule:evenodd;clip-rule:evenodd;fill:#FFFFFF;enable-background:new    ;}
	.st76{opacity:0.2642;fill-rule:evenodd;clip-rule:evenodd;enable-background:new    ;}
	.st77{fill:none;stroke:#000000;stroke-width:0.2882;}
	.st78{fill-rule:evenodd;clip-rule:evenodd;fill:#008000;}
	.st79{fill-rule:evenodd;clip-rule:evenodd;fill:#FF0000;}
	.st80{fill-rule:evenodd;clip-rule:evenodd;fill:#FF6600;}
	.st81{fill-rule:evenodd;clip-rule:evenodd;fill:#FF00FF;}
	.st82{fill-rule:evenodd;clip-rule:evenodd;fill:#0000FF;}
	.st83{fill:none;stroke:#000000;stroke-width:6;}
	.st84{fill:none;stroke:#000000;stroke-width:9;stroke-miterlimit:10;}
	.st85{fill:#FFFFFF;fill-opacity:0.5926;}
</style>
<g id="Layer_1">
	<g>
		<g>
			<defs>
				<rect id="SVGID_1_" x="112.3" y="346.4" width="281.3" height="381.7"/>
			</defs>
			<clipPath id="SVGID_2_">
				<use xlink:href="#SVGID_1_"  style="overflow:visible;"/>
			</clipPath>
			<g class="st0">
				<path class="st1" d="M179.8,728.1h4.6l19.7-53.6l4.2-8.4l19.3-14.4l0.2-2.6l-26.9,9.8l-6.3,13.9L179.8,728.1"/>
				<path d="M227.2,651c-0.1-0.4,0.5-1.3-0.6-0.8c-7.8,2.9-15.3,6.2-21.9,11.4c-3.6,2.8-6,6.3-7.3,10.8
					c-4.5,16.2-9.1,32.3-14.4,48.2c-0.7,2.2-1.4,4.3-2.4,6.4c-0.2,0.4-0.3,0.9-0.9,1.2c-0.3-1.4,0-2.6,0.3-3.8
					c1.4-8.1,3.4-16.2,5.4-24.2c2.5-10,5-20,7.5-30.1c1.4-5.6,4.7-9.9,9.1-13.3c7.3-5.6,15.5-9.4,24.1-12.6c1.2-0.4,2-0.9,1.8-2.3
					c-0.1-0.6,0.1-1.3,0.2-2c0.2-2.1,0.1-2-1.9-2.6c-12.3-3.5-24.5-7.4-36.2-12.6c-6.1-2.7-11.6-6.3-16.4-10.9
					c-3.7-3.6-6.9-7.7-9.6-12.1c-0.5-0.9-1.1-1.1-2.1-1c-6,0.4-11.8-0.6-16.5-4.8c-6-5.3-8.3-12.3-7.7-20.2c0.2-2.5,0.7-4.9,2-7.2
					c0.4-0.7-0.1-1-0.5-1.4c-5.2-5.8-9.7-12.1-13.5-18.8c-5.4-9.6-8.5-20.1-10.7-30.9c-2-9.7-2.8-19.6-2.6-29.5
					c0.2-14,2.9-27.7,7.1-41c2.2-6.7,4.6-13.4,7.5-19.8c0.4-0.9,0.3-1.5-0.2-2.3c-2.7-4.5-5.1-9.2-5.8-14.5
					c-1.2-8.7,1.8-14.7,9.5-19c4.7-2.7,9.8-3.8,15-4.4c1.7-0.2,3.5-0.4,5.2-0.5c0.6,0,0.9-0.4,1.3-0.8c5.8-6.7,12.3-12.7,19.7-17.7
					c7.7-5.1,15.9-8.9,25.1-10.4c5.1-0.8,10.2-1,15.3-0.5c0.8,0.1,1.6,0.2,2.4-0.3c10.9-6.2,22.6-9.4,35.1-10
					c16.3-0.8,31.7,2.7,46.6,9.2c16.2,7.1,30.2,17.3,43.2,29.3c10.8,10,20.7,20.9,28.8,33.4c10.5,16.1,18.3,33.4,23.3,51.9
					c3.5,12.9,2.5,25.6-1,38.2c-2.2,7.8-5.1,15.3-8.7,22.6c-0.3,0.5-0.4,0.9-0.1,1.6c3.6,8.3,2.1,16.1-3.3,23
					c-5.8,7.4-13.8,11.5-22.7,13.8c-0.9,0.2-1.3,0.6-1.5,1.6c-1.7,7.6-4.3,14.8-8.9,21.1c-3.4,4.6-7.9,8.2-12.3,11.8
					c-12.8,10.3-26.5,19.2-41.1,26.7c-0.7,0.4-1.4,0.7-2.2,1.1c1.9,2.2,3.8,4.1,6.6,5c7.3,2.4,14.8,4.1,22.2,6.4
					c2.8,0.9,5.4,1.9,8.1,3c5.1,2.2,9.1,5.7,11.9,10.3c4,6.6,6.8,13.8,7.7,21.4c0.5,4.4,0,8.9-0.1,13.4c-0.3,6.9-0.6,13.7-1,20.6
					c-0.3,4.6-0.4,9.3-1.3,13.9c-0.2,0.9,0,2.2-1.6,2.1c-0.9-0.4-1.1-1.2-1.3-2c-0.6-2.2-0.8-4.4-0.8-6.6
					c-0.2-6.1-0.6-12.3-0.3-18.4c0.3-6.1,0-12.2,0.2-18.3c0.1-3.8-0.5-7.4-1.8-10.9c-1.8-4.9-3.5-9.7-6.8-13.8
					c-0.3-0.4-0.6-0.8-1-1.1c-2.4-2.8-5.7-4.3-9-5.6c-4.5-1.7-9.1-2.9-13.7-4.2c-0.9-0.2-1.3,0-1.5,0.9c-0.1,0.4-0.2,0.8-0.4,1.1
					c-1.1,2.4-3,4-5,5.6c-2.5,2-5.3,3.6-8.1,5.1c-0.9,0.5-1.4,1.1-1.5,2.1c-0.4,2.4-1.2,4.6-3,6.3c-0.6,0.6-0.7,1,0,1.6
					c0.6,0.5,1.1,1,1.6,1.6c2.2,2.1,2.8,4.7,2.3,7.6c-0.7,4.5-3.4,7.8-6.7,10.6c-3.9,3.3-8.3,5.8-12.6,8.4c-5,3-9.5,6.6-13.8,10.4
					c-4.5,4-8.7,8.2-13.1,12.3c-1,0.9-2,1.7-2.9,2.7c-0.8,0.8-1.7,1.1-2.8,1.1c-1.5,0.1-2.7-0.4-3.7-1.5c-3.7-4-7.6-7.8-9.8-12.9
					c-1.6-3.5-2.8-7.1-2.7-11c0-0.7,0-1.5,0.8-1.9c1-0.1,1.2,0.7,1.5,1.4c1.2,3,2.4,5.9,4,8.7c2.4,3.9,5.3,7.2,8.8,10.1
					c0.8,0.7,1.2,0.2,1.8-0.3c3.7-3.7,7.3-7.3,11-11c6.6-6.5,14-12,22-16.5c3.6-2,7-4.2,9.7-7.3c0.5-0.6,1.1-1.2,1.5-1.8
					c1.6-2.3,1.6-3.9,0.1-6.2c-0.5-0.8-1-1.6-1.7-2.3c-1.2-1.2-1.5-2.6-1.6-4.2c-0.1-1,0.4-1.8,0.9-2.5c1.3-2,2.1-4.2,1.7-6.7
					c-0.4-2.3-1.7-3.8-3.7-4.7c-0.6-0.3-1.2-0.5-1.8-0.8c-1.9-0.9-2.4-2.6-1.4-4.3c0.9-1.5,2.1-2.7,3.1-4.1c0.9-1.2,1.8-2.4,2.3-3.8
					c0.7-2.2,0.2-3.5-1.9-4.5c-1.6-0.7-3.2-1.1-5-1.2c-3.3-0.2-6.5,0.2-9.7,0.7c-0.3,0-0.5,0.1-0.8,0.1c-0.8,0-1.5,0-1.9-0.8
					c-0.4-0.8-0.1-1.5,0.4-2.1c1-1.3,2.1-2.5,3.3-3.6c5.7-5.2,11.3-10.4,16.6-15.9c1.3-1.3,1.5-3.2,0.6-4.5c-1.5-0.3-3-0.3-4.6,0
					c-3.9,0.7-7.6,2.2-11.2,3.7c-5.5,2.3-11.1,4.4-16.4,7.1c-4.4,2.1-8.4,4.7-12,8c-4,3.8-5.8,8.6-6.5,13.9
					c-0.8,6.1-1.2,12.2-1.9,18.3c-0.4,3-0.7,6-1.1,9c-0.2,0.5-0.2,1.1-0.3,1.7c-0.7,4.3-1.5,8.6-3.1,12.6c-0.6,1.5-1.3,2.9-2.3,4.1
					c-0.4,0.5-0.8,1.2-1.6,0.5c-0.3-0.7,0-1.3,0.1-1.9c1.3-6.7,2.1-13.4,2.6-20.1c0.3-3.9,0.5-7.8,0.5-11.8
					C226.6,652.8,226.8,651.8,227.2,651"/>
				<path class="st2" d="M224.7,697.1c-0.6,0.5-0.6,1.2-0.6,1.9c0.1,6.1,2.4,11.4,5.9,16.3c2.2,3,4.8,5.6,7.3,8.3
					c0.7,0.8,3.9,0.7,4.7-0.1c5-4.6,9.9-9.3,14.9-13.9c5.9-5.6,12.5-10.3,19.5-14.4c4.1-2.4,8-5,11.2-8.6c2.9-3.1,4.5-6.8,3.9-11.1
					c-0.4-2.6-2.3-4.2-4.1-5.7c-0.8-0.6-0.7-0.9,0-1.5c1.9-1.7,3-4,3.2-6.6c0.1-1.1,0.5-1.7,1.5-2.2c3.9-2,7.7-4.3,10.9-7.4
					c0.9-0.9,1.7-1.9,2.3-3c4.2,0.9,8.4,1.9,12.5,3c3.3,0.9,6.6,1.8,9.7,3.2c0.9,0.4,1.8,0.7,2.5,1.4c0.3,0.3,0.7,0.6,1.1,0.8
					c1.8,1.9,3.1,4.2,4.1,6.5c1.9,4.4,3.8,8.8,4.7,13.6c0.6,3.3,0.1,6.6,0.1,10c0,11.5-0.5,23,0.3,34.4c0.2,2.1,0.1,4.2,1.5,6
					c-0.7,0-1.3,0-2,0c-51.6,0-103.1,0-154.7,0c-0.3,0-0.6,0-0.9,0c-1,0.1-1.1-0.3-0.8-1.1c1.8-5,3.6-10,5.5-14.9
					c4.5-12.1,9.3-24.2,13.6-36.4c1.1-3.1,1.9-6.2,4-8.8c2.8-3.6,6.1-6.5,9.7-9.1c3.5-2.5,7.1-4.6,10.8-6.7c-0.3,12.1-1,24.1-3.5,36
					c-0.1,0.3,0,0.5-0.1,0.8c0.5,0.9,0.5,1.8,0.6,2.8c0.2,1.7,0.4,3.4,0.6,5.1C225,696.1,225.1,696.7,224.7,697.1"/>
			</g>
		</g>
		<path class="st3" d="M191.5,431.9c-1.3-2.8-2-5.7-2.4-8.8c-0.2-1.7-0.3-3.4-0.3-5.1c0-0.3,0.1-0.7-0.3-0.8c-0.4,0-0.4,0.4-0.5,0.6
			c-1,2.7-1.3,5.5-0.9,8.3c1,7.9,4.4,15,8.2,21.8c6.3,11.4,14.2,21.6,21.9,32.1c0.9,1.2,1.8,2.5,2.5,4c-2.1-0.7-4.1-1.3-6.2-2
			c-6.2-2.3-12.3-4.9-18.1-8c-4.1-2.2-8.1-4.5-12.2-6.7c-0.7-0.4-1.2-1-1.8-1.5c-0.3-0.2-0.6-0.4-0.9-0.5c-0.3-0.3-0.6-0.6-1-0.8
			c-5.8-4.1-11.1-8.9-16.4-13.7c-6.1-5.6-11.7-11.6-16.7-18.1c-4.4-5.6-8.3-11.5-10.7-18.3c-1.6-4.5-2.4-9.1-0.7-13.8
			c1.2-3.2,3.3-5.7,6.3-7.2c0.3-0.2,0.5-0.5,1-0.6c8.2-1.5,16.6-1.7,24.9-1.5c4,0.1,8.1,0,12.1,0c0.7,0,1.3,0,1.9-0.2
			c0.5-0.2,1.2-0.2,1.2-0.9c0-0.7-0.5-1-1-1.2c-1.5-0.7-3.1-1.1-4.8-1.3c-2.8-0.5-5.6-1-8.4-1.1c-0.2,0-0.4-0.1-0.5-0.3
			c0-0.8,0.6-1.1,1.1-1.6c5.3-4.8,11-9.1,17.2-12.6c4.4-2.5,9-4.5,13.8-6c0.7-0.2,1.4-0.7,2.1-0.2c-2.6,2.7-5.1,5.5-7.1,8.7
			c-0.6,1-1.2,2-1.5,3.2c-0.1,0.4-0.3,0.9,0.1,1.2c0.5,0.3,0.8-0.1,1.1-0.4c1.5-1.6,3.1-3.2,4.7-4.8c1.7-1.7,3.2-3.5,5.3-4.8
			c0.4-0.3,0.7-0.6,1.1-0.8c2.4-2,5.3-3.2,8.2-4.4c7.3-3,14.9-4.7,22.8-5.6c5.2-0.6,10.3-0.7,15.5-0.4c9.8,0.5,19.4,2.2,28.8,5
			c8.7,2.6,17.1,6,25.2,10.2c10.1,5.3,19.5,11.6,28.3,18.8c5.7,4.7,11,9.8,16.1,15.1c4,4.2,7.8,8.5,11.2,13.2c0.3,0.4,0.5,0.9,1,1.1
			c1.7,2.8,3.5,5.4,5.1,8.2c3.8,6.7,7.3,13.5,10.2,20.6c3.1,7.5,5.9,15.1,7.7,23c1.4,6.1,2,12.3,1.7,18.6c-0.3,4.7-1.3,9.3-2.6,13.9
			c-1.9,6.8-4.2,13.5-7.2,20c-0.5,1-0.8,1.1-1.8,0.5c-3.3-2-6.8-3.2-10.6-3.4c-0.2,0-0.4,0-0.7,0c-1.2-0.1-1.6-0.5-1.6-1.9
			c0.1-3.9,0.9-7.7,1.2-11.6c0.5-5.2,0.8-10.5-0.2-15.7c-0.1-0.6-0.4-1.3-0.6-1.9c-0.2-0.5-0.4-1.1-1.1-1c-0.7,0.1-0.8,0.7-0.9,1.3
			c-0.5,3.3-0.6,6.7-1,10c-0.5,4.1-1.2,8.1-2,12.1c-0.6,3-0.8,6-0.9,9c-0.3,7-1.6,13.8-3.5,20.5c-0.4-1.4-0.8-2.9-1.2-4.3
			c-2.1-7.1-5.3-13.7-8.8-20.2c-6-11.2-13.2-21.7-18.8-33.1c-0.6-1.2-0.9-2.4-2-3.3c-1.8-1.7-4-1.5-6.1-1.7c-4.6-0.5-9.2-1-13.8-1.6
			c-4.8-0.6-9.6-1.2-14.4-2c-5.3-0.8-10.5-1.8-15.7-2.9c-0.4-0.1-0.8-0.2-1.3-0.3c-0.1-0.6,0.4-0.7,0.7-0.8
			c5.3-3.3,10.9-6.2,17.1-7.5c6.3-1.3,12.2-0.5,17.6,3c1.2,0.8,2.4,1.6,3.6,2.3c0.6,0.4,1.3,0.8,1.9,0.3c0.5-0.5,0.2-1.2,0-1.9
			c-1.1-3.2-3.2-5.6-5.8-7.6c-4.8-3.8-10.4-5.1-16.4-4.8c-4.6,0.3-9,1.5-13.3,3.4c-5.8,2.6-11,6.1-15.7,10.4
			c-0.6,0.6-1.2,0.4-1.8,0.3c-1.3-0.4-2.5-0.8-3.8-1.2c-0.3-0.4-0.8-0.4-1.2-0.6c-4.5-1.5-8.9-3.5-13.2-5.5
			c-10.7-5.1-21.1-10.9-30.9-17.5c-6.1-4.1-12.1-8.4-17.9-12.9C192.4,433,191.9,432.5,191.5,431.9"/>
		<path class="st4" d="M151.8,452.4c5.8,4.7,11.7,9.4,17.9,13.5c13.6,9.1,27.9,16.9,43.5,22.1c3.3,1.1,6.6,1.9,10,2.8
			c1.3,0.3,2.6,0.2,3.5-0.9c0.9-1.2,1.5-2.4,0.8-4.1c-1.4-3.3-3.7-6-5.8-8.7c-6.8-8.9-13.9-17.5-20-26.9c-0.3-0.4-0.6-0.7-0.7-1.5
			c16.8,12.7,35.4,21.6,55.5,27.6c-0.9,1.2-1.8,2.3-2.6,3.4c-1.7,2.2-3.1,4.5-4.2,7.1c-0.3,0.8-0.6,1.6-0.8,2.4
			c-0.2,0.7-0.5,1.5,0.2,2c0.7,0.5,1.3-0.1,1.9-0.5c2.8-2.1,5.2-4.6,7.9-6.8c1.8-1.5,3.6-3,5.4-4.5c0.5-0.5,1-0.6,1.8-0.4
			c14.4,3.7,29.1,5.9,43.9,7.4c2.8,0.3,5.7,0.6,8.5,1c0.5,0,0.8,0.1,1,0.6c4.5,9.7,10.4,18.6,15.7,27.9c4.3,7.4,8.4,15,11.2,23.1
			c1.6,4.4,2.7,9,2.9,13.7c0.1,1.2,0.2,2.4,0.8,3.4c0.5,1,0,2-0.1,3c-0.7,6.3-1.7,12.6-3.9,18.6c-2.8,7.6-7.3,14.1-13.7,19.1
			c-7.8,6.1-15.7,12.2-24.2,17.5c-8.8,5.5-17.8,10.8-27.5,14.7c-0.5,0.2-1,0.4-1.5,0.4c-0.9-0.2-1.9,0-2.8-0.1
			c-0.3,0-0.7,0.2-0.6-0.4c4.9-3.7,9.6-7.7,13.6-12.3c2.6-2.9,2.6-6.5,1.3-9.9c-1.2-3.2-4.1-4.3-7.3-4.4c-4.1-0.2-8,0.9-11.7,2.4
			c-8.1,3.1-16.2,6.3-24,10.3c-5.6,2.9-10.6,6.6-14.4,11.8c-1,1.3-1.7,2.8-2.6,4.3c-0.7,0.2-1.4-0.2-2-0.4
			c-8.8-3.4-17.7-6.7-26.5-10.2c-7.9-3.2-14.9-7.8-20.7-14.1c-4.1-4.5-7.4-9.6-10-15c-5.5-11.5-8.2-23.7-10.1-36.2
			c-0.6-4-1.1-8.1-1.5-12.1c0-0.4-0.1-0.7,0.1-1c1,0.1,2,0.1,3-0.1c0.2,0.2,0.4,0.4,0.5,0.6c3.1,5.7,8.2,8.2,14.4,9
			c6.2,0.8,12.3-0.2,18.4-1.4c0.3-0.1,0.4-0.2,0.5-0.5c0.5-0.3,0.9-0.1,1.4-0.1c6.7,0.2,15.1-2.8,18.3-9.7c1.9-4.1,1.7-8.2,0.6-12.5
			c-1.9-7.4-6.8-12.4-13.1-16.3c-4.3-2.7-9-4.1-14-4.7c-6.3-0.7-12.1,0.8-17.5,4c-7.9,4.7-12.4,11.7-13.6,20.9
			c-0.1,0.9,0.2,1.9-0.7,2.6c-0.5-0.3-0.5-0.9-0.7-1.4c-3.2-12.7-6.1-25.4-7.6-38.4c-0.8-7.1-1.4-14.2-1.1-21.4
			c0.2-6.3,0.9-12.5,2.5-18.6C151.2,453.5,151.2,452.8,151.8,452.4"/>
		<path class="st4" d="M224.7,697.1c-0.3-2.7-0.7-5.3-1-8c-0.1-0.5,0-0.9-0.1-1.4c1.1-0.4,1.6-1.4,2.1-2.3c2.1-3.4,2.8-7.3,3.7-11.1
			c0.3-1.3,0.5-2.6,0.8-4c0.3-0.5,0.1-1.2,0.4-1.7c0.7-4.3,2-8.5,3-12.8c1.1-4.9,2.3-9.7,3.4-14.6c1.8-7.9,6.5-13.6,13.4-17.6
			c4.3-2.5,8.7-4.5,13.3-6.3c4.7-1.9,9.2-4.4,13.8-6.4c2.3-1,4.6-2.1,7.2-2.3c0.8,1.2,0.7,3.3-0.3,4.4c-3.9,4.3-8.1,8.1-12.3,12
			c-2.4,2.3-4.9,4.5-7.2,6.9c-0.2,0.2-0.4,0.5-0.6,0.7c-0.5,0.6-1.1,1.3-0.6,2.1c0.5,0.8,1.3,0.5,2.1,0.4c3.6-0.4,7.1-1.1,10.7-0.7
			c1.6,0.2,3.2,0.6,4.7,1.3c2.2,1.1,2.7,2.3,2,4.7c-0.6,1.8-1.7,3.3-2.8,4.7c-0.9,1.1-1.8,2.1-2.6,3.3c-1.1,1.6-0.5,3.3,1.3,4
			c0.1,0,0.2,0.1,0.2,0.1c5.3,1.4,7.1,6.4,4.1,11.7c-0.8,1.5-1.7,2.8-1.2,4.6c0.2,0.5,0.2,1.1,0.6,1.5c0.9,1.2,1.8,2.5,2.7,3.7
			c1.3,1.7,1.2,3.4,0.3,5.2c-1.3,2.5-3.4,4.4-5.6,6.2c-2.9,2.3-6.1,4.1-9.3,5.9c-7.6,4.4-14.4,10-20.6,16.2
			c-3.3,3.3-6.5,6.5-9.7,9.8c-0.8,0.8-1.2,0.7-1.9,0c-3.8-3.6-7.4-7.3-9.9-12c-1.1-2.1-2-4.4-2.9-6.6
			C225.7,698.2,225.6,697.4,224.7,697.1"/>
		<path class="st3" d="M134.4,435.1c3.5,4.2,7.2,8.2,11.4,11.8c0.6,0.5,0.7,0.9,0.3,1.7c-2.9,6.9-4.6,14.1-5.6,21.5
			c-1.2,8.6-0.9,17.3-0.8,26c0.1,4.8,0.5,9.5,1,14.2c0.6,5.5,1.2,10.9,2,16.4c1,7.4,2.2,14.9,3.6,22.2c1.6,8.2,3.3,16.4,5.6,24.5
			c0,0.1,0,0.2,0,0.4c-2.2-2.2-4.4-4.2-6.4-6.4c-3-3.3-6-6.7-8.6-10.4c-2.6-3.6-4.9-7.2-7-11.1c-1.9-3.4-3.5-7-4.6-10.7
			c-0.1-0.2-0.1-0.4-0.1-0.6c-0.5-0.4-0.4-1.1-0.6-1.6c-0.1-0.3-0.2-0.7-0.3-1c-1.9-6.2-3-12.6-3.7-19c-0.4-4.5-0.8-9.1-0.7-13.6
			c0.2-14.3,2.2-28.4,6.3-42.1c2.1-7.1,4.7-14.1,7.5-20.9C133.8,435.8,134,435.3,134.4,435.1"/>
		<path class="st5" d="M151.8,452.4c-1.3,4.9-2.2,9.8-2.6,14.8c-0.4,4.9-0.5,9.9-0.2,14.8c0.2,3.5,0.5,7.1,0.8,10.6
			c0.6,5.6,1.5,11.2,2.5,16.8c1.5,8,3.4,15.9,5.4,23.7c0.1,0.2,0.2,0.4,0.2,0.6c0.5,0.4,0.3,1,0.4,1.5c0.3,1.9,0.5,3.8,1.4,5.6
			c0.1,0.3,0.3,0.6,0.1,0.9c0.5,5.7,1.2,11.3,2.1,16.9c1.3,8,3.1,15.9,5.8,23.5c3.5,9.9,8.4,19.1,16.2,26.4
			c5.9,5.6,12.8,9.5,20.4,12.4c8.7,3.3,17.3,6.6,26,9.9c-0.1,1-0.7,0.8-1.4,0.6c-8.7-2.2-17.1-5.2-25.6-8.1
			c-6.6-2.3-13.1-4.9-19-8.8c-8.3-5.4-14-12.9-18.5-21.4c-5.1-9.6-8.2-19.8-10.7-30.3c-3.5-14.5-6-29.2-8-44
			c-1.7-12.4-2.7-24.9-2.5-37.5c0.2-9.7,1.5-19.3,4.7-28.5C150.2,450.8,150.2,450.8,151.8,452.4"/>
		<path class="st5" d="M361.6,420.6c-7.7-9.9-16.3-18.9-25.9-27C317,377.8,296,366.3,272,361c-15.1-3.4-30.3-4-45.5-0.7
			c-7.1,1.5-13.9,4-20.2,7.6c-0.3,0.2-0.5,0.3-0.8,0.4c-0.2,0-0.2,0-0.1-0.2c4.1-3.6,8.7-6.3,13.6-8.6c11.3-5.5,23.3-7.8,35.9-7.5
			c14.8,0.4,28.7,4.3,42,10.6c14.8,7.1,27.7,16.9,39.5,28.1c9.1,8.6,17.6,17.9,24.6,28.3c0.3,0.4,0.5,0.8,0.8,1.2
			C362,420.6,361.8,420.6,361.6,420.6"/>
		<path class="st4" d="M355.5,563.1c0.3-2.6,0.5-5,0.7-7.4c0.1-0.7,0.5-1.2,0.7-1.8c3.2-7.9,4.6-16.3,5.6-24.7
			c0.1-0.5-0.1-1.1,0.8-1c2.7,0.3,5.3,0.7,7.7,1.9c4.7,2.3,6.3,6.5,6.2,11.3c-0.2,5.5-2.7,9.8-6.7,13.5
			C366.3,558.9,361.2,561.4,355.5,563.1"/>
		<path class="st5" d="M141.2,393.5c-0.4,0.6-1.2,0.9-1.7,1.3c-4.6,3.7-5.8,8.6-4.9,14.1c1,6.5,4.1,12.1,7.7,17.5
			c6.6,10,14.8,18.5,23.6,26.6c4.4,4,9.1,7.8,13.8,11.5c0,0.2,0,0.4-0.2,0.2c-7.3-4.5-14.1-9.6-20.7-15c-8.3-6.8-16-14.1-22.6-22.7
			c-3.5-4.6-6.8-9.5-8.4-15.2c-0.7-2.2-0.9-4.5-0.7-6.9c0.3-3,1.6-5.4,4-7.2c2.7-2.1,5.8-3.4,9-4.3
			C140.4,393.4,140.8,393.5,141.2,393.5"/>
		<path class="st5" d="M134.4,435.1c-0.1,1.2-0.8,2.3-1.3,3.4c-5,12.4-9.1,25.1-11.1,38.3c-2.8,18.5-2.6,36.8,2.3,54.9
			c0,0.1,0,0.3,0,0.4c0.1,0.3,0,0.3-0.2,0.3c-2.3-7-4-14.2-5-21.6c-1.1-7.4-1.5-14.9-1.3-22.4c0.3-12.2,2.4-24.1,5.9-35.8
			c2.2-7.1,4.7-14.2,7.7-21.2C132.5,432.7,133.4,433.9,134.4,435.1"/>
		<path class="st5" d="M284.7,608.6c-0.4,0.6-1.2,0.4-1.8,0.6c-2.5,0.8-5,1.8-7.3,3c-7.1,3.8-14.7,6.4-21.8,10
			c-3.1,1.6-6,3.4-8.6,5.7c-4.2,3.7-6.6,8.4-7.9,13.8c-2.2,9-4.2,18.1-6.6,27.1c-0.1,0.1-0.2,0.1-0.3,0c0.6-5.2,1.1-10.4,1.7-15.7
			c0.4-3.7,0.7-7.5,1.1-11.2c0.8-8.4,5.2-14.4,12.1-18.9c5.3-3.4,11-5.8,16.8-8.2c5.4-2.2,10.7-4.8,16.4-6.2
			C280.6,608.2,282.7,607.7,284.7,608.6"/>
		<path class="st5" d="M201.8,365.9c-7.9,2.1-15.1,5.8-21.9,10.4c-4.4,3-8.6,6.3-12.4,10.1c-2.5,0.3-5-0.4-7.7-0.5
			c1.3-1.3,2.6-2.6,3.9-3.9c7.6-7.1,16-13,25.9-16.4c4.3-1.5,8.8-2.4,13.3-2.6c0.6,0,1.2-0.5,1.6,0.3
			C203.7,364.1,202.7,365,201.8,365.9"/>
		<path class="st4" d="M144.4,572.4c3.3,3.2,6.5,6.1,9.8,9c0.2,0.2,0.4,0.4,0.5,0.6c1.4,4.2,3.2,8.2,5.2,12.4
			c-4.9-0.1-9.2-1.4-12.2-5.3C143.9,584.2,142.9,578.6,144.4,572.4"/>
		<path class="st5" d="M191.5,431.9c4.9,3.6,9.7,7.4,14.7,10.8c15.2,10.5,31.2,19.5,48.4,26.3c0.2,0.1,0.4,0.2,0.6,0.3
			c0,0.2,0,0.4-0.3,0.2c-6.5-1.8-12.8-4.2-18.9-6.9c-14.9-6.4-28.6-14.7-40.9-25.3C193.4,435.8,192.2,434.1,191.5,431.9"/>
		<path class="st4" d="M284.1,649.5c2.8-3.1,5.6-6.2,5.4-10.7c0.1,0,0.2-0.1,0.2-0.1c2.2,1.8,4.8,3.2,7.4,4.3
			c1.2,0.5,2.2,1.3,3.1,2.2c0.5,0.5,0.5,1,0.1,1.6c-0.7,1-1.5,1.8-2.5,2.5c-2.4,1.7-4.9,3.2-7.5,4.5c-0.5,0.2-0.8,0.4-1.2-0.2
			C288,651.7,286.4,650.3,284.1,649.5"/>
		<path class="st5" d="M330.2,657c-5.8-3.1-12.2-4.5-18.5-6c-1.7-0.4-3.5-0.9-5.2-1.3c-0.4-0.1-0.8-0.1-1-0.5c0.5-0.9,0-2.3,0.9-2.6
			c0.7-0.3,1.8,0.4,2.7,0.6c5.1,1.3,10.1,2.7,14.9,4.8c2.5,1.1,4.8,2.5,6.5,4.6C330.6,656.9,330.5,657,330.2,657"/>
		<path class="st6" d="M275.5,628.8c1.1,0.6,2.4-0.2,3.4,0.5c-1.1,0-2.2,0.1-3.4,0C274.9,629.3,275.1,629,275.5,628.8"/>
		<path class="st7" d="M204.7,363.2c-0.5-0.5-1.1-0.1-1.6-0.3c0.5-0.3,1.2-0.1,1.7-0.2c0.1,0,0.4,0,0.3,0.2
			C205,363,204.8,363.1,204.7,363.2"/>
		<path class="st8" d="M124.7,532.9c0.3,0.5,0.4,1.1,0.5,1.6c-0.9-0.1-0.5-0.9-0.7-1.3C124.5,533.1,124.5,533,124.7,532.9"/>
		<path class="st9" d="M254.9,469.6c0.1-0.1,0.2-0.2,0.3-0.2c0.4,0.2,1.1-0.1,1,0.7C255.8,469.9,255.3,469.9,254.9,469.6"/>
		<path class="st10" d="M230.4,668.8c0.1,0,0.2,0,0.3,0c-0.1,0.5-0.1,1.1-0.5,1.6C230.2,669.9,230.1,669.3,230.4,668.8"/>
		<path class="st11" d="M361.6,420.6c0.1-0.1,0.2-0.2,0.2-0.3c0.3,0.3,0.5,0.7,0.8,1C361.9,421.5,361.8,420.9,361.6,420.6"/>
		<path class="st12" d="M205.4,368.1c0.1,0,0.1,0.1,0.1,0.2c-0.3,0.3-0.6,0.6-1.1,0.7C204.5,368.5,204.9,368.3,205.4,368.1"/>
		<path class="st13" d="M179.4,464.8c0.1-0.1,0.2-0.2,0.2-0.2c0.3,0.2,0.6,0.5,0.9,0.7c-0.1,0.2-0.3,0.2-0.4,0.1
			C179.9,465.2,179.6,465.1,179.4,464.8"/>
		<path class="st14" d="M330.2,657c0.1-0.1,0.2-0.2,0.3-0.3c0.4,0.2,0.6,0.5,0.8,0.9C330.9,657.5,330.5,657.3,330.2,657"/>
		<path class="st15" d="M180.2,465.3c0.1,0,0.3,0,0.4-0.1c0.3,0.1,0.6,0.3,0.8,0.6C180.8,466,180.5,465.6,180.2,465.3"/>
		<path class="st16" d="M124.7,532.9c-0.1,0.1-0.2,0.2-0.2,0.3c-0.1-0.3-0.2-0.5-0.2-0.8c0.1-0.1,0.2-0.2,0.2-0.3
			C124.7,532.3,124.7,532.6,124.7,532.9"/>
		<path class="st5" d="M206.2,719.9c2-4.2,4.1-8.4,6.1-12.7c2.4-4.9,4.7-9.9,7.3-15c0.3,1.1,0.6,1.9,0.8,2.7c0.1,0.3,0.2,0.7,0.3,1
			c0.4,1.7,1.4,3.6,1.1,5.2c-0.3,1.5-2,2.8-3.1,4.1c-4.1,5-8.1,10-12.2,15C206.2,720.2,206.1,720.1,206.2,719.9"/>
		<path class="st17" d="M206.2,719.9c0.1,0.1,0.2,0.2,0.3,0.2c-0.1,0.3-0.3,0.5-0.6,0.7C205.7,720.4,206,720.1,206.2,719.9"/>
		<path d="M257.6,529.1c-1-0.2-1.1-1.1-1.3-1.8c-1.1-3.3-1.1-6.7-0.4-10.1c2.6-13.4,14-24.1,27.4-26c9.1-1.3,17.6,0.2,25.1,5.9
			c5,3.8,8.8,8.4,10.3,14.7c2.1,8.9-1.4,16.8-9.5,21c-4.5,2.3-9.2,3.3-14.2,3c-0.6,0.2-1.1,0.2-1.7,0.1c-6.8-1.4-11.5-5.4-14.1-11.8
			c-1.1-2.6-1.7-5.4-1.7-8.2c0-5.2,1.4-10,5-13.9c1.7-1.9,3.6-3.6,6.1-4.7c-6.3,0.2-12,2-17.1,5.4c-6.4,4.4-10.2,10.6-12.1,18
			c-0.6,2.3-0.7,4.6-1.1,6.9C258.3,528.1,258.4,528.9,257.6,529.1"/>
		<path d="M159.9,541.7c-1.5-2.4-1.6-5.2-1.9-8c0.3-7,2.4-13.3,7.3-18.3c8.6-8.9,19-11.7,31-8.1c7.6,2.3,13.9,6.6,18.1,13.5
			c2.4,3.8,3.7,8.1,3.5,12.6c-0.3,7.6-4.7,12.8-12.1,15.1c-3,0.9-6.1,1.5-9.3,1.1c-0.6,0.4-1.2,0.2-1.8,0.1
			c-5.7-1.3-9.6-4.7-11.5-10.2c-2.6-7.5-1.9-14.7,3.1-21.2c0.9-1.1,1.9-2,3-2.9c1.1-0.9,2.3-1.6,3.6-2.3c-2-0.6-4.1-0.8-6.1-0.7
			c-6.5,0.2-12,2.9-16.6,7.4c-3.4,3.3-5.2,7.4-6.1,12c-0.5,2.4-0.6,4.9-0.8,7.3c-0.1,0.9-0.1,1.9-0.9,2.5
			C161.7,542.5,160.8,542.5,159.9,541.7"/>
		<path class="st5" d="M162.5,541.7c0.7-1.9,0.7-4,0.8-6c0.7-11.4,7.8-20.2,18.8-23c4-1,8-0.7,12.2,0.4c-4.6,2-7.9,5.2-10,9.5
			c-3.4,7.2-2.2,17.1,2.8,22.5c2.6,2.8,5.9,4.2,9.6,4.7c0.1,0.1,0.2,0.1,0.3,0.2c0.2,0.4-0.2,0.2-0.3,0.2c-2.6,0.7-5.3,1.2-8,1.5
			c-4.7,0.5-9.3,0.7-13.9-0.4C169.2,549.8,165,546.9,162.5,541.7"/>
		<path class="st5" d="M257.6,529.1c0.8-1.1,0.6-2.4,0.7-3.7c1.4-13.7,10.3-25.3,25.6-28.1c1.9-0.3,3.8-0.5,6.1-0.3
			c-4.8,2.2-8.2,5.4-10.2,10c-2,4.6-2.1,9.3-1,14.1c1.9,8,8,13.5,16.3,14.6c-1,0.8-2.3,0.7-3.5,0.8c-8.9,1.2-17.8,1.5-26.6-1.2
			c-2.2-0.7-4.2-1.7-5.8-3.4C258.4,531,257.8,530.2,257.6,529.1"/>
		<path d="M172.3,485.1c-6.6-0.1-11.7,2.7-15.7,7.8c-1,1.2-1.7,2.6-2.9,3.7c-0.4,0.4-0.8,0.7-1.4,0.5c-0.5-0.2-0.5-0.7-0.6-1.2
			c-0.3-2,0-3.9,0.7-5.8c2.7-7.5,8.3-11.8,16-13.2c8.1-1.5,15.6,0.5,22.7,4.4c5.9,3.2,11,7.3,14.9,12.8c0.6,0.8,1.1,1.7,1.4,2.6
			c0.2,0.5,0.4,1.2,0,1.6c-0.4,0.4-1,0.2-1.5,0.1c-0.9-0.3-1.8-0.7-2.6-1.2c-5.9-3.4-11.7-7-18.1-9.5
			C181,486.2,176.8,485.1,172.3,485.1"/>
		<path d="M234.1,594.5c-3.9,0-7.2-0.1-10.4-0.9c-1-0.3-1.9-0.6-2.8-1.2c-0.5-0.4-0.9-0.8-0.8-1.5c0.2-0.7,0.7-0.9,1.3-1
			c2.1-0.4,4.2-0.2,6.3-0.2c16.1-0.2,31.6-3.4,46.6-9.1c1-0.4,2-0.8,3.1-0.9c0.5-0.1,1.1,0,1.4,0.5c0.4,0.5,0.2,1.1-0.1,1.6
			c-0.8,1.2-1.9,2-3.1,2.8c-4.7,2.9-9.9,4.5-15.2,6.1C251.7,593.1,242.7,594.3,234.1,594.5"/>
		<path d="M216.5,554.1c0-2.3,0.6-4,2-5.4c1.5-1.5,3.1-2.9,5-3.8c3.6-1.6,4.7-4.6,5-8.1c0.1-0.6,0.1-1.2,0.2-1.8
			c0.1-0.6,0.2-1.2,0.9-1.3c0.6-0.1,1,0.4,1.4,0.8c1.3,1.6,1.6,3.5,1.7,5.4c0.1,4-1.6,7.1-4.8,9.4c-1.4,1-2.9,2-4.3,3.1
			c-1.3,1-1.3,1.3-0.2,2.6c1.2,1.4,2.7,2.5,4.1,3.7c1.4,1.2,1.5,2.2,0.8,3.6c-0.5,0.8-1.1,1.1-2,1c-3.5-0.2-8.7-4.2-9.7-7.6
			C216.6,555,216.5,554.4,216.5,554.1"/>
		<path class="st5" d="M299.4,526c0,3.2-2.9,5.7-6.6,5.7c-3.2,0-5.6-2.6-5.7-6c-0.1-3.3,2.6-6,6.1-6
			C296.6,519.6,299.4,522.4,299.4,526"/>
		<path class="st5" d="M189.9,540.8c0-3.3,2.4-5.9,5.6-5.9c2.8,0,4.9,2.5,4.9,5.7c0,3.2-2.4,5.5-5.8,5.5
			C191.7,546.1,189.9,544.1,189.9,540.8"/>
	</g>
	<g id="layer1" transform="translate(-2170.8 -1628.2)">
		<path id="path7502" class="st18" d="M2613.3,1883c-5.6-1.6-12.2-0.7-18.4,4.3c-7.7-8.2-21.7-10.6-24.8-0.8
			c-11.6-15.2-22.7-6.2-25.2,0.7c-4.1-8.7-19.4-14.4-23-3c-4.7-7.8-10.3-8.4-16.1-7.7c0.9-11.8-17.8-17.2-21.2-6.9
			c-11.5-14.7-22.5-3.9-23.1,4.7c-22.1,3.6-6,28.6,5.7,16.1c1.6,10.2,13.3,15.6,23.8,7.8c0,8.7,7.7,13.6,16.2,12.7
			c3.4,8.7,15.3,7.7,17.7,0.2c3.2,8.3,12.6,14.1,20.8,3c1,12.7,18.3,16.7,24.4,7.3c1.3,8.8,11.7,16.8,19.2,8.7
			c0.4,12.9,21.2,20.7,26.3,8.5c50.6,15.5,31.1-37.7,10.1-35.3C2628.1,1894.3,2622,1885.6,2613.3,1883L2613.3,1883z M2596.1,1950.5
			c-2.7-0.7-5.6,0.3-7.5,2.5c-2.7,3.2-2.3,8,0.9,10.7c3.2,2.6,8,2.3,10.7-1c2.7-3.2,2.3-8-0.9-10.7
			C2598.4,1951.3,2597.3,1950.7,2596.1,1950.5L2596.1,1950.5z M2585.8,1972.6c-2.1-0.6-4.5,0.1-6,1.9c-2.1,2.5-1.8,6.1,0.7,8.2
			c2.5,2,6.2,1.7,8.2-0.7c2-2.5,1.8-6.1-0.7-8.2C2587.3,1973.2,2586.6,1972.8,2585.8,1972.6L2585.8,1972.6z M2575.1,1991.1
			c-1.9-0.6-4.1,0-5.5,1.7c-1.9,2.2-1.6,5.5,0.7,7.4c2.2,1.9,5.5,1.6,7.4-0.7c1.9-2.2,1.6-5.5-0.6-7.4l-0.1,0
			C2576.5,1991.6,2575.8,1991.3,2575.1,1991.1z M2563.6,2007.6c-1.3-0.3-2.6,0.1-3.5,1.2c-1.3,1.5-1,3.7,0.4,5c1.5,1.2,3.7,1,5-0.4
			c1.2-1.5,1-3.7-0.5-5C2564.7,2007.9,2564.1,2007.7,2563.6,2007.6L2563.6,2007.6z"/>
	</g>
	<g id="layer1_1_" transform="translate(-1831.7 -1228.6)">
		<path id="path4847" class="st18" d="M1884.6,1519.1c-6.9,1.7-13.3,8.3-14.5,18.1c-8.6-8-22.5,4.1-14.7,14.3
			c-25.1-2-31.9,46.5,13.2,35c-24.1,30.6,29.3,42.8,44.9,14.8c4.4,15.4,24.9,13.3,28.6-2c9,11.3,28.9,5.7,27.1-14.5
			c10.7,8.5,23.6-7.7,14.4-16.3c11.6-1.1,13.7-18.7-2-19.1c8.5-14.3-12.5-25-22.1-12.7c3-17.9-15.7-26.8-28.6-11.8
			c0.5-14.9-22.9-18.5-30.1,1.8C1896.9,1519.8,1890.5,1517.7,1884.6,1519.1L1884.6,1519.1z M1900.5,1620.6c-1.6,0.4-3.2,1-4.6,1.7
			c-6.2,3.3-8.3,9.2-4.4,13.1c3.7,3.9,11.8,4.4,18.1,1.2c6.2-3.3,8.3-9.2,4.4-13C1911.1,1620.5,1905.7,1619.5,1900.5,1620.6
			L1900.5,1620.6z M1918,1642.3c-1,0.3-2,0.7-2.9,1.2l-0.1,0c-4.5,2.4-6,6.7-3.2,9.7c2.8,2.9,8.7,3.3,13.2,0.9
			c4.6-2.4,6-6.8,3.3-9.7C1926.1,1642,1921.9,1641.2,1918,1642.3L1918,1642.3z M1938.4,1654.5c-0.6,0.1-1.1,0.3-1.6,0.5l-0.1,0.1
			c-2.1,1-2.8,2.8-1.5,4c1.3,1.3,4,1.4,6.1,0.3c2.2-1,2.8-2.8,1.5-4C1941.9,1654.4,1940.1,1654.1,1938.4,1654.5z"/>
	</g>
	<g id="layer1_2_" transform="translate(-1302.4 -1058.8)">
		<path id="path3964" class="st19" d="M1491.4,1209.7c6.8,0.1,13.7,0.8,20.3,2.3l0.2,0.1c27.4,6.3,40,23.3,28.3,37.9
			c-0.4,0.5-0.9,0.9-1.2,1.4c32.7,8.4,47.6,30,33.3,48.6c-6,7.8-16.2,13.9-28.5,17.8c18.6,6.7,26.1,19,16.4,29.7
			c-7.8,8.7-24.8,14.2-43.2,15c-1.3,11.4,4.4,22,11.7,32.4c0,0-15-9.8-22-18.7c-4.8-5.9-6-11.4-6.3-14.4c-2.7-0.3-5.4-0.7-8.1-1.3
			c-26.3-5.4-38.5-20.1-27.2-32.7c3.4-3.9,8.7-7.1,15-9.6c-30.6-9-44.2-29.7-30.3-47.8c2.3-3.1,5.4-5.9,9-8.5
			c-20.3-7.8-28.5-22.2-18.3-34.9c9-11.1,29.3-17.6,50.5-17.5H1491.4L1491.4,1209.7z"/>
	</g>
	
		<linearGradient id="path933_10_" gradientUnits="userSpaceOnUse" x1="377.7582" y1="459.2799" x2="392.096" y2="470.5612" gradientTransform="matrix(0.8923 0.3564 0.386 -0.9666 -209.3173 566.7741)">
		<stop  offset="0" style="stop-color:#D3EEFF"/>
		<stop  offset="1" style="stop-color:#91C2FF"/>
	</linearGradient>
	<path id="path933_2_" class="st20" d="M313.6,250.6c-0.7-1-2.2-0.6-3.2-1.1c-1.5-0.4-3.5-1-3.9-2.7c-0.1-0.9,0.4-1.7,0.7-2.5
		c5.4,0.7,10.7,2.5,14.8,5.9c-0.4,2.2-2.5,3.6-4.4,4.5c-1.2,0.6-2.4,1-3.5,1.8c-1.8,1-3.9,1.4-5.4,2.9c-0.5,1.3,1,1.9,2,2.1
		c1.2,0.2,2.3,0.7,3.4,1c1.1,0.4,2.4,1.2,2.4,2.5c-0.2,1.4-1.9,1.9-3,1.4c-2.5-0.1-11.1-2.7-12.8-5.3c-0.5-1.3,0.6-2.5,1.7-3.2
		c1.7-1.1,3.7-1.8,5.4-2.8c1.3-0.7,2.5-1.4,3.8-1.9C312.8,253.2,314.2,251.9,313.6,250.6"/>
	
		<linearGradient id="path933_11_" gradientUnits="userSpaceOnUse" x1="404.6085" y1="460.8892" x2="415.5533" y2="469.5007" gradientTransform="matrix(0.8923 0.3564 0.386 -0.9666 -209.3173 566.7741)">
		<stop  offset="0" style="stop-color:#D3EEFF"/>
		<stop  offset="1" style="stop-color:#91C2FF"/>
	</linearGradient>
	<path id="path933_1_" class="st21" d="M336.2,260.3c-0.6-0.8-1.7-0.4-2.5-0.8c-1.2-0.3-2.6-0.7-3-2.1c-0.1-0.7,0.3-1.3,0.5-1.9
		c4.2,0.5,8.2,1.9,11.3,4.5c-0.3,1.7-1.9,2.7-3.4,3.4c-0.9,0.4-1.8,0.8-2.7,1.3c-1.4,0.7-3,1.1-4.2,2.2c-0.4,1,0.8,1.5,1.5,1.6
		c0.9,0.2,1.8,0.5,2.6,0.8c0.8,0.3,1.9,0.9,1.8,1.9c-0.1,1.1-1.4,1.5-2.3,1.1c-1.9-0.1-8.5-2-9.8-4.1c-0.4-1,0.5-1.9,1.3-2.4
		c1.3-0.9,2.8-1.4,4.1-2.1c1-0.5,1.9-1,2.9-1.5C335.6,262.2,336.6,261.2,336.2,260.3"/>
	
		<linearGradient id="path933_12_" gradientUnits="userSpaceOnUse" x1="421.7663" y1="461.0366" x2="430.1013" y2="467.5946" gradientTransform="matrix(0.9035 0.3268 0.354 -0.9787 -199.1681 585.0212)">
		<stop  offset="0" style="stop-color:#D3EEFF"/>
		<stop  offset="1" style="stop-color:#91C2FF"/>
	</linearGradient>
	<path id="path933_3_" class="st22" d="M350,267.5c-0.4-0.6-1.3-0.3-1.9-0.6c-0.9-0.2-2-0.5-2.3-1.5c-0.1-0.5,0.2-1,0.3-1.5
		c3.2,0.3,6.3,1.2,8.7,3.2c-0.2,1.3-1.4,2.1-2.5,2.7c-0.7,0.3-1.4,0.6-2,1.1c-1,0.6-2.3,0.9-3.1,1.8c-0.3,0.7,0.6,1.1,1.2,1.2
		c0.7,0.1,1.3,0.3,2,0.5c0.6,0.2,1.4,0.6,1.4,1.4c-0.1,0.8-1,1.2-1.7,0.9c-1.5,0-6.5-1.3-7.5-2.9c-0.3-0.8,0.3-1.5,0.9-1.9
		c1-0.7,2.1-1.1,3.1-1.7c0.7-0.4,1.4-0.8,2.2-1.2C349.6,269,350.3,268.2,350,267.5"/>
	
		<linearGradient id="path933_13_" gradientUnits="userSpaceOnUse" x1="438.1004" y1="464.3498" x2="446.4354" y2="470.9079" gradientTransform="matrix(0.9035 0.3268 0.354 -0.9787 -199.1681 585.0212)">
		<stop  offset="0" style="stop-color:#D3EEFF"/>
		<stop  offset="1" style="stop-color:#91C2FF"/>
	</linearGradient>
	<path id="path933_4_" class="st23" d="M365.9,269.6c-0.4-0.6-1.3-0.3-1.9-0.6c-0.9-0.2-2-0.5-2.3-1.5c-0.1-0.5,0.2-1,0.3-1.5
		c3.2,0.3,6.3,1.2,8.7,3.2c-0.2,1.3-1.4,2.1-2.5,2.7c-0.7,0.3-1.4,0.6-2,1.1c-1,0.6-2.3,0.9-3.1,1.8c-0.3,0.7,0.6,1.1,1.2,1.2
		c0.7,0.1,1.3,0.3,2,0.5c0.6,0.2,1.4,0.6,1.4,1.4c-0.1,0.8-1,1.2-1.7,0.9c-1.5,0-6.5-1.3-7.5-2.9c-0.3-0.8,0.3-1.5,0.9-1.9
		c1-0.7,2.1-1.1,3.1-1.7c0.7-0.4,1.4-0.8,2.2-1.2C365.5,271.1,366.3,270.3,365.9,269.6"/>
	
		<linearGradient id="path933_14_" gradientUnits="userSpaceOnUse" x1="453.7872" y1="468.5165" x2="462.1222" y2="475.0746" gradientTransform="matrix(0.9035 0.3268 0.354 -0.9787 -199.1681 585.0212)">
		<stop  offset="0" style="stop-color:#D3EEFF"/>
		<stop  offset="1" style="stop-color:#91C2FF"/>
	</linearGradient>
	<path id="path933_5_" class="st24" d="M381.6,270.6c-0.4-0.6-1.3-0.3-1.9-0.6c-0.9-0.2-2-0.5-2.3-1.5c-0.1-0.5,0.2-1,0.3-1.5
		c3.2,0.3,6.3,1.2,8.7,3.2c-0.2,1.3-1.4,2.1-2.5,2.7c-0.7,0.3-1.4,0.6-2,1.1c-1,0.6-2.3,0.9-3.1,1.8c-0.3,0.7,0.6,1.1,1.2,1.2
		c0.7,0.1,1.3,0.3,2,0.5c0.6,0.2,1.4,0.6,1.4,1.4c-0.1,0.8-1,1.2-1.7,0.9c-1.5,0-6.5-1.3-7.5-2.9c-0.3-0.8,0.3-1.5,0.9-1.9
		c1-0.7,2.1-1.1,3.1-1.7c0.7-0.4,1.4-0.8,2.2-1.2C381.1,272.1,381.9,271.4,381.6,270.6"/>
	
		<linearGradient id="path933_15_" gradientUnits="userSpaceOnUse" x1="467.999" y1="469.9444" x2="476.3339" y2="476.5025" gradientTransform="matrix(0.9035 0.3268 0.354 -0.9787 -199.1681 585.0212)">
		<stop  offset="0" style="stop-color:#D3EEFF"/>
		<stop  offset="1" style="stop-color:#91C2FF"/>
	</linearGradient>
	<path id="path933_6_" class="st25" d="M394.9,273.9c-0.4-0.6-1.3-0.3-1.9-0.6c-0.9-0.2-2-0.5-2.3-1.5c-0.1-0.5,0.2-1,0.3-1.5
		c3.2,0.3,6.3,1.2,8.7,3.2c-0.2,1.3-1.4,2.1-2.5,2.7c-0.7,0.3-1.4,0.6-2,1.1c-1,0.6-2.3,0.9-3.1,1.8c-0.3,0.7,0.6,1.1,1.2,1.2
		c0.7,0.1,1.3,0.3,2,0.5c0.6,0.2,1.4,0.6,1.4,1.4c-0.1,0.8-1,1.2-1.7,0.9c-1.5,0-6.5-1.3-7.5-2.9c-0.3-0.8,0.3-1.5,0.9-1.9
		c1-0.7,2.1-1.1,3.1-1.7c0.7-0.4,1.4-0.8,2.2-1.2C394.5,275.4,395.2,274.6,394.9,273.9"/>
	
		<linearGradient id="path933_16_" gradientUnits="userSpaceOnUse" x1="483.4736" y1="474.8452" x2="500.5575" y2="488.2871" gradientTransform="matrix(0.8923 0.3564 0.386 -0.9666 -209.3173 566.7741)">
		<stop  offset="0" style="stop-color:#D3EEFF"/>
		<stop  offset="1" style="stop-color:#91C2FF"/>
	</linearGradient>
	<path id="path933_7_" class="st26" d="M415.6,272c-0.9-1.2-2.6-0.7-3.8-1.3c-1.8-0.5-4.1-1.2-4.7-3.2c-0.2-1.1,0.4-2,0.8-3
		c6.5,0.8,12.8,3,17.6,7c-0.5,2.7-3,4.3-5.3,5.3c-1.4,0.7-2.9,1.2-4.2,2.1c-2.2,1.2-4.7,1.7-6.5,3.5c-0.6,1.5,1.2,2.3,2.4,2.5
		c1.4,0.3,2.7,0.8,4.1,1.2c1.3,0.5,2.9,1.4,2.9,2.9c-0.2,1.7-2.2,2.3-3.6,1.7c-3-0.1-13.3-3.2-15.2-6.4c-0.6-1.6,0.7-3,2-3.8
		c2-1.3,4.4-2.1,6.5-3.3c1.5-0.8,3-1.6,4.6-2.3C414.6,275,416.3,273.5,415.6,272"/>
	
		<linearGradient id="path933_17_" gradientUnits="userSpaceOnUse" x1="513.3001" y1="472.1387" x2="530.384" y2="485.5806" gradientTransform="matrix(0.8923 0.3564 0.386 -0.9666 -209.3173 566.7741)">
		<stop  offset="0" style="stop-color:#D3EEFF"/>
		<stop  offset="1" style="stop-color:#91C2FF"/>
	</linearGradient>
	<path id="path933_8_" class="st27" d="M441.2,285.2c-0.9-1.2-2.6-0.7-3.8-1.3c-1.8-0.5-4.1-1.2-4.7-3.2c-0.2-1.1,0.4-2,0.8-3
		c6.5,0.8,12.8,3,17.6,7c-0.5,2.7-3,4.3-5.3,5.3c-1.4,0.7-2.9,1.2-4.2,2.1c-2.2,1.2-4.7,1.7-6.5,3.5c-0.6,1.5,1.2,2.3,2.4,2.5
		c1.4,0.3,2.7,0.8,4.1,1.2c1.3,0.5,2.9,1.4,2.9,2.9c-0.2,1.7-2.2,2.3-3.6,1.7c-3-0.1-13.3-3.2-15.2-6.4c-0.6-1.6,0.7-3,2-3.8
		c2-1.3,4.4-2.1,6.5-3.3c1.5-0.8,3-1.6,4.6-2.3C440.2,288.3,441.8,286.7,441.2,285.2"/>
	
		<linearGradient id="path933_18_" gradientUnits="userSpaceOnUse" x1="537.582" y1="472.1152" x2="545.917" y2="478.6733" gradientTransform="matrix(0.9035 0.3268 0.354 -0.9787 -199.1681 585.0212)">
		<stop  offset="0" style="stop-color:#D3EEFF"/>
		<stop  offset="1" style="stop-color:#91C2FF"/>
	</linearGradient>
	<path id="path933_9_" class="st28" d="M458.5,294.5c-0.4-0.6-1.3-0.3-1.9-0.6c-0.9-0.2-2-0.5-2.3-1.5c-0.1-0.5,0.2-1,0.3-1.5
		c3.2,0.3,6.3,1.2,8.7,3.2c-0.2,1.3-1.4,2.1-2.5,2.7c-0.7,0.3-1.4,0.6-2,1.1c-1,0.6-2.3,0.9-3.1,1.8c-0.3,0.7,0.6,1.1,1.2,1.2
		c0.7,0.1,1.3,0.3,2,0.5c0.6,0.2,1.4,0.6,1.4,1.4c-0.1,0.8-1,1.2-1.7,0.9c-1.5,0-6.5-1.3-7.5-2.9c-0.3-0.8,0.3-1.5,0.9-1.9
		c1-0.7,2.1-1.1,3.1-1.7c0.7-0.4,1.4-0.8,2.2-1.2C458.1,296,458.9,295.2,458.5,294.5"/>
	<g id="layer2">
		<g id="g6707" transform="matrix(.023542 0 0 .020868 45.314 40.279)">
			
				<linearGradient id="rect6709_1_" gradientUnits="userSpaceOnUse" x1="397438.0312" y1="-237253.3125" x2="397438.0312" y2="-237496.1719" gradientTransform="matrix(6.259431e-02 2.104491e-02 1.040616e-02 -3.939157e-02 -14849.5508 -8420.9062)">
				<stop  offset="0" style="stop-color:#000000;stop-opacity:0"/>
				<stop  offset="0.5" style="stop-color:#000000"/>
				<stop  offset="1" style="stop-color:#000000;stop-opacity:0"/>
			</linearGradient>
			<polygon id="rect6709" class="st29" points="6917,9073.1 8200.8,9504.7 8079.7,9963.2 6795.9,9531.5 			"/>
			
				<radialGradient id="path6711_1_" cx="407815.1875" cy="-243003.75" r="117.14" gradientTransform="matrix(6.259431e-02 2.104491e-02 1.040616e-02 -3.939157e-02 -14848.9756 -8420.7139)" gradientUnits="userSpaceOnUse">
				<stop  offset="0" style="stop-color:#000000"/>
				<stop  offset="1" style="stop-color:#000000;stop-opacity:0"/>
			</radialGradient>
			<path id="path6711" class="st30" d="M8200.9,9504.8l-121.1,458.4c136.7,46.9,358.1,8.6,391.6-117.9
				C8504.8,9718.7,8379.1,9564.7,8200.9,9504.8z"/>
			
				<radialGradient id="path6713_1_" cx="-395463.125" cy="-243003.75" r="117.14" gradientTransform="matrix(-6.259431e-02 -2.104491e-02 1.040616e-02 -3.939157e-02 -15375.9033 -8597.8721)" gradientUnits="userSpaceOnUse">
				<stop  offset="0" style="stop-color:#000000"/>
				<stop  offset="1" style="stop-color:#000000;stop-opacity:0"/>
			</radialGradient>
			<path id="path6713" class="st31" d="M6917,9073.1l-121.1,458.4c-137.1-45.1-303.9-214-270.5-340.5
				C6558.9,9064.5,6738.9,9013.2,6917,9073.1z"/>
		</g>
		<path id="path4196" class="st32" d="M213.1,215.3c-0.6-0.2-1.1,0-1.5,0.4l-7.5,9.4c0,0-0.4,0.6-0.7,1.6l-1.6,5.4
			c-0.3,1,0.2,1.7,1.1,2l37,11c0.9,0.3,1.7-0.2,2.1-1.3l1.6-5.4c0,0,0.3-0.7,0.3-1.3l-1.3-12.1c0-0.5-0.3-1.1-0.8-1.3L213.1,215.3
			L213.1,215.3z"/>
		
			<linearGradient id="path4170_1_" gradientUnits="userSpaceOnUse" x1="212.0698" y1="506.3226" x2="240.6482" y2="493.8596" gradientTransform="matrix(0.9583 0.2856 0.2856 -0.9583 -137.4358 649.8132)">
			<stop  offset="0" style="stop-color:#BBBBBB"/>
			<stop  offset="1" style="stop-color:#9F9F9F"/>
		</linearGradient>
		<path id="path4170" class="st33" d="M203.6,226.1l0.9-0.4l36,10.8l3.2,1.3l-1.8,6.2c-0.3,1.1-1.1,1.6-2.1,1.3l-37-11
			c-1-0.3-1.4-1-1.1-2L203.6,226.1L203.6,226.1z"/>
		<path id="path5030" class="st34" d="M228.4,217.5c-2.5-0.7-4.8-0.3-5.3,0.9l-0.1,0l-2.7,4.6c-0.5,1,1.1,3.5,5.1,4.7
			c4,1.2,6.9,0,6.9-1.5l0.2-4.9l-0.1,0C232.7,219.9,230.9,218.3,228.4,217.5z"/>
		
			<radialGradient id="path3093_1_" cx="26.2746" cy="843.5784" r="20.936" gradientTransform="matrix(1.0094 1.1165 1.0152 -0.9179 -662.8769 959.0112)" gradientUnits="userSpaceOnUse">
			<stop  offset="0" style="stop-color:#E4E4E4"/>
			<stop  offset="1" style="stop-color:#D3D3D3"/>
		</radialGradient>
		<path id="path3093" class="st35" d="M204.2,225.1c-1.1,1.2-0.7,2.3,0.3,2.6l37.4,11.1c1.1,0.3,2.1-0.4,2-1.6l-1.3-12.1
			c0-0.5-0.3-1.1-0.8-1.3l-28.6-8.5c-0.6-0.2-1.1,0-1.5,0.5L204.2,225.1L204.2,225.1z"/>
		
			<radialGradient id="path5067_1_" cx="212.9414" cy="366.8508" r="3.8235" gradientTransform="matrix(0.9583 0.2856 0.1783 -0.5983 -58.3115 384.8576)" gradientUnits="userSpaceOnUse">
			<stop  offset="0" style="stop-color:#000000"/>
			<stop  offset="1" style="stop-color:#000000;stop-opacity:0"/>
		</radialGradient>
		<path id="path5067" class="st36" d="M214.8,227.3c-0.4,1.3-2.3,1.8-4.3,1.2c-2-0.6-3.4-2.1-3-3.4c0,0,0,0,0,0
			c0.4-1.3,2.3-1.8,4.3-1.2C213.9,224.5,215.2,226,214.8,227.3C214.8,227.3,214.8,227.3,214.8,227.3z"/>
		<path id="path4201" class="st37" d="M243.8,236.6c-0.3,1.2-1.1,2.1-1.9,1.9l-36.5-10.9c-1.2-0.4-1.7-0.8-1.7-1.4
			c-0.2,0.9,0.3,1.8,1.5,2.2l36.5,10.9c1,0.3,2.1-0.9,2.2-2.5L243.8,236.6L243.8,236.6z"/>
		
			<linearGradient id="path4252_1_" gradientUnits="userSpaceOnUse" x1="211.5598" y1="523.5489" x2="243.2778" y2="480.361" gradientTransform="matrix(0.9583 0.2856 0.2856 -0.9583 -137.4358 649.8132)">
			<stop  offset="0" style="stop-color:#FFFFFF"/>
			<stop  offset="1" style="stop-color:#FFFFFF;stop-opacity:0"/>
		</linearGradient>
		<path id="path4252" class="st38" d="M213.3,215.9c-0.6-0.2-1,0-1.4,0.4l-7.3,8.9c0,0-0.4,0.6-0.7,1.6l-1.5,5.1
			c-0.4,1.3,0,1.7,1.1,2l36.1,10.8c1.3,0.4,1.6,0.1,2-1.3l1.5-5.1c0,0,0.3-0.7,0.3-1.2l-1.3-11.7c0-0.5-0.3-0.9-0.7-1.1L213.3,215.9
			L213.3,215.9z"/>
		<path id="path4341" class="st39" d="M237,229c-0.9,3.1-6.6,4.2-12.7,2.4c-6.1-1.8-10.2-5.8-9.3-8.9c0.9-3.1,6.6-4.2,12.7-2.4
			C233.7,221.9,237.9,225.9,237,229z"/>
		<path id="path4343" class="st40" d="M232.2,226.4c-0.5,1.7-3.6,2.2-6.8,1.3c-3.3-1-5.5-3.1-5-4.8c0.5-1.7,3.6-2.2,6.8-1.3
			C230.5,222.6,232.7,224.7,232.2,226.4z"/>
		<path id="path4659" class="st34" d="M233.7,199.9c-3.5-1-7.2,1-8.2,4.5c-0.7,2.5,0.1,5,1.9,6.7l-2.4,8.1l0,0.1
			c-0.2,0.8,0.8,1.8,2.3,2.2c1.5,0.5,2.9,0.2,3.2-0.6l0-0.1l2.4-8.1c2.4-0.4,4.5-2.1,5.3-4.6C239.2,204.6,237.2,200.9,233.7,199.9z"
			/>
		
			<linearGradient id="path5026_1_" gradientUnits="userSpaceOnUse" x1="231.2141" y1="503.1599" x2="222.7451" y2="504.9099" gradientTransform="matrix(0.9583 0.2856 0.2856 -0.9583 -134.9565 641.4943)">
			<stop  offset="0" style="stop-color:#AAAAAA"/>
			<stop  offset="1" style="stop-color:#CDCDCD"/>
		</linearGradient>
		<path id="path5026" class="st41" d="M232.5,221.2l-0.2,4.9c0,1.5-2.9,2.7-6.9,1.5c-4-1.2-5.6-3.7-5.1-4.7l2.7-4.6L232.5,221.2z"/>
		<path id="path4345" class="st42" d="M232.4,221.4c-0.4,1.3-2.8,1.8-5.5,1c-2.6-0.8-4.4-2.5-4-3.8c0.4-1.3,2.8-1.8,5.5-1
			C231,218.3,232.8,220,232.4,221.4z"/>
		
			<linearGradient id="path5419_1_" gradientUnits="userSpaceOnUse" x1="584.2133" y1="372.9956" x2="584.2133" y2="376.3486" gradientTransform="matrix(0.6072 0.181 0.181 -0.6072 -195.023 342.6556)">
			<stop  offset="0" style="stop-color:#FFFFFF"/>
			<stop  offset="1" style="stop-color:#FFFFFF;stop-opacity:0"/>
		</linearGradient>
		<path id="path5419" class="st43" d="M228.5,217.6c-2.4-0.7-4.7-0.3-5.1,0.9c-0.4,1.2,1.3,2.8,3.7,3.6c2.4,0.7,4.7,0.3,5.1-0.9
			C232.6,219.9,230.9,218.3,228.5,217.6z"/>
		
			<linearGradient id="path4347_1_" gradientUnits="userSpaceOnUse" x1="228.89" y1="515.1009" x2="225.64" y2="515.1009" gradientTransform="matrix(0.9583 0.2856 0.2856 -0.9583 -134.9565 641.4943)">
			<stop  offset="0" style="stop-color:#AAAAAA"/>
			<stop  offset="1" style="stop-color:#CDCDCD"/>
		</linearGradient>
		<path id="path4347" class="st44" d="M232.3,204.6c-1.5-0.5-2.9-0.2-3.2,0.6c0,0,0,0.1,0,0.1l-0.1,0l-4,13.3l0.1,0c0,0-0.1,0-0.1,0
			c-0.2,0.8,0.8,1.8,2.3,2.2c1.5,0.5,2.9,0.2,3.2-0.6c0,0,0-0.1,0-0.1l0.1,0l4-13.3l-0.1,0c0,0,0.1,0,0.1,0
			C234.8,206.1,233.8,205.1,232.3,204.6L232.3,204.6z"/>
		
			<radialGradient id="path4641_1_" cx="-124.7546" cy="648.8262" r="6.6291" gradientTransform="matrix(2.2121 0.6593 0.6593 -2.2121 79.7442 1720.9188)" gradientUnits="userSpaceOnUse">
			<stop  offset="0" style="stop-color:#FF8A2B"/>
			<stop  offset="1" style="stop-color:#833A00"/>
		</radialGradient>
		<path id="path4641" class="st45" d="M237.9,208.1c-1,3.4-4.6,5.4-8,4.4c-3.4-1-5.4-4.6-4.4-8c0,0,0,0,0-0.1c1-3.4,4.6-5.4,8-4.4
			C237,201,238.9,204.6,237.9,208.1C237.9,208,237.9,208,237.9,208.1z"/>
		<g id="g5049" transform="matrix(1 0 0 .84966 .81066 5.2242)">
			
				<linearGradient id="path5039_1_" gradientUnits="userSpaceOnUse" x1="817.5213" y1="20.6021" x2="819.9553" y2="11.0005" gradientTransform="matrix(0.4891 0.1715 7.314503e-02 -0.2889 -191.2174 123.6187)">
				<stop  offset="0" style="stop-color:#FF8A2B"/>
				<stop  offset="1" style="stop-color:#833A00"/>
			</linearGradient>
			<path id="path5039" class="st46" d="M213.5,260.9c-0.3,1.2-2,1.8-3.8,1.1c-1.8-0.6-3-2.1-2.7-3.4c0,0,0,0,0,0
				c0.3-1.2,2-1.8,3.8-1.1C212.6,258.1,213.9,259.6,213.5,260.9C213.5,260.9,213.5,260.9,213.5,260.9z"/>
			
				<linearGradient id="path5045_1_" gradientUnits="userSpaceOnUse" x1="1045.1871" y1="-146.5026" x2="1038.5581" y2="-128.5319" gradientTransform="matrix(0.4123 0.1446 6.165832e-02 -0.2435 -211.2825 73.5972)">
				<stop  offset="0" style="stop-color:#FF8A2B"/>
				<stop  offset="1" style="stop-color:#833A00"/>
			</linearGradient>
			<path id="path5045" class="st47" d="M213.1,260.4c-0.3,1.1-1.7,1.5-3.2,1c-1.5-0.5-2.5-1.8-2.3-2.9c0,0,0,0,0,0
				c0.3-1.1,1.7-1.5,3.2-1C212.3,258.1,213.4,259.4,213.1,260.4C213.1,260.4,213.1,260.4,213.1,260.4z"/>
		</g>
		
			<linearGradient id="path2204_1_" gradientUnits="userSpaceOnUse" x1="224.3147" y1="528.1696" x2="229.5427" y2="501.045" gradientTransform="matrix(0.9583 0.2856 0.2856 -0.9583 -135.135 642.0933)">
			<stop  offset="0" style="stop-color:#FFFFFF"/>
			<stop  offset="1" style="stop-color:#FFFFFF;stop-opacity:0"/>
		</linearGradient>
		<path id="path2204" class="st48" d="M233.5,200.6c-3.1-0.9-6.5,0.9-7.4,4c-0.7,2.2,0.4,4.6,1.9,6.1l-2,6.8c-0.9,0.1-2.4,0.4-2.6,1
			l-2.7,4.6c-0.5,0.9,1,3.2,4.7,4.3c3.7,1.1,6.4,0,6.4-1.4l0.2-5c0.2-0.7-0.9-1.4-1.7-2.1l2.1-6.9c2.1-0.4,4.4-1.8,5-4
			C238.4,204.9,236.6,201.5,233.5,200.6z"/>
	</g>
	<g id="layer1_3_" transform="translate(-245.57143,-204.36218)">
		
			<rect id="rect4008" x="435.2" y="420.8" transform="matrix(0.9624 -0.2718 0.2718 0.9624 -98.1634 136.7805)" class="st49" width="19" height="3.9"/>
		
			<rect id="rect4073" x="415.1" y="395" transform="matrix(0.9624 -0.2718 0.2718 0.9624 -91.9581 130.4124)" class="st49" width="19.4" height="4.3"/>
		<path id="path3947" class="st50" d="M427.6,427.6l-0.4-1.4l-1.4,0.4l-1.4,0.4l-0.8-2.9l-0.8-2.9l-2.9,0.8l-2.9,0.8l-0.4-1.4
			l-0.4-1.4l-1.4,0.4l-1.4,0.4l-0.4-1.4l-0.4-1.4l1.4-0.4l1.4-0.4l-0.4-1.4l-0.4-1.4l1.4-0.4l1.4-0.4l-0.4-1.4l-0.4-1.4l1.4-0.4
			l1.4-0.4l-0.4-1.4l-0.4-1.4l-1.4,0.4l-1.4,0.4l-0.4-1.4l-0.4-1.4l-1.4,0.4l-1.4,0.4l-0.4-1.4l-0.4-1.4l-1.4,0.4l-1.4,0.4l-1.6-5.7
			l-1.6-5.7l1.4-0.4l1.4-0.4l-0.4-1.4l-0.4-1.4l1.4-0.4l1.4-0.4l-0.4-1.4l-0.4-1.4l2.9-0.8l2.9-0.8l-0.4-1.4l-0.4-1.4l7.2-2l7.2-2
			l0.4,1.4l0.4,1.4l1.4-0.4l1.4-0.4l0.4,1.4l0.4,1.4l1.4-0.4l1.4-0.4l0.4,1.4l0.4,1.4l1.4-0.4l1.4-0.4l1.6,5.7l1.6,5.7l-1.4,0.4
			l-1.4,0.4l0.4,1.4l0.4,1.4l-1.4,0.4l-1.4,0.4l0.4,1.4l0.4,1.4l-1.4,0.4l-1.4,0.4l0.4,1.4l0.4,1.4l1.4-0.4l1.4-0.4l0.4,1.4l0.4,1.4
			l1.4-0.4l1.4-0.4l0.4,1.4l0.4,1.4l1.4-0.4l1.4-0.4l0.4,1.4l0.4,1.4l-1.4,0.4l-1.4,0.4l0.4,1.4l0.4,1.4l-2.9,0.8l-2.9,0.8l0.8,2.9
			l0.8,2.9l-1.4,0.4l-1.4,0.4l0.4,1.4l0.4,1.4l-5.7,1.6L428,429L427.6,427.6z M419.5,398.8l-0.4-1.4l-1.4,0.4l-1.4,0.4l0.4,1.4
			l0.4,1.4l1.4-0.4l1.4-0.4L419.5,398.8z M433.9,394.8l-0.4-1.4l-1.4,0.4l-1.4,0.4l0.4,1.4l0.4,1.4l1.4-0.4l1.4-0.4L433.9,394.8z"/>
		<path id="path3945" class="st51" d="M427.6,427.6l-0.4-1.4l-1.4,0.4l-1.4,0.4l-0.8-2.9l-0.8-2.9l-2.9,0.8l-2.9,0.8l-0.4-1.4
			l-0.4-1.4l-1.4,0.4l-1.4,0.4l-0.4-1.4l-0.4-1.4l1.4-0.4l1.4-0.4l-0.4-1.4l-0.4-1.4l1.4-0.4l1.4-0.4l-0.4-1.4l-0.4-1.4l1.4-0.4
			l1.4-0.4l-0.4-1.4l-0.4-1.4l-1.4,0.4l-1.4,0.4l-0.4-1.4l-0.4-1.4l-1.4,0.4l-1.4,0.4l-0.4-1.4l-0.4-1.4l-1.4,0.4l-1.4,0.4l-1.6-5.7
			l-1.6-5.7l1.4-0.4l1.4-0.4l-0.4-1.4l-0.4-1.4l1.4-0.4l1.4-0.4l-0.4-1.4l-0.4-1.4l2.9-0.8l2.9-0.8l-0.4-1.4l-0.4-1.4l7.2-2l7.2-2
			l0.4,1.4l0.4,1.4l1.4-0.4l1.4-0.4l0.4,1.4l0.4,1.4l1.4-0.4l1.4-0.4l0.4,1.4l0.4,1.4l1.4-0.4l1.4-0.4l1.6,5.7l1.6,5.7l-1.4,0.4
			l-1.4,0.4l0.4,1.4l0.4,1.4l-1.4,0.4l-1.4,0.4l0.4,1.4l0.4,1.4l-1.4,0.4l-1.4,0.4l0.4,1.4l0.4,1.4l1.4-0.4l1.4-0.4l0.4,1.4l0.4,1.4
			l1.4-0.4l1.4-0.4l0.4,1.4l0.4,1.4l1.4-0.4l1.4-0.4l0.4,1.4l0.4,1.4l-1.4,0.4l-1.4,0.4l0.4,1.4l0.4,1.4l-2.9,0.8l-2.9,0.8l0.8,2.9
			l0.8,2.9l-1.4,0.4l-1.4,0.4l0.4,1.4l0.4,1.4l-5.7,1.6L428,429L427.6,427.6z M421.5,416.9l-0.4-1.4l-2.9,0.8l-2.9,0.8l0.4,1.4
			l0.4,1.4l2.9-0.8l2.9-0.8L421.5,416.9z M444.5,410.4l-0.4-1.4l-2.9,0.8l-2.9,0.8l0.4,1.4l0.4,1.4l2.9-0.8l2.9-0.8L444.5,410.4z
			 M424,403.8l-0.4-1.4l2.9-0.8l2.9-0.8l0.4,1.4l0.4,1.4l1.4-0.4l1.4-0.4l-0.4-1.4l-0.4-1.4l1.4-0.4l1.4-0.4l-0.4-1.4l-0.4-1.4
			l1.4-0.4l1.4-0.4l-0.4-1.4l-0.4-1.4l-1.4,0.4l-1.4,0.4l-0.4-1.4l-0.4-1.4l-1.4,0.4l-1.4,0.4l0.8,2.9l0.8,2.9l-1.4,0.4l-1.4,0.4
			l-0.8-2.9l-0.8-2.9l-2.9,0.8l-2.9,0.8l0.8,2.9l0.8,2.9l-1.4,0.4l-1.4,0.4l-0.8-2.9l-0.8-2.9l-1.4,0.4l-1.4,0.4l0.4,1.4l0.4,1.4
			l-1.4,0.4l-1.4,0.4l0.4,1.4l0.4,1.4l1.4-0.4l1.4-0.4l0.4,1.4l0.4,1.4l1.4-0.4l1.4-0.4l0.4,1.4l0.4,1.4l1.4-0.4l1.4-0.4L424,403.8z
			"/>
		<path id="path3943" class="st52" d="M427.6,427.6l-0.4-1.4l-1.4,0.4l-1.4,0.4l-0.8-2.9l-0.8-2.9l-2.9,0.8l-2.9,0.8l-0.4-1.4
			l-0.4-1.4l-1.4,0.4l-1.4,0.4l-0.4-1.4l-0.4-1.4l1.4-0.4l1.4-0.4l-0.4-1.4l-0.4-1.4l1.4-0.4l1.4-0.4l-0.4-1.4l-0.4-1.4l1.4-0.4
			l1.4-0.4l-0.4-1.4l-0.4-1.4l-1.4,0.4l-1.4,0.4l-0.4-1.4l-0.4-1.4l-1.4,0.4l-1.4,0.4l-0.4-1.4l-0.4-1.4l-1.4,0.4l-1.4,0.4l-1.6-5.7
			l-1.6-5.7l1.4-0.4l1.4-0.4l-0.4-1.4l-0.4-1.4l1.4-0.4l1.4-0.4l-0.4-1.4l-0.4-1.4l2.9-0.8l2.9-0.8l-0.4-1.4l-0.4-1.4l7.2-2l7.2-2
			l0.4,1.4l0.4,1.4l1.4-0.4l1.4-0.4l0.4,1.4l0.4,1.4l1.4-0.4l1.4-0.4l0.4,1.4l0.4,1.4l1.4-0.4l1.4-0.4l1.6,5.7l1.6,5.7l-1.4,0.4
			l-1.4,0.4l0.4,1.4l0.4,1.4l-1.4,0.4l-1.4,0.4l0.4,1.4l0.4,1.4l-1.4,0.4l-1.4,0.4l0.4,1.4l0.4,1.4l1.4-0.4l1.4-0.4l0.4,1.4l0.4,1.4
			l1.4-0.4l1.4-0.4l0.4,1.4l0.4,1.4l1.4-0.4l1.4-0.4l0.4,1.4l0.4,1.4l-1.4,0.4l-1.4,0.4l0.4,1.4l0.4,1.4l-2.9,0.8l-2.9,0.8l0.8,2.9
			l0.8,2.9l-1.4,0.4l-1.4,0.4l0.4,1.4l0.4,1.4l-5.7,1.6L428,429L427.6,427.6z M421.5,416.9l-0.4-1.4l-2.9,0.8l-2.9,0.8l0.4,1.4
			l0.4,1.4l2.9-0.8l2.9-0.8L421.5,416.9z M444.5,410.4l-0.4-1.4l-2.9,0.8l-2.9,0.8l0.4,1.4l0.4,1.4l2.9-0.8l2.9-0.8L444.5,410.4z
			 M424,403.8l-0.4-1.4l2.9-0.8l2.9-0.8l0.4,1.4l0.4,1.4l2.9-0.8l2.9-0.8l-0.4-1.4l-0.4-1.4l1.4-0.4l1.4-0.4l-0.8-2.9l-0.8-2.9
			l-1.4,0.4l-1.4,0.4l-0.4-1.4l-0.4-1.4l-1.4,0.4l-1.4,0.4l0.8,2.9l0.8,2.9l-1.4,0.4l-1.4,0.4l-0.8-2.9l-0.8-2.9l-2.9,0.8l-2.9,0.8
			l0.8,2.9l0.8,2.9l-1.4,0.4l-1.4,0.4l-0.8-2.9l-0.8-2.9l-1.4,0.4l-1.4,0.4l0.4,1.4l0.4,1.4l-1.4,0.4l-1.4,0.4l0.8,2.9l0.8,2.9
			l1.4-0.4l1.4-0.4l0.4,1.4l0.4,1.4l2.9-0.8l2.9-0.8L424,403.8z"/>
		<path id="path3941" class="st53" d="M427.6,427.6l-0.4-1.4l-1.4,0.4l-1.4,0.4l-0.8-2.9l-0.8-2.9l-2.9,0.8l-2.9,0.8l-0.4-1.4
			l-0.4-1.4l-1.4,0.4l-1.4,0.4l-0.4-1.4l-0.4-1.4l1.4-0.4l1.4-0.4l-0.4-1.4l-0.4-1.4l1.4-0.4l1.4-0.4l-0.4-1.4l-0.4-1.4l1.4-0.4
			l1.4-0.4l-0.4-1.4l-0.4-1.4l-1.4,0.4l-1.4,0.4l-0.4-1.4l-0.4-1.4l-1.4,0.4l-1.4,0.4l-0.4-1.4l-0.4-1.4l-1.4,0.4l-1.4,0.4l-1.6-5.7
			l-1.6-5.7l1.4-0.4l1.4-0.4l-0.4-1.4l-0.4-1.4l1.4-0.4l1.4-0.4l-0.4-1.4l-0.4-1.4l2.9-0.8l2.9-0.8l-0.4-1.4l-0.4-1.4l7.2-2l7.2-2
			l0.4,1.4l0.4,1.4l1.4-0.4l1.4-0.4l0.4,1.4l0.4,1.4l1.4-0.4l1.4-0.4l0.4,1.4l0.4,1.4l1.4-0.4l1.4-0.4l1.6,5.7l1.6,5.7l-1.4,0.4
			l-1.4,0.4l0.4,1.4l0.4,1.4l-1.4,0.4l-1.4,0.4l0.4,1.4l0.4,1.4l-1.4,0.4l-1.4,0.4l0.4,1.4l0.4,1.4l1.4-0.4l1.4-0.4l0.4,1.4l0.4,1.4
			l1.4-0.4l1.4-0.4l0.4,1.4l0.4,1.4l1.4-0.4l1.4-0.4l0.4,1.4l0.4,1.4l-1.4,0.4l-1.4,0.4l0.4,1.4l0.4,1.4l-2.9,0.8l-2.9,0.8l0.8,2.9
			l0.8,2.9l-1.4,0.4l-1.4,0.4l0.4,1.4l0.4,1.4l-5.7,1.6L428,429L427.6,427.6z M421.5,416.9l-0.4-1.4l-2.9,0.8l-2.9,0.8l0.4,1.4
			l0.4,1.4l2.9-0.8l2.9-0.8L421.5,416.9z M444.5,410.4l-0.4-1.4l-2.9,0.8l-2.9,0.8l0.4,1.4l0.4,1.4l2.9-0.8l2.9-0.8L444.5,410.4z
			 M424,403.8l-0.4-1.4l2.9-0.8l2.9-0.8l0.4,1.4l0.4,1.4l2.9-0.8l2.9-0.8l-0.4-1.4l-0.4-1.4l1.4-0.4l1.4-0.4l-0.4-1.4l-0.4-1.4
			l1.4-0.4l1.4-0.4l-0.8-2.9l-0.8-2.9l-1.4,0.4l-1.4,0.4l-0.8-2.9l-0.8-2.9l-2.9,0.8l-2.9,0.8l0.4,1.4l0.4,1.4l-1.4,0.4l-1.4,0.4
			l-0.4-1.4l-0.4-1.4l-1.4,0.4l-1.4,0.4l-0.4-1.4l-0.4-1.4l-1.4,0.4l-1.4,0.4l0.4,1.4l0.4,1.4l-4.3,1.2l-4.3,1.2l0.8,2.9l0.8,2.9
			l-1.4,0.4l-1.4,0.4l0.8,2.9l0.8,2.9l1.4-0.4l1.4-0.4l0.4,1.4l0.4,1.4l1.4-0.4l1.4-0.4l0.4,1.4l0.4,1.4l2.9-0.8l2.9-0.8L424,403.8z
			 M419.5,398.8l-0.4-1.4l1.4-0.4l1.4-0.4l0.4,1.4l0.4,1.4l-1.4,0.4l-1.4,0.4L419.5,398.8z M428.1,396.4l-0.4-1.4l1.4-0.4l1.4-0.4
			l0.4,1.4l0.4,1.4l-1.4,0.4l-1.4,0.4L428.1,396.4z"/>
		<path id="path3939" class="st54" d="M427.6,427.6l-0.4-1.4l-1.4,0.4l-1.4,0.4l-0.8-2.9l-0.8-2.9l-2.9,0.8l-2.9,0.8l-0.4-1.4
			l-0.4-1.4l-1.4,0.4l-1.4,0.4l-0.4-1.4l-0.4-1.4l1.4-0.4l1.4-0.4l-0.4-1.4l-0.4-1.4l1.4-0.4l1.4-0.4l-0.4-1.4l-0.4-1.4l1.4-0.4
			l1.4-0.4l-0.4-1.4l-0.4-1.4l-1.4,0.4l-1.4,0.4l-0.4-1.4l-0.4-1.4l-1.4,0.4l-1.4,0.4l-0.4-1.4l-0.4-1.4l-1.4,0.4l-1.4,0.4l-1.6-5.7
			l-1.6-5.7l1.4-0.4l1.4-0.4l-0.4-1.4l-0.4-1.4l1.4-0.4l1.4-0.4l-0.4-1.4l-0.4-1.4l2.9-0.8l2.9-0.8l-0.4-1.4l-0.4-1.4l7.2-2l7.2-2
			l0.4,1.4l0.4,1.4l1.4-0.4l1.4-0.4l0.4,1.4l0.4,1.4l1.4-0.4l1.4-0.4l0.4,1.4l0.4,1.4l1.4-0.4l1.4-0.4l1.6,5.7l1.6,5.7l-1.4,0.4
			l-1.4,0.4l0.4,1.4l0.4,1.4l-1.4,0.4l-1.4,0.4l0.4,1.4l0.4,1.4l-1.4,0.4l-1.4,0.4l0.4,1.4l0.4,1.4l1.4-0.4l1.4-0.4l0.4,1.4l0.4,1.4
			l1.4-0.4l1.4-0.4l0.4,1.4l0.4,1.4l1.4-0.4l1.4-0.4l0.4,1.4l0.4,1.4l-1.4,0.4l-1.4,0.4l0.4,1.4l0.4,1.4l-2.9,0.8l-2.9,0.8l0.8,2.9
			l0.8,2.9l-1.4,0.4l-1.4,0.4l0.4,1.4l0.4,1.4l-5.7,1.6L428,429L427.6,427.6z M421.5,416.9l-0.4-1.4l-2.9,0.8l-2.9,0.8l0.4,1.4
			l0.4,1.4l2.9-0.8l2.9-0.8L421.5,416.9z M444.5,410.4l-0.4-1.4l-2.9,0.8l-2.9,0.8l0.4,1.4l0.4,1.4l2.9-0.8l2.9-0.8L444.5,410.4z
			 M435.5,400.5l-0.4-1.4l1.4-0.4l1.4-0.4l-0.4-1.4l-0.4-1.4l1.4-0.4l1.4-0.4l-0.8-2.9l-0.8-2.9l-1.4,0.4l-1.4,0.4l-0.8-2.9
			l-0.8-2.9l-2.9,0.8l-2.9,0.8l0.4,1.4l0.4,1.4l-1.4,0.4l-1.4,0.4l-0.4-1.4l-0.4-1.4l-1.4,0.4l-1.4,0.4l-0.4-1.4l-0.4-1.4l-1.4,0.4
			l-1.4,0.4l0.4,1.4l0.4,1.4l-4.3,1.2l-4.3,1.2l0.8,2.9l0.8,2.9l-1.4,0.4l-1.4,0.4l0.8,2.9l0.8,2.9l1.4-0.4l1.4-0.4l0.4,1.4l0.4,1.4
			l1.4-0.4l1.4-0.4l0.4,1.4l0.4,1.4l8.6-2.4l8.6-2.4L435.5,400.5z M419.5,398.8l-0.4-1.4l1.4-0.4l1.4-0.4l0.4,1.4l0.4,1.4l-1.4,0.4
			l-1.4,0.4L419.5,398.8z M428.1,396.4l-0.4-1.4l1.4-0.4l1.4-0.4l0.4,1.4l0.4,1.4l-1.4,0.4l-1.4,0.4L428.1,396.4z"/>
		<path id="path3937" class="st55" d="M427.6,427.6l-0.4-1.4l-1.4,0.4l-1.4,0.4l-0.8-2.9l-0.8-2.9l-2.9,0.8l-2.9,0.8l-0.4-1.4
			l-0.4-1.4l-1.4,0.4l-1.4,0.4l-0.4-1.4l-0.4-1.4l1.4-0.4l1.4-0.4l-0.4-1.4l-0.4-1.4l1.4-0.4l1.4-0.4l-0.4-1.4l-0.4-1.4l1.4-0.4
			l1.4-0.4l-0.4-1.4l-0.4-1.4l-1.4,0.4l-1.4,0.4l-0.4-1.4l-0.4-1.4l-1.4,0.4l-1.4,0.4l-0.4-1.4l-0.4-1.4l-1.4,0.4l-1.4,0.4l-1.6-5.7
			l-1.6-5.7l1.4-0.4l1.4-0.4l-0.4-1.4l-0.4-1.4l1.4-0.4l1.4-0.4l-0.4-1.4l-0.4-1.4l2.9-0.8l2.9-0.8l-0.4-1.4l-0.4-1.4l7.2-2l7.2-2
			l0.4,1.4l0.4,1.4l1.4-0.4l1.4-0.4l0.4,1.4l0.4,1.4l1.4-0.4l1.4-0.4l0.4,1.4l0.4,1.4l1.4-0.4l1.4-0.4l1.6,5.7l1.6,5.7l-1.4,0.4
			l-1.4,0.4l0.4,1.4l0.4,1.4l-1.4,0.4l-1.4,0.4l0.4,1.4l0.4,1.4l-1.4,0.4l-1.4,0.4l0.4,1.4l0.4,1.4l1.4-0.4l1.4-0.4l0.4,1.4l0.4,1.4
			l1.4-0.4l1.4-0.4l0.4,1.4l0.4,1.4l1.4-0.4l1.4-0.4l0.4,1.4l0.4,1.4l-1.4,0.4l-1.4,0.4l0.4,1.4l0.4,1.4l-2.9,0.8l-2.9,0.8l0.8,2.9
			l0.8,2.9l-1.4,0.4l-1.4,0.4l0.4,1.4l0.4,1.4l-5.7,1.6L428,429L427.6,427.6z M421.5,416.9l-0.4-1.4l-2.9,0.8l-2.9,0.8l0.4,1.4
			l0.4,1.4l2.9-0.8l2.9-0.8L421.5,416.9z M444.5,410.4l-0.4-1.4l-2.9,0.8l-2.9,0.8l0.4,1.4l0.4,1.4l2.9-0.8l2.9-0.8L444.5,410.4z
			 M434.2,407.1l-0.4-1.4l-5.7,1.6l-5.7,1.6l0.4,1.4l0.4,1.4l5.7-1.6l5.7-1.6L434.2,407.1z M435.5,400.5l-0.4-1.4l1.4-0.4l1.4-0.4
			l-0.4-1.4l-0.4-1.4l1.4-0.4l1.4-0.4l-0.8-2.9l-0.8-2.9l-1.4,0.4l-1.4,0.4l-0.8-2.9l-0.8-2.9l-2.9,0.8l-2.9,0.8l0.4,1.4l0.4,1.4
			l-1.4,0.4l-1.4,0.4l-0.4-1.4l-0.4-1.4l-1.4,0.4l-1.4,0.4l-0.4-1.4l-0.4-1.4l-1.4,0.4l-1.4,0.4l0.4,1.4l0.4,1.4l-4.3,1.2l-4.3,1.2
			l0.8,2.9l0.8,2.9l-1.4,0.4l-1.4,0.4l0.8,2.9l0.8,2.9l1.4-0.4l1.4-0.4l0.4,1.4l0.4,1.4l1.4-0.4l1.4-0.4l0.4,1.4l0.4,1.4l8.6-2.4
			l8.6-2.4L435.5,400.5z M419.5,398.8l-0.4-1.4l1.4-0.4l1.4-0.4l0.4,1.4l0.4,1.4l-1.4,0.4l-1.4,0.4L419.5,398.8z M428.1,396.4
			l-0.4-1.4l1.4-0.4l1.4-0.4l0.4,1.4l0.4,1.4l-1.4,0.4l-1.4,0.4L428.1,396.4z"/>
		<path id="path3935" class="st56" d="M427.6,427.6l-0.4-1.4l-1.4,0.4l-1.4,0.4l-0.8-2.9l-0.8-2.9l-2.9,0.8l-2.9,0.8l-0.4-1.4
			l-0.4-1.4l-1.4,0.4l-1.4,0.4l-0.4-1.4l-0.4-1.4l1.4-0.4l1.4-0.4l-0.4-1.4l-0.4-1.4l1.4-0.4l1.4-0.4l-0.4-1.4l-0.4-1.4l1.4-0.4
			l1.4-0.4l-0.4-1.4l-0.4-1.4l-1.4,0.4l-1.4,0.4l-0.4-1.4l-0.4-1.4l-1.4,0.4l-1.4,0.4l-0.4-1.4l-0.4-1.4l-1.4,0.4l-1.4,0.4l-1.6-5.7
			l-1.6-5.7l1.4-0.4l1.4-0.4l-0.4-1.4l-0.4-1.4l1.4-0.4l1.4-0.4l-0.4-1.4l-0.4-1.4l2.9-0.8l2.9-0.8l-0.4-1.4l-0.4-1.4l7.2-2l7.2-2
			l0.4,1.4l0.4,1.4l1.4-0.4l1.4-0.4l0.4,1.4l0.4,1.4l1.4-0.4l1.4-0.4l0.4,1.4l0.4,1.4l1.4-0.4l1.4-0.4l1.6,5.7l1.6,5.7l-1.4,0.4
			l-1.4,0.4l0.4,1.4l0.4,1.4l-1.4,0.4l-1.4,0.4l0.4,1.4l0.4,1.4l-1.4,0.4l-1.4,0.4l0.4,1.4l0.4,1.4l1.4-0.4l1.4-0.4l0.4,1.4l0.4,1.4
			l1.4-0.4l1.4-0.4l0.4,1.4l0.4,1.4l1.4-0.4l1.4-0.4l0.4,1.4l0.4,1.4l-1.4,0.4l-1.4,0.4l0.4,1.4l0.4,1.4l-2.9,0.8l-2.9,0.8l0.8,2.9
			l0.8,2.9l-1.4,0.4l-1.4,0.4l0.4,1.4l0.4,1.4l-5.7,1.6L428,429L427.6,427.6z M421.5,416.9l-0.4-1.4l-2.9,0.8l-2.9,0.8l0.4,1.4
			l0.4,1.4l2.9-0.8l2.9-0.8L421.5,416.9z M444.5,410.4l-0.4-1.4l-2.9,0.8l-2.9,0.8l0.4,1.4l0.4,1.4l2.9-0.8l2.9-0.8L444.5,410.4z
			 M434.2,407.1l-0.4-1.4l-5.7,1.6l-5.7,1.6l0.4,1.4l0.4,1.4l5.7-1.6l5.7-1.6L434.2,407.1z M435.5,400.5l-0.4-1.4l1.4-0.4l1.4-0.4
			l-0.4-1.4l-0.4-1.4l1.4-0.4l1.4-0.4l-1.6-5.7l-1.6-5.7l-2.9,0.8l-2.9,0.8l-0.4-1.4l-0.4-1.4l-1.4,0.4l-1.4,0.4l-0.4-1.4l-0.4-1.4
			l-4.3,1.2l-4.3,1.2l0.4,1.4l0.4,1.4l-2.9,0.8l-2.9,0.8l0.4,1.4l0.4,1.4l-1.4,0.4l-1.4,0.4l0.4,1.4l0.4,1.4l-1.4,0.4l-1.4,0.4
			l1.2,4.3l1.2,4.3l1.4-0.4l1.4-0.4l0.4,1.4l0.4,1.4l1.4-0.4l1.4-0.4l0.4,1.4l0.4,1.4l8.6-2.4l8.6-2.4L435.5,400.5z M419.5,398.8
			l-0.4-1.4l1.4-0.4l1.4-0.4l0.4,1.4l0.4,1.4l-1.4,0.4l-1.4,0.4L419.5,398.8z M428.1,396.4l-0.4-1.4l1.4-0.4l1.4-0.4l0.4,1.4
			l0.4,1.4l-1.4,0.4l-1.4,0.4L428.1,396.4z"/>
		<path id="path3933" class="st57" d="M427.6,427.6l-0.4-1.4l-1.4,0.4l-1.4,0.4l-0.8-2.9l-0.8-2.9l-2.9,0.8l-2.9,0.8l-0.4-1.4
			l-0.4-1.4l-1.4,0.4l-1.4,0.4l-0.4-1.4l-0.4-1.4l1.4-0.4l1.4-0.4l-0.4-1.4l-0.4-1.4l1.4-0.4l1.4-0.4l-0.4-1.4l-0.4-1.4l1.4-0.4
			l1.4-0.4l-0.4-1.4l-0.4-1.4l-1.4,0.4l-1.4,0.4l-0.4-1.4l-0.4-1.4l-1.4,0.4l-1.4,0.4l-0.4-1.4l-0.4-1.4l-1.4,0.4l-1.4,0.4l-1.6-5.7
			l-1.6-5.7l1.4-0.4l1.4-0.4l-0.4-1.4l-0.4-1.4l1.4-0.4l1.4-0.4l-0.4-1.4l-0.4-1.4l2.9-0.8l2.9-0.8l-0.4-1.4l-0.4-1.4l7.2-2l7.2-2
			l0.4,1.4l0.4,1.4l1.4-0.4l1.4-0.4l0.4,1.4l0.4,1.4l1.4-0.4l1.4-0.4l0.4,1.4l0.4,1.4l1.4-0.4l1.4-0.4l1.6,5.7l1.6,5.7l-1.4,0.4
			l-1.4,0.4l0.4,1.4l0.4,1.4l-1.4,0.4l-1.4,0.4l0.4,1.4l0.4,1.4l-1.4,0.4l-1.4,0.4l0.4,1.4l0.4,1.4l1.4-0.4l1.4-0.4l0.4,1.4l0.4,1.4
			l1.4-0.4l1.4-0.4l0.4,1.4l0.4,1.4l1.4-0.4l1.4-0.4l0.4,1.4l0.4,1.4l-1.4,0.4l-1.4,0.4l0.4,1.4l0.4,1.4l-2.9,0.8l-2.9,0.8l0.8,2.9
			l0.8,2.9l-1.4,0.4l-1.4,0.4l0.4,1.4l0.4,1.4l-5.7,1.6L428,429L427.6,427.6z M421.5,416.9l-0.4-1.4l2.9-0.8l2.9-0.8l0.4,1.4
			l0.4,1.4l2.9-0.8l2.9-0.8l-0.4-1.4l-0.4-1.4l2.9-0.8l2.9-0.8l0.4,1.4l0.4,1.4l2.9-0.8l2.9-0.8l-0.4-1.4l-0.4-1.4l-2.9,0.8
			l-2.9,0.8l-0.4-1.4l-0.4-1.4l-1.4,0.4l-1.4,0.4l-0.4-1.4l-0.4-1.4l-5.7,1.6l-5.7,1.6l0.4,1.4l0.4,1.4l-1.4,0.4l-1.4,0.4l0.4,1.4
			l0.4,1.4l-2.9,0.8l-2.9,0.8l0.4,1.4l0.4,1.4l2.9-0.8l2.9-0.8L421.5,416.9z M435.5,400.5l-0.4-1.4l1.4-0.4l1.4-0.4l-0.4-1.4
			l-0.4-1.4l1.4-0.4l1.4-0.4l-1.6-5.7l-1.6-5.7l-2.9,0.8l-2.9,0.8l-0.4-1.4l-0.4-1.4l-1.4,0.4l-1.4,0.4l-0.4-1.4l-0.4-1.4l-4.3,1.2
			l-4.3,1.2l0.4,1.4l0.4,1.4l-2.9,0.8l-2.9,0.8l0.4,1.4l0.4,1.4l-1.4,0.4l-1.4,0.4l0.4,1.4l0.4,1.4l-1.4,0.4l-1.4,0.4l1.2,4.3
			l1.2,4.3l1.4-0.4l1.4-0.4l0.4,1.4l0.4,1.4l1.4-0.4l1.4-0.4l0.4,1.4l0.4,1.4l8.6-2.4l8.6-2.4L435.5,400.5z M419.5,398.8l-0.4-1.4
			l1.4-0.4l1.4-0.4l0.4,1.4l0.4,1.4l-1.4,0.4l-1.4,0.4L419.5,398.8z M428.1,396.4l-0.4-1.4l1.4-0.4l1.4-0.4l0.4,1.4l0.4,1.4
			l-1.4,0.4l-1.4,0.4L428.1,396.4z"/>
		<path id="path3931" class="st58" d="M427.6,427.6l-0.4-1.4l-1.4,0.4l-1.4,0.4l-0.8-2.9l-0.8-2.9l-2.9,0.8l-2.9,0.8l-0.4-1.4
			l-0.4-1.4l-1.4,0.4l-1.4,0.4l-0.4-1.4l-0.4-1.4l1.4-0.4l1.4-0.4l-0.4-1.4l-0.4-1.4l1.4-0.4l1.4-0.4l-0.4-1.4l-0.4-1.4l1.4-0.4
			l1.4-0.4l-0.4-1.4l-0.4-1.4l-1.4,0.4l-1.4,0.4l-0.4-1.4l-0.4-1.4l-1.4,0.4l-1.4,0.4l-0.4-1.4l-0.4-1.4l-1.4,0.4l-1.4,0.4l-1.6-5.7
			l-1.6-5.7l1.4-0.4l1.4-0.4l-0.4-1.4l-0.4-1.4l1.4-0.4l1.4-0.4l-0.4-1.4l-0.4-1.4l2.9-0.8l2.9-0.8l-0.4-1.4l-0.4-1.4l7.2-2l7.2-2
			l0.4,1.4l0.4,1.4l1.4-0.4l1.4-0.4l0.4,1.4l0.4,1.4l1.4-0.4l1.4-0.4l0.4,1.4l0.4,1.4l1.4-0.4l1.4-0.4l1.6,5.7l1.6,5.7l-1.4,0.4
			l-1.4,0.4l0.4,1.4l0.4,1.4l-1.4,0.4l-1.4,0.4l0.4,1.4l0.4,1.4l-1.4,0.4l-1.4,0.4l0.4,1.4l0.4,1.4l1.4-0.4l1.4-0.4l0.4,1.4l0.4,1.4
			l1.4-0.4l1.4-0.4l0.4,1.4l0.4,1.4l1.4-0.4l1.4-0.4l0.4,1.4l0.4,1.4l-1.4,0.4l-1.4,0.4l0.4,1.4l0.4,1.4l-2.9,0.8l-2.9,0.8l0.8,2.9
			l0.8,2.9l-1.4,0.4l-1.4,0.4l0.4,1.4l0.4,1.4l-5.7,1.6L428,429L427.6,427.6z M421.5,416.9l-0.4-1.4l2.9-0.8l2.9-0.8l0.4,1.4
			l0.4,1.4l2.9-0.8l2.9-0.8l-0.4-1.4l-0.4-1.4l2.9-0.8l2.9-0.8l0.4,1.4l0.4,1.4l2.9-0.8l2.9-0.8l-0.4-1.4l-0.4-1.4l-2.9,0.8
			l-2.9,0.8l-0.4-1.4l-0.4-1.4l-1.4,0.4l-1.4,0.4l-0.4-1.4l-0.4-1.4l-5.7,1.6l-5.7,1.6l0.4,1.4l0.4,1.4l-1.4,0.4l-1.4,0.4l0.4,1.4
			l0.4,1.4l-2.9,0.8l-2.9,0.8l0.4,1.4l0.4,1.4l2.9-0.8l2.9-0.8L421.5,416.9z M435.5,400.5l-0.4-1.4l1.4-0.4l1.4-0.4l-0.4-1.4
			l-0.4-1.4l1.4-0.4l1.4-0.4l-1.6-5.7l-1.6-5.7l-2.9,0.8l-2.9,0.8l-0.4-1.4l-0.4-1.4l-1.4,0.4l-1.4,0.4l-0.4-1.4l-0.4-1.4l-4.3,1.2
			l-4.3,1.2l0.4,1.4l0.4,1.4l-2.9,0.8l-2.9,0.8l0.4,1.4l0.4,1.4l-1.4,0.4l-1.4,0.4l0.4,1.4l0.4,1.4l-1.4,0.4l-1.4,0.4l1.2,4.3
			l1.2,4.3l1.4-0.4l1.4-0.4l0.4,1.4l0.4,1.4l1.4-0.4l1.4-0.4l0.4,1.4l0.4,1.4l8.6-2.4l8.6-2.4L435.5,400.5z"/>
		<path id="path3929" class="st59" d="M427.6,427.6l-0.4-1.4l-1.4,0.4l-1.4,0.4l-0.8-2.9l-0.8-2.9l-2.9,0.8l-2.9,0.8l-0.4-1.4
			l-0.4-1.4l-1.4,0.4l-1.4,0.4l-0.4-1.4l-0.4-1.4l1.4-0.4l1.4-0.4l-0.4-1.4l-0.4-1.4l1.4-0.4l1.4-0.4l-0.4-1.4l-0.4-1.4l1.4-0.4
			l1.4-0.4l-0.4-1.4l-0.4-1.4l-1.4,0.4l-1.4,0.4l-0.4-1.4l-0.4-1.4l-1.4,0.4l-1.4,0.4l-0.4-1.4l-0.4-1.4l-1.4,0.4l-1.4,0.4l-1.6-5.7
			l-1.6-5.7l1.4-0.4l1.4-0.4l-0.4-1.4l-0.4-1.4l1.4-0.4l1.4-0.4l-0.4-1.4l-0.4-1.4l2.9-0.8l2.9-0.8l-0.4-1.4l-0.4-1.4l7.2-2l7.2-2
			l0.4,1.4l0.4,1.4l1.4-0.4l1.4-0.4l0.4,1.4l0.4,1.4l1.4-0.4l1.4-0.4l0.4,1.4l0.4,1.4l1.4-0.4l1.4-0.4l1.6,5.7l1.6,5.7l-1.4,0.4
			l-1.4,0.4l0.4,1.4l0.4,1.4l-1.4,0.4l-1.4,0.4l0.4,1.4l0.4,1.4l-1.4,0.4l-1.4,0.4l0.4,1.4l0.4,1.4l1.4-0.4l1.4-0.4l0.4,1.4l0.4,1.4
			l1.4-0.4l1.4-0.4l0.4,1.4l0.4,1.4l1.4-0.4l1.4-0.4l0.4,1.4l0.4,1.4l-1.4,0.4l-1.4,0.4l0.4,1.4l0.4,1.4l-2.9,0.8l-2.9,0.8l0.8,2.9
			l0.8,2.9l-1.4,0.4l-1.4,0.4l0.4,1.4l0.4,1.4l-5.7,1.6L428,429L427.6,427.6z M437.5,418.6l-0.4-1.4l-1.4,0.4l-1.4,0.4l-0.8-2.9
			l-0.8-2.9l2.9-0.8l2.9-0.8l0.4,1.4l0.4,1.4l2.9-0.8l2.9-0.8l-0.4-1.4l-0.4-1.4l-2.9,0.8l-2.9,0.8l-0.4-1.4l-0.4-1.4l-1.4,0.4
			l-1.4,0.4l-0.4-1.4l-0.4-1.4l-5.7,1.6l-5.7,1.6l0.4,1.4l0.4,1.4l-1.4,0.4l-1.4,0.4l0.4,1.4l0.4,1.4l-2.9,0.8l-2.9,0.8l0.4,1.4
			l0.4,1.4l2.9-0.8l2.9-0.8l-0.4-1.4l-0.4-1.4l2.9-0.8l2.9-0.8l0.8,2.9l0.8,2.9L427,420l-1.4,0.4l0.4,1.4l0.4,1.4l5.7-1.6l5.7-1.6
			L437.5,418.6z M435.5,400.5l-0.4-1.4l1.4-0.4l1.4-0.4l-0.4-1.4l-0.4-1.4l1.4-0.4l1.4-0.4l-1.6-5.7l-1.6-5.7l-2.9,0.8l-2.9,0.8
			l-0.4-1.4l-0.4-1.4l-1.4,0.4l-1.4,0.4l-0.4-1.4l-0.4-1.4l-4.3,1.2l-4.3,1.2l0.4,1.4l0.4,1.4l-2.9,0.8l-2.9,0.8l0.4,1.4l0.4,1.4
			l-1.4,0.4l-1.4,0.4l0.4,1.4l0.4,1.4l-1.4,0.4l-1.4,0.4l1.2,4.3l1.2,4.3l1.4-0.4l1.4-0.4l0.4,1.4l0.4,1.4l1.4-0.4l1.4-0.4l0.4,1.4
			l0.4,1.4l8.6-2.4l8.6-2.4L435.5,400.5z"/>
		<path id="path3927" class="st60" d="M427.6,427.6l-0.4-1.4l-1.4,0.4l-1.4,0.4l-0.8-2.9l-0.8-2.9l-2.9,0.8l-2.9,0.8l-0.4-1.4
			l-0.4-1.4l-1.4,0.4l-1.4,0.4l-0.4-1.4l-0.4-1.4l1.4-0.4l1.4-0.4l-0.4-1.4l-0.4-1.4l1.4-0.4l1.4-0.4l-0.4-1.4l-0.4-1.4l1.4-0.4
			l1.4-0.4l-0.4-1.4l-0.4-1.4l-1.4,0.4l-1.4,0.4l-0.4-1.4l-0.4-1.4l-1.4,0.4l-1.4,0.4l-0.4-1.4l-0.4-1.4l-1.4,0.4l-1.4,0.4l-1.6-5.7
			l-1.6-5.7l1.4-0.4l1.4-0.4l-0.4-1.4l-0.4-1.4l1.4-0.4l1.4-0.4l-0.4-1.4l-0.4-1.4l2.9-0.8l2.9-0.8l-0.4-1.4l-0.4-1.4l7.2-2l7.2-2
			l0.4,1.4l0.4,1.4l1.4-0.4l1.4-0.4l0.4,1.4l0.4,1.4l1.4-0.4l1.4-0.4l0.4,1.4l0.4,1.4l1.4-0.4l1.4-0.4l1.6,5.7l1.6,5.7l-1.4,0.4
			l-1.4,0.4l0.4,1.4l0.4,1.4l-1.4,0.4l-1.4,0.4l0.4,1.4l0.4,1.4l-1.4,0.4l-1.4,0.4l0.4,1.4l0.4,1.4l1.4-0.4l1.4-0.4l0.4,1.4l0.4,1.4
			l1.4-0.4l1.4-0.4l0.4,1.4l0.4,1.4l1.4-0.4l1.4-0.4l0.4,1.4l0.4,1.4l-1.4,0.4l-1.4,0.4l0.4,1.4l0.4,1.4l-2.9,0.8l-2.9,0.8l0.8,2.9
			l0.8,2.9l-1.4,0.4l-1.4,0.4l0.4,1.4l0.4,1.4l-5.7,1.6L428,429L427.6,427.6z M437.5,418.6l-0.4-1.4l-1.4,0.4l-1.4,0.4l-0.8-2.9
			l-0.8-2.9l2.9-0.8l2.9-0.8l0.4,1.4l0.4,1.4l2.9-0.8l2.9-0.8l-0.4-1.4l-0.4-1.4l-2.9,0.8l-2.9,0.8l-0.4-1.4l-0.4-1.4l-1.4,0.4
			l-1.4,0.4l-0.4-1.4l-0.4-1.4l-5.7,1.6l-5.7,1.6l0.4,1.4l0.4,1.4l-1.4,0.4l-1.4,0.4l0.4,1.4l0.4,1.4l-2.9,0.8l-2.9,0.8l0.4,1.4
			l0.4,1.4l2.9-0.8l2.9-0.8l-0.4-1.4l-0.4-1.4l2.9-0.8l2.9-0.8l0.8,2.9l0.8,2.9L427,420l-1.4,0.4l0.4,1.4l0.4,1.4l5.7-1.6l5.7-1.6
			L437.5,418.6z M435.5,400.5l-0.4-1.4l1.4-0.4l1.4-0.4l-0.4-1.4l-0.4-1.4l1.4-0.4l1.4-0.4l-1.6-5.7l-1.6-5.7l-1.4,0.4l-1.4,0.4
			l-0.4-1.4l-0.4-1.4l-1.4,0.4l-1.4,0.4l-0.4-1.4l-0.4-1.4l-7.2,2l-7.2,2l0.4,1.4l0.4,1.4l-2.9,0.8l-2.9,0.8l0.4,1.4l0.4,1.4
			l-1.4,0.4l-1.4,0.4l1.6,5.7l1.6,5.7l1.4-0.4l1.4-0.4l0.4,1.4l0.4,1.4l1.4-0.4l1.4-0.4l0.4,1.4l0.4,1.4l8.6-2.4l8.6-2.4
			L435.5,400.5z"/>
		<path id="path3925" class="st61" d="M427.6,427.6l-0.4-1.4l-1.4,0.4l-1.4,0.4l-0.8-2.9l-0.8-2.9l-2.9,0.8l-2.9,0.8l-0.4-1.4
			l-0.4-1.4l-1.4,0.4l-1.4,0.4l-0.4-1.4l-0.4-1.4l1.4-0.4l1.4-0.4l-0.4-1.4l-0.4-1.4l1.4-0.4l1.4-0.4l-0.4-1.4l-0.4-1.4l1.4-0.4
			l1.4-0.4l-0.4-1.4l-0.4-1.4l-1.4,0.4l-1.4,0.4l-0.4-1.4l-0.4-1.4l-1.4,0.4l-1.4,0.4l-0.4-1.4l-0.4-1.4l-1.4,0.4l-1.4,0.4l-1.6-5.7
			l-1.6-5.7l1.4-0.4l1.4-0.4l-0.4-1.4l-0.4-1.4l1.4-0.4l1.4-0.4l-0.4-1.4l-0.4-1.4l2.9-0.8l2.9-0.8l-0.4-1.4l-0.4-1.4l7.2-2l7.2-2
			l0.4,1.4l0.4,1.4l1.4-0.4l1.4-0.4l0.4,1.4l0.4,1.4l1.4-0.4l1.4-0.4l0.4,1.4l0.4,1.4l1.4-0.4l1.4-0.4l1.6,5.7l1.6,5.7l-1.4,0.4
			l-1.4,0.4l0.4,1.4l0.4,1.4l-1.4,0.4l-1.4,0.4l0.4,1.4l0.4,1.4l-1.4,0.4l-1.4,0.4l0.4,1.4l0.4,1.4l1.4-0.4l1.4-0.4l0.4,1.4l0.4,1.4
			l1.4-0.4l1.4-0.4l0.4,1.4l0.4,1.4l1.4-0.4l1.4-0.4l0.4,1.4l0.4,1.4l-1.4,0.4l-1.4,0.4l0.4,1.4l0.4,1.4l-2.9,0.8l-2.9,0.8l0.8,2.9
			l0.8,2.9l-1.4,0.4l-1.4,0.4l0.4,1.4l0.4,1.4l-5.7,1.6L428,429L427.6,427.6z M437.5,418.6l-0.4-1.4l-1.4,0.4l-1.4,0.4l-0.4-1.4
			l-0.4-1.4l1.4-0.4l1.4-0.4l-0.4-1.4l-0.4-1.4l1.4-0.4l1.4-0.4l0.4,1.4l0.4,1.4l2.9-0.8l2.9-0.8l-0.4-1.4l-0.4-1.4l-1.4,0.4
			l-1.4,0.4l-0.4-1.4l-0.4-1.4l-2.9,0.8l-2.9,0.8l-0.4-1.4l-0.4-1.4l-5.7,1.6l-5.7,1.6l0.4,1.4l0.4,1.4l-2.9,0.8l-2.9,0.8l0.4,1.4
			l0.4,1.4l-1.4,0.4l-1.4,0.4l0.4,1.4l0.4,1.4l2.9-0.8l2.9-0.8l-0.4-1.4l-0.4-1.4l1.4-0.4l1.4-0.4l0.4,1.4l0.4,1.4l1.4-0.4l1.4-0.4
			l0.4,1.4l0.4,1.4L427,420l-1.4,0.4l0.4,1.4l0.4,1.4l5.7-1.6l5.7-1.6L437.5,418.6z M435.5,400.5l-0.4-1.4l1.4-0.4l1.4-0.4l-0.4-1.4
			l-0.4-1.4l1.4-0.4l1.4-0.4l-1.6-5.7l-1.6-5.7l-1.4,0.4l-1.4,0.4l-0.4-1.4l-0.4-1.4l-1.4,0.4l-1.4,0.4l-0.4-1.4l-0.4-1.4l-7.2,2
			l-7.2,2l0.4,1.4l0.4,1.4l-2.9,0.8l-2.9,0.8l0.4,1.4l0.4,1.4l-1.4,0.4l-1.4,0.4l1.6,5.7l1.6,5.7l1.4-0.4l1.4-0.4l0.4,1.4l0.4,1.4
			l1.4-0.4l1.4-0.4l0.4,1.4l0.4,1.4l8.6-2.4l8.6-2.4L435.5,400.5z"/>
		<path id="path3923" class="st62" d="M427.6,427.6l-0.4-1.4l-1.4,0.4l-1.4,0.4l-0.8-2.9l-0.8-2.9l-2.9,0.8l-2.9,0.8l-0.4-1.4
			l-0.4-1.4l-1.4,0.4l-1.4,0.4l-0.4-1.4l-0.4-1.4l1.4-0.4l1.4-0.4l-0.4-1.4l-0.4-1.4l1.4-0.4l1.4-0.4l-0.4-1.4l-0.4-1.4l1.4-0.4
			l1.4-0.4l-0.4-1.4l-0.4-1.4l-1.4,0.4l-1.4,0.4l-0.4-1.4l-0.4-1.4l-1.4,0.4l-1.4,0.4l-0.4-1.4l-0.4-1.4l-1.4,0.4l-1.4,0.4l-1.6-5.7
			l-1.6-5.7l1.4-0.4l1.4-0.4l-0.4-1.4l-0.4-1.4l1.4-0.4l1.4-0.4l-0.4-1.4l-0.4-1.4l2.9-0.8l2.9-0.8l-0.4-1.4l-0.4-1.4l7.2-2l7.2-2
			l0.4,1.4l0.4,1.4l1.4-0.4l1.4-0.4l0.4,1.4l0.4,1.4l1.4-0.4l1.4-0.4l0.4,1.4l0.4,1.4l1.4-0.4l1.4-0.4l1.6,5.7l1.6,5.7l-1.4,0.4
			l-1.4,0.4l0.4,1.4l0.4,1.4l-1.4,0.4l-1.4,0.4l0.4,1.4l0.4,1.4l-1.4,0.4l-1.4,0.4l0.4,1.4l0.4,1.4l1.4-0.4l1.4-0.4l0.4,1.4l0.4,1.4
			l1.4-0.4l1.4-0.4l0.4,1.4l0.4,1.4l1.4-0.4l1.4-0.4l0.4,1.4l0.4,1.4l-1.4,0.4l-1.4,0.4l0.4,1.4l0.4,1.4l-2.9,0.8l-2.9,0.8l0.8,2.9
			l0.8,2.9l-1.4,0.4l-1.4,0.4l0.4,1.4l0.4,1.4l-5.7,1.6L428,429L427.6,427.6z M429.7,423.9l-0.4-1.4l2.9-0.8l2.9-0.8l0.4,1.4
			l0.4,1.4l1.4-0.4l1.4-0.4l-0.8-2.9l-0.8-2.9l-1.4,0.4l-1.4,0.4l-0.4-1.4l-0.4-1.4l1.4-0.4l1.4-0.4l-0.4-1.4l-0.4-1.4l1.4-0.4
			l1.4-0.4l0.4,1.4l0.4,1.4l2.9-0.8l2.9-0.8l-0.4-1.4l-0.4-1.4l-1.4,0.4l-1.4,0.4l-0.4-1.4l-0.4-1.4l-2.9,0.8l-2.9,0.8l-0.4-1.4
			l-0.4-1.4l-5.7,1.6l-5.7,1.6l0.4,1.4l0.4,1.4l-2.9,0.8l-2.9,0.8l0.4,1.4l0.4,1.4l-1.4,0.4l-1.4,0.4l0.4,1.4l0.4,1.4l2.9-0.8
			l2.9-0.8l-0.4-1.4l-0.4-1.4l1.4-0.4l1.4-0.4l0.4,1.4l0.4,1.4l1.4-0.4l1.4-0.4l0.4,1.4l0.4,1.4L427,420l-1.4,0.4l0.8,2.9l0.8,2.9
			l1.4-0.4l1.4-0.4L429.7,423.9z M435.5,400.5l-0.4-1.4l1.4-0.4l1.4-0.4l-0.4-1.4l-0.4-1.4l1.4-0.4l1.4-0.4l-1.6-5.7l-1.6-5.7
			l-1.4,0.4l-1.4,0.4l-0.4-1.4l-0.4-1.4l-1.4,0.4l-1.4,0.4l-0.4-1.4l-0.4-1.4l-7.2,2l-7.2,2l0.4,1.4l0.4,1.4l-2.9,0.8l-2.9,0.8
			l0.4,1.4l0.4,1.4l-1.4,0.4l-1.4,0.4l1.6,5.7l1.6,5.7l1.4-0.4l1.4-0.4l0.4,1.4l0.4,1.4l1.4-0.4l1.4-0.4l0.4,1.4l0.4,1.4l8.6-2.4
			l8.6-2.4L435.5,400.5z"/>
		<path id="path3921" class="st63" d="M427.6,427.6l-0.4-1.4l-1.4,0.4l-1.4,0.4l-0.8-2.9l-0.8-2.9l-2.9,0.8l-2.9,0.8l-0.4-1.4
			l-0.4-1.4l-1.4,0.4l-1.4,0.4l-0.4-1.4l-0.4-1.4l1.4-0.4l1.4-0.4l-0.4-1.4l-0.4-1.4l1.4-0.4l1.4-0.4l-0.4-1.4l-0.4-1.4l1.4-0.4
			l1.4-0.4l-0.4-1.4l-0.4-1.4l-1.4,0.4l-1.4,0.4l-0.4-1.4l-0.4-1.4l-1.4,0.4l-1.4,0.4l-0.4-1.4l-0.4-1.4l-1.4,0.4l-1.4,0.4l-1.6-5.7
			l-1.6-5.7l1.4-0.4l1.4-0.4l-0.4-1.4l-0.4-1.4l1.4-0.4l1.4-0.4l-0.4-1.4l-0.4-1.4l2.9-0.8l2.9-0.8l-0.4-1.4l-0.4-1.4l7.2-2l7.2-2
			l0.4,1.4l0.4,1.4l1.4-0.4l1.4-0.4l0.4,1.4l0.4,1.4l1.4-0.4l1.4-0.4l0.4,1.4l0.4,1.4l1.4-0.4l1.4-0.4l1.6,5.7l1.6,5.7l-1.4,0.4
			l-1.4,0.4l0.4,1.4l0.4,1.4l-1.4,0.4l-1.4,0.4l0.4,1.4l0.4,1.4l-1.4,0.4l-1.4,0.4l0.4,1.4l0.4,1.4l1.4-0.4l1.4-0.4l0.4,1.4l0.4,1.4
			l1.4-0.4l1.4-0.4l0.4,1.4l0.4,1.4l1.4-0.4l1.4-0.4l0.4,1.4l0.4,1.4l-1.4,0.4l-1.4,0.4l0.4,1.4l0.4,1.4l-2.9,0.8l-2.9,0.8l0.8,2.9
			l0.8,2.9l-1.4,0.4l-1.4,0.4l0.4,1.4l0.4,1.4l-5.7,1.6L428,429L427.6,427.6z M429.7,423.9l-0.4-1.4l2.9-0.8l2.9-0.8l0.4,1.4
			l0.4,1.4l1.4-0.4l1.4-0.4l-1.6-5.7l-1.6-5.7l1.4-0.4l1.4-0.4l0.4,1.4l0.4,1.4l2.9-0.8l2.9-0.8l-0.4-1.4l-0.4-1.4l-1.4,0.4
			l-1.4,0.4l-0.4-1.4l-0.4-1.4l-2.9,0.8l-2.9,0.8l-0.4-1.4l-0.4-1.4l-5.7,1.6l-5.7,1.6l0.4,1.4l0.4,1.4l-2.9,0.8l-2.9,0.8l0.4,1.4
			l0.4,1.4l-1.4,0.4l-1.4,0.4l0.4,1.4l0.4,1.4l2.9-0.8l2.9-0.8l-0.4-1.4l-0.4-1.4l1.4-0.4l1.4-0.4l1.6,5.7l1.6,5.7l1.4-0.4l1.4-0.4
			L429.7,423.9z M435.5,400.5l-0.4-1.4l1.4-0.4l1.4-0.4l-0.4-1.4l-0.4-1.4l1.4-0.4l1.4-0.4l-1.6-5.7l-1.6-5.7l-1.4,0.4l-1.4,0.4
			l-0.4-1.4l-0.4-1.4l-1.4,0.4l-1.4,0.4l-0.4-1.4l-0.4-1.4l-7.2,2l-7.2,2l0.4,1.4l0.4,1.4l-2.9,0.8l-2.9,0.8l0.4,1.4l0.4,1.4
			l-1.4,0.4l-1.4,0.4l1.6,5.7l1.6,5.7l1.4-0.4l1.4-0.4l0.4,1.4l0.4,1.4l1.4-0.4l1.4-0.4l0.4,1.4l0.4,1.4l8.6-2.4l8.6-2.4
			L435.5,400.5z"/>
		<path id="path3919" d="M427.6,427.6l-0.4-1.4l-1.4,0.4l-1.4,0.4l-0.8-2.9l-0.8-2.9l-2.9,0.8l-2.9,0.8l-0.4-1.4l-0.4-1.4l-1.4,0.4
			l-1.4,0.4l-0.4-1.4l-0.4-1.4l1.4-0.4l1.4-0.4l-0.4-1.4l-0.4-1.4l1.4-0.4l1.4-0.4l-0.4-1.4l-0.4-1.4l1.4-0.4l1.4-0.4l-0.4-1.4
			l-0.4-1.4l-1.4,0.4l-1.4,0.4l-0.4-1.4l-0.4-1.4l-1.4,0.4l-1.4,0.4l-0.4-1.4l-0.4-1.4l-1.4,0.4l-1.4,0.4l-1.6-5.7l-1.6-5.7l1.4-0.4
			l1.4-0.4l-0.4-1.4l-0.4-1.4l1.4-0.4l1.4-0.4l-0.4-1.4l-0.4-1.4l2.9-0.8l2.9-0.8l-0.4-1.4l-0.4-1.4l7.2-2l7.2-2l0.4,1.4l0.4,1.4
			l1.4-0.4l1.4-0.4l0.4,1.4l0.4,1.4l1.4-0.4l1.4-0.4l0.4,1.4l0.4,1.4l1.4-0.4l1.4-0.4l1.6,5.7l1.6,5.7l-1.4,0.4l-1.4,0.4l0.4,1.4
			l0.4,1.4l-1.4,0.4l-1.4,0.4l0.4,1.4l0.4,1.4l-1.4,0.4l-1.4,0.4l0.4,1.4l0.4,1.4l1.4-0.4l1.4-0.4l0.4,1.4l0.4,1.4l1.4-0.4l1.4-0.4
			l0.4,1.4l0.4,1.4l1.4-0.4l1.4-0.4l0.4,1.4l0.4,1.4l-1.4,0.4l-1.4,0.4l0.4,1.4l0.4,1.4l-2.9,0.8l-2.9,0.8l0.8,2.9l0.8,2.9l-1.4,0.4
			l-1.4,0.4l0.4,1.4l0.4,1.4l-5.7,1.6L428,429L427.6,427.6z M437.1,417.1l-1.6-5.7l1.4-0.4l1.4-0.4l0.4,1.4l0.4,1.4l2.9-0.8l2.9-0.8
			l-0.4-1.4l-0.4-1.4l-1.4,0.4l-1.4,0.4l-0.4-1.4l-0.4-1.4l-2.9,0.8l-2.9,0.8l-0.4-1.4l-0.4-1.4l-5.7,1.6l-5.7,1.6l0.4,1.4l0.4,1.4
			l-2.9,0.8l-2.9,0.8l0.4,1.4l0.4,1.4l-1.4,0.4l-1.4,0.4l0.4,1.4l0.4,1.4l2.9-0.8l2.9-0.8l-0.4-1.4l-0.4-1.4l1.4-0.4l1.4-0.4
			l1.6,5.7l1.6,5.7l5.7-1.6l5.7-1.6L437.1,417.1z M435.5,400.5l-0.4-1.4l1.4-0.4l1.4-0.4l-0.4-1.4l-0.4-1.4l1.4-0.4l1.4-0.4
			l-1.6-5.7l-1.6-5.7l-1.4,0.4l-1.4,0.4l-0.4-1.4l-0.4-1.4l-1.4,0.4l-1.4,0.4l-0.4-1.4l-0.4-1.4l-7.2,2l-7.2,2l0.4,1.4l0.4,1.4
			l-2.9,0.8l-2.9,0.8l0.4,1.4l0.4,1.4l-1.4,0.4l-1.4,0.4l1.6,5.7l1.6,5.7l1.4-0.4l1.4-0.4l0.4,1.4l0.4,1.4l1.4-0.4l1.4-0.4l0.4,1.4
			l0.4,1.4l8.6-2.4l8.6-2.4L435.5,400.5z"/>
	</g>
</g>
<g id="Layer_2">
	<path class="st64" d="M339.8,216.3c5,5.9,10.1,11.7,15.2,17.5c24.4,28,48.8,56,73.2,84"/>
	<path class="st64" d="M444,241.9c-6.9,3.5-13.8,7-20.7,10.5c-33.1,16.9-66.2,33.8-99.3,50.6"/>
	<g>
		<path id="path3" class="st65" d="M83.5,323.5c0,0-0.1-0.1-0.1-0.1c0,0-0.1-0.1-0.1-0.1c0,0-0.1,0-0.1-0.1l-22.6-5.1
			c0,0-0.1,0-0.1,0c0,0-0.1,0-0.1-0.1c0,0-0.1-0.1-0.1-0.1c0,0-0.1-0.1-0.1-0.1c-0.1-0.1-0.1-0.1-0.2-0.2c-0.1-0.1-0.1-0.2-0.2-0.3
			c-0.1-0.1-0.2-0.2-0.2-0.3c-0.1-0.1-0.2-0.3-0.2-0.4c-0.1-0.1-0.1-0.3-0.2-0.4c-0.1-0.2-0.1-0.3-0.2-0.5c-0.1-0.2-0.1-0.3-0.2-0.5
			c-0.1-0.2-0.1-0.3-0.2-0.5c-0.1-0.2-0.1-0.5-0.2-0.7c0-0.2-0.1-0.4-0.1-0.6c0-0.2,0-0.4,0-0.5c0-0.2,0-0.3,0-0.5
			c0-0.1,0-0.1,0-0.2c0-0.1,0-0.1,0.1-0.2c0,0,0-0.1,0.1-0.1c0,0,0-0.1,0.1-0.1c0,0,0,0,0,0c0,0,0,0,0,0c0,0,0,0,0,0s0,0,0,0
			c-8.3,6.4-16.7,12.8-25,19.2c0,0,0,0,0,0c0,0,0,0,0,0c0,0,0,0,0,0c0,0,0,0,0,0c0,0,0,0.1-0.1,0.1c0,0,0,0.1,0,0.1c0,0,0,0.1,0,0.2
			c0,0.1,0,0.1,0,0.2c0,0.1,0,0.3,0,0.5c0,0.2,0,0.4,0.1,0.6c0,0.2,0.1,0.4,0.2,0.6c0.1,0.2,0.1,0.5,0.2,0.7
			c0.1,0.2,0.1,0.4,0.2,0.5s0.2,0.4,0.2,0.5c0.1,0.2,0.2,0.3,0.3,0.5c0.1,0.2,0.2,0.3,0.3,0.5c0.1,0.1,0.2,0.3,0.3,0.4
			c0.1,0.1,0.2,0.3,0.3,0.4c0.1,0.1,0.2,0.2,0.3,0.3c0.1,0.1,0.2,0.2,0.2,0.3c0,0,0.1,0.1,0.1,0.1c0,0,0.1,0.1,0.1,0.1
			c0,0,0.1,0.1,0.1,0.1s0.1,0,0.1,0l22.6,8.2c0.1,0,0.1,0,0.1,0.1c0,0,0.1,0.1,0.1,0.1s0.1,0.1,0.1,0.1c0,0.1,0.1,0.1,0.1,0.2
			c0,0,0,0.1,0,0.1c0,0,0,0,0,0.1c0,0,0,0,0,0.1c0,0,0,0,0,0c8-7.6,16-15.1,24.1-22.7c0,0,0,0,0,0c0,0,0,0,0-0.1c0,0,0,0,0-0.1
			c0,0,0,0,0-0.1C83.5,323.6,83.5,323.5,83.5,323.5L83.5,323.5z"/>
		<g id="g5">
			<g id="g7">
				<g id="g9">
					<g id="g11">
						<path id="path13" class="st66" d="M56.8,341.1c0.1,0.3,0.2,0.6,0.3,0.9c0.1,0.3,0.2,0.6,0.4,0.8c0.1,0.3,0.3,0.5,0.4,0.8
							c0.1,0.3,0.3,0.5,0.4,0.7c0,0.1,0.1,0.1,0.1,0.2c0,0.1,0.1,0.1,0.1,0.2c0,0.1,0.1,0.1,0.1,0.2c0,0.1,0.1,0.1,0.1,0.2
							l-22.1-7.9c0,0-0.1,0-0.1,0c0,0-0.1,0-0.1-0.1c0,0-0.1-0.1-0.1-0.1c0,0-0.1-0.1-0.1-0.1c-0.1-0.1-0.2-0.2-0.2-0.3
							c-0.1-0.1-0.2-0.2-0.3-0.3c-0.1-0.1-0.2-0.2-0.3-0.4c-0.1-0.1-0.2-0.3-0.3-0.4c-0.1-0.2-0.2-0.3-0.3-0.5
							c-0.1-0.2-0.2-0.3-0.3-0.5c-0.1-0.2-0.2-0.3-0.2-0.5c-0.1-0.2-0.1-0.4-0.2-0.5c-0.1-0.2-0.2-0.5-0.2-0.7
							c-0.1-0.2-0.1-0.4-0.2-0.6c0-0.2-0.1-0.4-0.1-0.6c0-0.2,0-0.3,0-0.5c0-0.1,0-0.1,0-0.2c0-0.1,0-0.1,0-0.2c0,0,0-0.1,0-0.1
							c0,0,0-0.1,0.1-0.1c0,0,0,0,0.1-0.1c0,0,0.1,0,0.1,0c0,0,0.1,0,0.1,0c0,0,0.1,0,0.1,0l22.4,7.3c0,0.1-0.1,0.1-0.1,0.2
							c0,0.1-0.1,0.2-0.1,0.3c0,0.1,0,0.2,0,0.3c0,0.1,0,0.2,0,0.3c0,0.2,0,0.3,0,0.5c0,0.2,0,0.4,0.1,0.6c0,0.2,0.1,0.4,0.1,0.6
							C56.7,340.7,56.8,340.9,56.8,341.1L56.8,341.1z"/>
					</g>
				</g>
			</g>
		</g>
		<g id="g15">
			<g id="g17">
				<g id="g19">
					<g id="g21">
						<path id="path23" class="st49" d="M56.8,341.1c0.1,0.3,0.2,0.6,0.3,0.9c0.1,0.3,0.2,0.6,0.4,0.8c0.1,0.3,0.3,0.5,0.4,0.8
							c0.1,0.3,0.3,0.5,0.4,0.7c0,0.1,0.1,0.1,0.1,0.2c0,0.1,0.1,0.1,0.1,0.2c0,0.1,0.1,0.1,0.1,0.2c0,0.1,0.1,0.1,0.1,0.2
							l-22.1-7.9c0,0-0.1,0-0.1,0c0,0-0.1,0-0.1-0.1c0,0-0.1-0.1-0.1-0.1c0,0-0.1-0.1-0.1-0.1c-0.1-0.1-0.2-0.2-0.2-0.3
							c-0.1-0.1-0.2-0.2-0.3-0.3c-0.1-0.1-0.2-0.2-0.3-0.4c-0.1-0.1-0.2-0.3-0.3-0.4c-0.1-0.2-0.2-0.3-0.3-0.5
							c-0.1-0.2-0.2-0.3-0.3-0.5c-0.1-0.2-0.2-0.3-0.2-0.5c-0.1-0.2-0.1-0.4-0.2-0.5c-0.1-0.2-0.2-0.5-0.2-0.7
							c-0.1-0.2-0.1-0.4-0.2-0.6c0-0.2-0.1-0.4-0.1-0.6c0-0.2,0-0.3,0-0.5c0-0.1,0-0.1,0-0.2c0-0.1,0-0.1,0-0.2c0,0,0-0.1,0-0.1
							c0,0,0-0.1,0.1-0.1c0,0,0,0,0.1-0.1c0,0,0.1,0,0.1,0c0,0,0.1,0,0.1,0c0,0,0.1,0,0.1,0l22.4,7.3c0,0.1-0.1,0.1-0.1,0.2
							c0,0.1-0.1,0.2-0.1,0.3c0,0.1,0,0.2,0,0.3c0,0.1,0,0.2,0,0.3c0,0.2,0,0.3,0,0.5c0,0.2,0,0.4,0.1,0.6c0,0.2,0.1,0.4,0.1,0.6
							C56.7,340.7,56.8,340.9,56.8,341.1L56.8,341.1z"/>
					</g>
					<path id="path25" class="st66" d="M58.2,312C58.2,312,58.2,312,58.2,312c-0.1,0-0.1,0-0.2,0c0,0-0.1,0-0.1,0c0,0,0,0-0.1,0
						c-8,6.1-15.9,12.2-23.9,18.3c0,0,0,0,0.1,0c0,0,0,0,0.1,0c0,0,0,0,0.1,0c0,0,0.1,0,0.1,0l22.4,7.3l23.9-21.2L58.2,312L58.2,312
						z"/>
					<path id="path27" class="st67" d="M81.9,323.4c0-0.1-0.1-0.1-0.1-0.2c0-0.1-0.1-0.1-0.1-0.2c0-0.1-0.1-0.1-0.1-0.2
						c-0.1-0.2-0.3-0.4-0.4-0.7c-0.1-0.2-0.2-0.5-0.3-0.7c-0.1-0.3-0.2-0.5-0.3-0.8c-0.1-0.3-0.1-0.5-0.2-0.8c0-0.2-0.1-0.4-0.1-0.6
						c0-0.2,0-0.4-0.1-0.6c0-0.2,0-0.4,0-0.5c0-0.2,0-0.3,0-0.5c0-0.1,0-0.2,0.1-0.3c0-0.1,0.1-0.2,0.1-0.3c0-0.1,0.1-0.2,0.1-0.3
						c0-0.1,0.1-0.2,0.1-0.2l-23.9,21.2c0,0.1-0.1,0.1-0.1,0.2c0,0.1-0.1,0.2-0.1,0.3c0,0.1,0,0.2,0,0.3c0,0.1,0,0.2,0,0.3
						c0,0.2,0,0.3,0,0.5c0,0.2,0,0.4,0.1,0.6c0,0.2,0.1,0.4,0.1,0.6s0.1,0.4,0.2,0.6c0.1,0.3,0.2,0.6,0.3,0.9
						c0.1,0.3,0.2,0.6,0.4,0.8c0.1,0.3,0.3,0.5,0.4,0.8c0.1,0.3,0.3,0.5,0.4,0.7c0,0.1,0.1,0.1,0.1,0.2c0,0.1,0.1,0.1,0.1,0.2
						c0,0.1,0.1,0.1,0.1,0.2c0,0.1,0.1,0.1,0.1,0.2L82,323.6C82,323.5,81.9,323.5,81.9,323.4L81.9,323.4z"/>
				</g>
			</g>
		</g>
		<path id="path29" class="st65" d="M82,315.7c0,0-0.1-0.1-0.1-0.1c0,0-0.1-0.1-0.1-0.1c0,0-0.1,0-0.1-0.1l-23-4.5
			c-0.1,0-0.1,0-0.2,0c-0.1,0-0.1,0-0.2,0c0,0-0.1,0-0.1,0c0,0-0.1,0-0.1,0.1c-8.4,6.4-16.7,12.7-25.1,19.1c0,0,0.1,0,0.1-0.1
			s0.1,0,0.1,0c0,0,0.1,0,0.1,0c0.1,0,0.1,0,0.2,0l23,7.5c0.1,0,0.1,0,0.2,0.1c0,0,0.1,0.1,0.1,0.1c0,0,0.1,0.1,0.1,0.2
			c0,0.1,0.1,0.1,0.1,0.2c0,0,0,0.1,0,0.1c0,0,0,0,0,0.1c0,0,0,0,0,0.1c0,0,0,0,0,0c8.3-7.4,16.7-14.8,25-22.3c0,0,0,0,0,0
			c0,0,0,0,0-0.1c0,0,0,0,0-0.1s0-0.1,0-0.1C82,315.8,82,315.8,82,315.7L82,315.7z"/>
		<g id="g31">
			<path id="path33" class="st68" d="M33.6,330.1l23,7.5c0.1,0,0.1,0,0.2,0.1c0,0,0.1,0.1,0.1,0.1c0,0,0.1,0.1,0.1,0.2
				c0,0.1,0.1,0.1,0.1,0.2c0,0.1,0,0.1,0,0.1c0,0,0,0.1,0,0.1c0,0-0.1,0-0.1,0c0,0-0.1,0-0.1,0l-22.9-7.6c0,0-0.1,0-0.1,0
				c0,0-0.1,0-0.1,0c0,0-0.1,0-0.1,0c0,0,0,0-0.1,0.1c0,0,0,0.1-0.1,0.1c0,0,0,0.1,0,0.1c0,0,0,0.1,0,0.2c0,0.1,0,0.1,0,0.2
				c0,0.1,0,0.3,0,0.5c0,0.2,0,0.4,0.1,0.6c0,0.2,0.1,0.4,0.2,0.6c0.1,0.2,0.1,0.5,0.2,0.7c0.1,0.2,0.1,0.4,0.2,0.5
				c0.1,0.2,0.2,0.4,0.2,0.5c0.1,0.2,0.2,0.3,0.3,0.5c0.1,0.2,0.2,0.3,0.3,0.5c0.1,0.1,0.2,0.3,0.3,0.4c0.1,0.1,0.2,0.3,0.3,0.4
				c0.1,0.1,0.2,0.2,0.3,0.3c0.1,0.1,0.2,0.2,0.2,0.3c0,0,0.1,0.1,0.1,0.1s0.1,0.1,0.1,0.1c0,0,0.1,0.1,0.1,0.1c0,0,0.1,0,0.1,0
				l22.6,8.2c0,0,0.1,0,0.1,0.1c0,0,0.1,0.1,0.1,0.1s0.1,0.1,0.1,0.1c0,0.1,0.1,0.1,0.1,0.2c0,0.1,0,0.1,0,0.1s0,0.1,0,0.1
				c0,0-0.1,0-0.1,0c0,0-0.1,0-0.1,0l-22.6-8.3c-0.1,0-0.1-0.1-0.2-0.1c-0.1,0-0.2-0.1-0.2-0.1c-0.1-0.1-0.2-0.1-0.2-0.2
				c-0.1-0.1-0.2-0.1-0.2-0.2c-0.1-0.1-0.2-0.2-0.2-0.2c-0.1-0.1-0.1-0.2-0.2-0.3c-0.1-0.1-0.1-0.2-0.2-0.3s-0.1-0.2-0.2-0.3
				c-0.1-0.2-0.3-0.4-0.4-0.7c-0.1-0.2-0.3-0.5-0.4-0.7c-0.1-0.2-0.2-0.5-0.4-0.8c-0.1-0.3-0.2-0.5-0.3-0.8
				c-0.1-0.2-0.1-0.4-0.2-0.6c-0.1-0.2-0.1-0.4-0.2-0.6c0-0.2-0.1-0.3-0.1-0.5c0-0.2-0.1-0.3-0.1-0.5c0-0.1,0-0.3,0-0.4
				c0-0.1,0-0.2,0-0.4c0-0.1,0-0.2,0.1-0.3c0-0.1,0.1-0.2,0.1-0.2c0,0,0.1-0.1,0.1-0.1c0,0,0.1,0,0.1-0.1c0.1,0,0.1,0,0.2,0
				C33.4,330.1,33.5,330.1,33.6,330.1L33.6,330.1z"/>
		</g>
	</g>
	<g>
		<path id="path5373_1_" class="st69" d="M116.7,354c0,1.2-4.6,2.2-10.2,2.2c-5.7,0-10.2-1-10.2-2.2c0,0,0,0,0,0
			c0-1.2,4.6-2.2,10.2-2.2C112.1,351.9,116.7,352.8,116.7,354C116.7,354,116.7,354,116.7,354z"/>
		<path id="path5364_1_" class="st70" d="M117,331.2c0,1.3-4.8,2.3-10.8,2.3c-5.9,0-10.8-1-10.8-2.3c0,0,0,0,0,0
			c0-1.3,4.8-2.3,10.8-2.3C112.2,329,117,330,117,331.2C117,331.2,117,331.2,117,331.2z"/>
		<g id="g4803-1_1_" transform="matrix(1.2809 1.1716 -1.1859 1.2655 602.18 -584.63)">
			<path id="path4805-7_1_" class="st71" d="M159.6,594.6l-0.4,0.4l-0.7,0.3l-0.7,0l-0.5-0.2l-3.4-18.1l0.5,0.2l0.7,0l0.7-0.3
				l0.4-0.4L159.6,594.6L159.6,594.6z"/>
			<path id="path4807-4_1_" class="st72" d="M159.2,595l-0.7,0.3l-3.4-18.1l0.7-0.3L159.2,595z"/>
			<path id="path4809-0_1_" class="st73" d="M157.8,595.2l-0.5-0.2l-3.4-18.1l0.5,0.2L157.8,595.2L157.8,595.2z"/>
			<path id="path4811-9_1_" class="st74" d="M156.3,576.4l-0.4,0.4l-0.7,0.3l-0.7,0l-0.5-0.2l0.3-4.8L156.3,576.4L156.3,576.4z"/>
			<path id="path4813-4_1_" class="st71" d="M154.9,573.4l-0.1,0.3l-0.2,0.1l-0.3,0l-0.2-0.1l0.1-1.7L154.9,573.4L154.9,573.4
				L154.9,573.4z"/>
			<path id="path4815-8_1_" class="st75" d="M155.9,576.8l-0.7,0.3l-0.6-3.3l-0.3-1.8L155.9,576.8L155.9,576.8z"/>
			<path id="path4817-8_1_" class="st76" d="M154.5,577.1l-0.2-5.1l-0.1,1.6l-0.2,3.2L154.5,577.1L154.5,577.1z"/>
			<path id="path4819-2_1_" class="st77" d="M154.3,572.1l-0.3,4.8l3.4,18.2l0.5,0.2l0.7,0l0.7-0.3l0.4-0.4l-3.4-18.1L154.3,572.1
				L154.3,572.1z"/>
		</g>
		<g id="g4857-4_1_" transform="matrix(1.444 -.96896 .98079 1.4266 -1415.2 359.67)">
			<path id="path4859-5_1_" class="st78" d="M725.8,488l-0.5,0.2l-0.7,0.1l-0.7-0.3l-0.4-0.4l2.8-18.2l0.4,0.4l0.7,0.3l0.7-0.1
				l0.5-0.3L725.8,488L725.8,488z"/>
			<path id="path4861-5_1_" class="st72" d="M725.3,488.3l-0.7,0.1l2.8-18.2l0.7-0.1L725.3,488.3z"/>
			<path id="path4863-1_1_" class="st73" d="M723.8,488l-0.4-0.4l2.8-18.2l0.4,0.4L723.8,488L723.8,488z"/>
			<path id="path4865-7_1_" class="st74" d="M728.5,469.8L728,470l-0.7,0.1l-0.7-0.3l-0.4-0.4l1.9-4.5L728.5,469.8L728.5,469.8z"/>
			<path id="path4867-1_1_" class="st78" d="M728.2,466.5l-0.2,0.2l-0.3,0.1l-0.2-0.1l-0.1-0.2l0.6-1.5L728.2,466.5L728.2,466.5
				L728.2,466.5z"/>
			<path id="path4869-1_1_" class="st75" d="M728,470l-0.8,0.1l0.5-3.3l0.3-1.8L728,470L728,470z"/>
			<path id="path4871-5_1_" class="st76" d="M726.6,469.8l1.5-4.9l-0.6,1.5l-1.2,3L726.6,469.8L726.6,469.8z"/>
			<path id="path4873-2_1_" class="st77" d="M728.1,465l-1.9,4.4l-2.8,18.3l0.4,0.4l0.7,0.3l0.7-0.1l0.5-0.3l2.8-18.2L728.1,465
				L728.1,465z"/>
		</g>
		<g id="g4821-7_1_" transform="matrix(1.6971 -.40362 .40854 1.6766 -875.89 -247.01)">
			<path id="path4823-6_1_" class="st79" d="M465.9,470.7l-0.5,0.2l-0.7,0.1l-0.7-0.3l-0.4-0.4l2.8-18.2l0.4,0.4l0.7,0.3l0.7-0.1
				l0.5-0.3L465.9,470.7L465.9,470.7z"/>
			<path id="path4825-1_1_" class="st72" d="M465.4,471l-0.7,0.1l2.8-18.2l0.7-0.1L465.4,471L465.4,471z"/>
			<path id="path4827-4_1_" class="st73" d="M464,470.8l-0.4-0.4l2.8-18.2l0.4,0.4L464,470.8L464,470.8z"/>
			<path id="path4829-2_1_" class="st74" d="M468.6,452.5l-0.5,0.2l-0.7,0.1l-0.7-0.3l-0.4-0.4l1.9-4.5L468.6,452.5L468.6,452.5z"/>
			<path id="path4831-3_1_" class="st79" d="M468.3,449.2l-0.2,0.2l-0.3,0.1l-0.2-0.1l-0.1-0.2l0.6-1.5L468.3,449.2L468.3,449.2
				L468.3,449.2z"/>
			<path id="path4833-2_1_" class="st75" d="M468.1,452.8l-0.8,0.1l0.5-3.3l0.3-1.8L468.1,452.8L468.1,452.8z"/>
			<path id="path4835-2_1_" class="st76" d="M466.7,452.6l1.5-4.9l-0.6,1.5l-1.2,3L466.7,452.6L466.7,452.6z"/>
			<path id="path4837-1_1_" class="st77" d="M468.2,447.7l-1.9,4.4l-2.8,18.3l0.4,0.4l0.7,0.3l0.7-0.1l0.5-0.3l2.8-18.2L468.2,447.7
				L468.2,447.7z"/>
		</g>
		<g id="g4875-6_1_" transform="matrix(1.7456 .0055086 -.0055758 1.7245 -1007.6 -521.13)">
			<path id="path4877-8_1_" class="st80" d="M640,505.7l-0.5,0.2l-0.7,0.1l-0.7-0.3l-0.4-0.4l2.8-18.2l0.4,0.4l0.7,0.3l0.7-0.1
				l0.5-0.3L640,505.7L640,505.7z"/>
			<path id="path4879-5_1_" class="st72" d="M639.4,506l-0.7,0.1l2.8-18.2l0.7-0.1L639.4,506L639.4,506z"/>
			<path id="path4881-7_1_" class="st73" d="M638,505.8l-0.4-0.4l2.8-18.2l0.4,0.4L638,505.8L638,505.8z"/>
			<path id="path4883-6_1_" class="st74" d="M642.7,487.5l-0.5,0.2l-0.7,0.1l-0.7-0.3l-0.4-0.4l1.9-4.5L642.7,487.5L642.7,487.5z"/>
			<path id="path4885-1_1_" class="st80" d="M642.4,484.2l-0.2,0.2l-0.3,0.1l-0.2-0.1l-0.1-0.2l0.6-1.5L642.4,484.2L642.4,484.2
				L642.4,484.2z"/>
			<path id="path4887-8_1_" class="st75" d="M642.2,487.7l-0.8,0.1l0.5-3.3l0.3-1.8L642.2,487.7L642.2,487.7z"/>
			<path id="path4889-9_1_" class="st76" d="M640.8,487.5l1.5-4.9l-0.6,1.5l-1.2,3L640.8,487.5L640.8,487.5z"/>
			<path id="path4891-2_1_" class="st77" d="M642.3,482.7l-1.9,4.4l-2.8,18.3l0.4,0.4l0.7,0.3l0.7-0.1l0.5-0.3l2.8-18.2L642.3,482.7
				L642.3,482.7z"/>
		</g>
		<g id="g4929-7_1_" transform="matrix(1.5342 .82254 -.83257 1.5157 -259.83 -264.74)">
			<g id="g4931-9_1_" transform="matrix(.98872 -.14978 .14978 .98872 -43.353 80.935)">
				<path id="path4933-5_1_" class="st81" d="M370.9,193.2l-0.5,0.2l-0.7,0.1l-0.7-0.3l-0.4-0.4l2.8-18.2l0.4,0.4l0.7,0.3l0.7-0.1
					l0.5-0.3L370.9,193.2L370.9,193.2z"/>
				<path id="path4935-4_1_" class="st72" d="M370.3,193.5l-0.7,0.1l2.8-18.2l0.7-0.1L370.3,193.5z"/>
				<path id="path4937-3_1_" class="st73" d="M368.9,193.3l-0.4-0.4l2.8-18.2l0.4,0.4L368.9,193.3L368.9,193.3z"/>
				<path id="path4939-1_1_" class="st74" d="M373.6,175l-0.5,0.2l-0.7,0.1l-0.7-0.3l-0.4-0.4l1.9-4.5L373.6,175L373.6,175z"/>
				<path id="path4941-2_1_" class="st81" d="M373.3,171.7l-0.2,0.2l-0.3,0.1l-0.2-0.1l-0.1-0.2l0.6-1.5L373.3,171.7L373.3,171.7
					L373.3,171.7z"/>
				<path id="path4943-3_1_" class="st75" d="M373.1,175.2l-0.8,0.1l0.5-3.3l0.3-1.8L373.1,175.2L373.1,175.2z"/>
				<path id="path4945-3_1_" class="st76" d="M371.7,175l1.5-4.9l-0.6,1.5l-1.2,3L371.7,175L371.7,175z"/>
				<path id="path4947-4_1_" class="st77" d="M373.2,170.2l-1.9,4.4l-2.8,18.3l0.4,0.4l0.7,0.3l0.7-0.1l0.5-0.3l2.8-18.2
					L373.2,170.2L373.2,170.2z"/>
			</g>
		</g>
		<g id="g4985-1_1_" transform="matrix(1.5553 -.78293 .79249 1.5366 -1319.3 -568.57)">
			<path id="path4987-1_1_" class="st82" d="M488,848.3l-0.5,0.2l-0.7,0.1l-0.7-0.3l-0.4-0.4l2.8-18.2l0.4,0.4l0.7,0.3l0.7-0.1
				l0.5-0.3L488,848.3L488,848.3z"/>
			<path id="path4989-3_1_" class="st72" d="M487.4,848.5l-0.7,0.1l2.8-18.2l0.7-0.1L487.4,848.5z"/>
			<path id="path4991-8_1_" class="st73" d="M486,848.3l-0.4-0.4l2.8-18.2l0.4,0.4L486,848.3L486,848.3z"/>
			<path id="path4993-7_1_" class="st74" d="M490.7,830l-0.5,0.2l-0.7,0.1l-0.7-0.3l-0.4-0.4l1.9-4.5L490.7,830L490.7,830z"/>
			<path id="path4995-4_1_" class="st82" d="M490.4,826.7l-0.2,0.2L490,827l-0.2-0.1l-0.1-0.2l0.6-1.5L490.4,826.7L490.4,826.7
				L490.4,826.7z"/>
			<path id="path4997-2_1_" class="st75" d="M490.2,830.3l-0.8,0.1l0.5-3.3l0.3-1.8L490.2,830.3L490.2,830.3z"/>
			<path id="path4999-7_1_" class="st76" d="M488.8,830.1l1.5-4.9l-0.6,1.5l-1.2,3L488.8,830.1L488.8,830.1z"/>
			<path id="path5001-7_1_" class="st77" d="M490.3,825.2l-1.9,4.4l-2.8,18.3l0.4,0.4l0.7,0.3l0.7-0.1l0.5-0.3l2.8-18.2L490.3,825.2
				L490.3,825.2z"/>
		</g>
		<path id="path5366_1_" class="st83" d="M116,332.5c0.5,0.2,0.7,0.5,0.7,0.8c0,1.2-4.6,2.2-10.2,2.2c-5.7,0-10.2-1-10.2-2.2
			c0-0.3,0.2-0.5,0.6-0.7"/>
		<path id="path5375_1_" class="st84" d="M116,353.2c0.5,0.2,0.7,0.5,0.7,0.8c0,1.2-4.6,2.2-10.2,2.2c-5.7,0-10.2-1-10.2-2.2
			c0-0.3,0.2-0.5,0.6-0.7"/>
		<path id="path5377_1_" class="st85" d="M96.3,334.8l0.1,18.7l1.2,0.7l3.4,0.8l2.2,0.2l2.4,0.2l3.2-0.1l3.2-0.3l2.8-0.5l1-0.4
			v-18.8l-1.7,0.4l-1.8,0.2l-4,0.3l-3.1,0.1l-2.9-0.2l-2.9-0.4l-2.4-0.6L96.3,334.8z"/>
		<path id="path5379_1_" class="st70" d="M116,334.8v19.7"/>
		<path id="path5381_1_" class="st70" d="M96.5,333.8v20.6"/>
	</g>
</g>
</svg>
