<?xml version="1.0" encoding="utf-8"?>
<!-- Generator: Adobe Illustrator 23.0.1, SVG Export Plug-In . SVG Version: 6.00 Build 0)  -->
<svg version="1.1" id="Layer_1" xmlns="http://www.w3.org/2000/svg" xmlns:xlink="http://www.w3.org/1999/xlink" x="0px" y="0px"
	 viewBox="0 0 1538 1659.6" style="enable-background:new 0 0 1538 1659.6;" xml:space="preserve">
<style type="text/css">
	.st0{fill:#2D1F1F;stroke:#2D1F1F;}
	.st1{fill:#A5663A;stroke:#A5663A;}
	.st2{fill:#8E5C3A;stroke:#8E5C3A;}
	.st3{fill:#99CC33;stroke:#99CC33;}
	.st4{fill:#FEFEFE;}
	.st5{fill-rule:evenodd;clip-rule:evenodd;fill:#FFFFFF;stroke:#000000;stroke-width:4.2733;}
	.st6{fill:url(#path933_18_);stroke:#0055DF;stroke-width:2.5;stroke-linejoin:round;}
	.st7{fill:url(#path933_19_);stroke:#0055DF;stroke-width:2.5;stroke-linejoin:round;}
	.st8{fill:url(#path933_20_);stroke:#0055DF;stroke-width:2;stroke-linejoin:round;}
	.st9{fill:url(#path933_21_);stroke:#0055DF;stroke-width:2;stroke-linejoin:round;}
	.st10{fill:url(#path933_22_);stroke:#0055DF;stroke-width:2.5;stroke-linejoin:round;}
	.st11{fill:url(#path933_23_);stroke:#0055DF;stroke-width:2.5;stroke-linejoin:round;}
	.st12{fill:url(#path933_24_);stroke:#0055DF;stroke-width:2;stroke-linejoin:round;}
	.st13{fill:url(#path933_25_);stroke:#0055DF;stroke-width:2.5;stroke-linejoin:round;}
	.st14{fill:url(#path933_26_);stroke:#0055DF;stroke-width:2.5;stroke-linejoin:round;}
	.st15{fill:url(#path933_27_);stroke:#0055DF;stroke-width:2;stroke-linejoin:round;}
	.st16{fill:url(#path933_28_);stroke:#0055DF;stroke-width:2;stroke-linejoin:round;}
	.st17{fill:url(#path933_29_);stroke:#0055DF;stroke-width:2.5;stroke-linejoin:round;}
	.st18{fill:url(#path933_30_);stroke:#0055DF;stroke-width:2;stroke-linejoin:round;}
	.st19{fill:url(#path933_31_);stroke:#0055DF;stroke-width:2;stroke-linejoin:round;}
	.st20{fill:url(#path933_32_);stroke:#0055DF;stroke-width:2.5;stroke-linejoin:round;}
	.st21{fill:url(#path933_33_);stroke:#0055DF;stroke-width:2.5;stroke-linejoin:round;}
	.st22{fill:url(#path933_34_);stroke:#0055DF;stroke-width:2;stroke-linejoin:round;}
</style>
<g>
	<g>
		<path class="st0" d="M610.9,707.5c43-26.7,92.6-43.3,143.4-45.4c43.2-1.6,87.1,3.9,127.5,19.8c30.5,12.2,58.9,31.3,78.7,57.8
			c17.7,23.1,27.5,51.2,32.9,79.6c5.8,31.2,11.2,62.7,10.8,94.6c0.2,15.1-0.7,30.3-1.9,45.4c-1.4,15.7-2,31.6-6.1,46.9
			c-8.6,42.2-24.7,82.4-36.5,123.8c-0.5,1.2-1,2.4-1.6,3.6c-2.6-24.5,1.1-49.2,3-73.6c2-17,4-34,5.7-51.1
			c1.6-17.6,3.7-35.3,2.2-52.9c-6.3-30.5-16.4-60.1-28.9-88.5c-1.8-4.2-3.8-8.6-8.1-10.8c-27.4-17.1-59.6-24.2-91.2-29.2
			c-32.3-4.9-65.1-6.3-97.7-5.2c-34.6,1.9-69.4,5.9-102.4,16.8c-12.6,4.4-25,9.7-35.8,17.6c-3.9,2.7-5.4,7.5-7.3,11.6
			c-12,27.2-21.6,55.5-27.9,84.5c-1.2,5.2-1.6,10.6-1.5,15.9c0.1,46.2,5.3,92.1,7.5,138.2c0.4,15.8,1.9,31.7,0,47.4
			c-0.2,1.2-0.7,2.2-1.4,3.2c-13.3-49.1-23-99.1-32.6-149c-1.4-8.7-2.9-17.5-4-26.3c-2.6-27.7-0.8-55.6,1.9-83.2
			c2.3-26.7,2-53.6,4.5-80.2c6.4-38.5,28.2-72.8,54.8-100.6C602.5,714.3,606.1,710.2,610.9,707.5z"/>
		<path class="st1" d="M743.1,822.2c32.6-1.1,65.4,0.3,97.7,5.2c31.6,5,63.7,12.1,91.2,29.2c4.3,2.2,6.3,6.6,8.1,10.8
			c12.6,28.4,22.6,58.1,28.9,88.5c1.5,17.7-0.7,35.4-2.2,52.9c-1.7,17.1-3.7,34.1-5.7,51.1c-1.9,24.5-5.6,49.1-3,73.6
			c0.6-1.2,1.1-2.4,1.6-3.6c11.8-41.4,27.9-81.6,36.5-123.8c0.3,0.5,0.7,1.5,1,2c7.9-0.1,15.9,2.4,21.6,8
			c11.5,10.7,15.7,27.1,15.7,42.3c0.5,25.5-10.1,49.6-23.6,70.7c-7.3,10.7-15.6,21.2-27,27.7c-4.2,2.5-9,3.3-13.8,3.8
			c-3.2,12.5-6,25.3-10.9,37.2c0.7-4.6,1.7-9,2.4-13.6c-4.1,4.1-6.9,9.1-10.4,13.7c-27.5,36.4-63,67.4-104.5,87
			c-11.6,5.2-24.4,9.3-37.3,7.4c-7.5-1.1-15.1-2.2-22.4-4.2c-6.6-1.8-12.2-6.8-19.3-6.5c-7.4-0.3-12.9,5.7-19.8,7.5
			c-9.3,2.5-19,3.6-28.5,3.5c-19.6-1.6-38.2-9-55.5-17.9c-34.6-18.4-65.2-44.4-89.2-75.4c-3.8-12.8-8-25.6-10.9-38.7
			c-15.7-4.2-26.7-17.1-35.6-29.9c-13.4-20.3-23.9-43.5-24.6-68.2c-0.4-14.7,2.4-30.4,11.8-42.2c6.2-7.8,16.2-13.1,26.3-11.7
			c9.6,49.9,19.3,99.9,32.6,149c0.7-1,1.2-2,1.4-3.2c2-15.8,0.5-31.6,0-47.4c-2.2-46.1-7.4-92-7.5-138.2c-0.1-5.3,0.3-10.7,1.5-15.9
			c6.3-29,15.9-57.3,27.9-84.5c1.9-4.1,3.3-8.9,7.3-11.6c10.8-7.9,23.2-13.2,35.8-17.6C673.7,828,708.5,824.1,743.1,822.2z"/>
		<path class="st0" d="M951.2,1197.8c3.4-4.6,6.3-9.6,10.4-13.7c-0.7,4.5-1.7,9-2.4,13.6c-3.1,13.7-8,26.9-14,39.6
			c-4,8.2-8.4,16.3-14.4,23.1c-18,22.6-40.2,41.5-64.3,57.2c-22.3,13.6-46.7,24.6-72.9,27.8c-18.6,2.8-37.7,2.2-56.2-1
			c-24.2-3.7-46-15.8-66-29.3c-20.1-14.8-40.6-29.5-57.8-47.7c-21.2-21.8-38.5-48.1-46.6-77.6c2.8,3,4.9,6.5,7.6,9.5
			c24,30.9,54.6,57,89.2,75.4c17.3,8.9,35.9,16.3,55.5,17.9c9.6,0.2,19.3-0.9,28.5-3.5c6.9-1.7,12.3-7.8,19.8-7.5
			c7.1-0.3,12.8,4.7,19.3,6.5c7.3,1.9,14.9,3.1,22.4,4.2c12.9,1.9,25.7-2.2,37.3-7.4C888.1,1265.2,923.7,1234.2,951.2,1197.8z"/>
		<path class="st2" d="M671.4,1315c20,13.5,41.8,25.6,66,29.3c18.5,3.3,37.6,3.8,56.2,1c26.1-3.2,50.6-14.2,72.9-27.8
			c1.3,9.9,0.7,19.9,1.4,29.9c-4.8,4.8-11,7.8-16.9,11c-20.6,9.8-42.2,18.1-64.7,22.3c-9.7,1.9-19.7,1.3-29.5,1.2
			c-13.7-1.2-27.2-4.8-40.2-9.1c-12.3-4.6-24.9-9-35.9-16.2c-3.6-2.3-7-4.8-10.6-6.9c-0.3-5.4,0-10.9,0.4-16.3
			C671,1327.4,670.3,1321.1,671.4,1315z"/>
		<path class="st1" d="M851.1,1358.6c5.9-3.3,12-6.2,16.9-11c0.3,10.2,1.7,20.3,3.3,30.4c1.7,11.8,8.7,23.5,20.1,28.1
			c9.2,3.3,18.5,6,27.7,9.1c-2.1,5.8-5.5,11.1-8.4,16.6c-12,21.9-25.1,43.2-39.6,63.5c-14.8,20.5-30.8,40.4-50.2,56.9
			c-13.2,11.2-28.6,21-46,23.7c-10.6,1.6-20.3-4.4-29.1-9.6c-20.1-13.3-37.2-30.6-53.4-48.3c-23.4-26.1-44.7-54.1-63.2-83.9
			c-3.6-6.2-7.7-12.2-10.2-18.9c8.9-3,17.9-5.6,26.8-8.7c10.5-3.7,17.8-13.5,20.2-24.1c2.2-10.7,3.1-21.6,4.2-32.4
			c3.6,2.2,7.1,4.7,10.6,6.9c11,7.2,23.6,11.6,35.9,16.2c13.1,4.3,26.5,7.9,40.2,9.1c9.8,0.1,19.8,0.7,29.5-1.2
			C808.9,1376.7,830.4,1368.4,851.1,1358.6z"/>
		<path class="st3" d="M464.7,1465c51.4-16.6,102.7-33.6,154.2-50c2.5,6.7,6.6,12.7,10.2,18.9c18.6,29.7,39.8,57.8,63.2,83.9
			c16.2,17.7,33.3,35,53.4,48.3c8.7,5.2,18.4,11.2,29.1,9.6c17.4-2.7,32.7-12.5,46-23.7c19.4-16.4,35.4-36.4,50.2-56.9
			c14.5-20.3,27.6-41.6,39.6-63.5c2.9-5.5,6.3-10.7,8.4-16.6c48.2,15.2,96.1,31.2,144.2,46.7c11.5,4.3,23.6,6.3,35.2,10.3
			c43.8,13.6,82,44.8,103,85.7c14.5,27.1,20.9,57.7,23.8,88.1c-4.8,0.9-9.7,0.6-14.5,0.6c-297.6,0-595.2,0-892.8,0
			c-1.7-0.1-3.4-0.3-5.1-0.6c2.8-26,7.7-52.1,18.5-76.1c17.6-41,51.3-75,92.6-92.1C437,1472,450.9,1468.6,464.7,1465z"/>
	</g>
	<path d="M611.6,1031.6c-2.9-4.6-3.1-9.8-3.5-15c0.5-13.2,4.6-25.1,13.8-34.6c16.3-16.8,35.9-22.1,58.4-15.3
		c14.3,4.4,26.2,12.5,34.2,25.4c4.5,7.2,6.9,15.3,6.6,23.8c-0.7,14.3-8.8,24.2-22.8,28.5c-5.7,1.8-11.5,2.9-17.5,2.2
		c-1.1,0.7-2.2,0.4-3.4,0.1c-10.7-2.5-18.1-8.9-21.7-19.2c-4.9-14.2-3.5-27.7,5.8-39.9c1.6-2.1,3.6-3.9,5.7-5.5
		c2.1-1.7,4.4-2.9,6.8-4.4c-3.8-1.2-7.7-1.4-11.5-1.3c-12.3,0.3-22.7,5.5-31.4,14c-6.4,6.2-9.8,14-11.5,22.7
		c-0.9,4.6-1.1,9.2-1.6,13.8c-0.2,1.7-0.1,3.5-1.7,4.7C614.9,1033,613.3,1033.1,611.6,1031.6"/>
	<path class="st4" d="M616.5,1031.5c1.3-3.6,1.2-7.5,1.5-11.3c1.3-21.5,14.8-38.1,35.5-43.5c7.5-2,15-1.4,22.9,0.7
		c-8.8,3.9-15,9.7-18.9,17.9c-6.5,13.5-4.2,32.2,5.3,42.4c4.9,5.3,11.1,7.9,18.1,8.8c0.2,0.1,0.5,0.2,0.6,0.4
		c0.5,0.8-0.4,0.4-0.5,0.4c-5,1.2-10,2.2-15,2.8c-8.8,1-17.6,1.3-26.3-0.8C629.2,1046.8,621.2,1041.3,616.5,1031.5"/>
	<path d="M634.9,924.8c-12.4-0.2-22.1,5-29.6,14.7c-1.8,2.4-3.3,5-5.5,7c-0.7,0.7-1.5,1.4-2.6,1c-1-0.4-1-1.4-1.1-2.3
		c-0.5-3.8,0-7.4,1.3-11c5.2-14.2,15.6-22.2,30.1-24.9c15.3-2.9,29.5,0.9,42.9,8.2c11.1,6,20.7,13.8,28.1,24.2c1.1,1.6,2,3.2,2.7,5
		c0.4,1,0.8,2.2,0,3c-0.7,0.8-1.9,0.4-2.8,0.1c-1.8-0.5-3.3-1.4-4.9-2.3c-11.2-6.4-22.1-13.3-34.2-17.9
		C651.4,926.9,643.4,924.9,634.9,924.8"/>
	<path class="st4" d="M668.1,1029.9c0-6.3,4.6-11.2,10.5-11.1c5.2,0,9.2,4.7,9.2,10.8c0,6.1-4.5,10.3-10.9,10.3
		C671.5,1039.9,668.1,1036.1,668.1,1029.9"/>
	<g>
		<g>
			<path d="M792,1033.2c-1.8-0.3-2-2-2.4-3.3c-2-6.2-2-12.5-0.7-18.8c4.8-24.8,26-44.8,51-48.4c17-2.4,32.8,0.4,46.6,10.9
				c9.3,7,16.4,15.6,19.2,27.4c3.9,16.5-2.6,31.3-17.7,39.1c-8.3,4.3-17.1,6.2-26.4,5.5c-1,0.4-2.1,0.4-3.1,0.1
				c-12.7-2.6-21.3-10-26.1-21.9c-2-4.9-3.1-10.1-3.1-15.3c0-9.6,2.7-18.5,9.3-25.8c3.2-3.5,6.7-6.7,11.4-8.7
				c-11.7,0.4-22.3,3.6-31.7,10.1c-12,8.1-19,19.6-22.6,33.5c-1.1,4.2-1.4,8.5-2,12.8C793.5,1031.5,793.6,1032.9,792,1033.2"/>
			<path class="st4" d="M792,1033.2c1.5-2.1,1.2-4.5,1.4-6.8c2.6-25.5,19.2-47,47.5-52.2c3.5-0.6,7-1,11.2-0.6
				c-9,4.1-15.2,10.1-19,18.6c-3.8,8.5-4,17.3-1.9,26.3c3.5,14.9,14.9,25.1,30.3,27.1c-1.9,1.5-4.3,1.2-6.5,1.5
				c-16.6,2.3-33.1,2.8-49.4-2.2c-4.1-1.3-7.8-3.2-10.8-6.4C793.5,1036.9,792.4,1035.3,792,1033.2"/>
		</g>
		<path class="st4" d="M869.7,1027.5c0,5.9-5.4,10.5-12.3,10.5c-5.9,0-10.4-4.8-10.5-11.2c-0.1-6.2,4.9-11.1,11.4-11.2
			C864.6,1015.6,869.7,1020.9,869.7,1027.5"/>
	</g>
	<path d="M872.1,926c12.4-0.2,22.1,5,29.6,14.7c1.8,2.4,3.3,5,5.5,7c0.7,0.7,1.5,1.4,2.6,1c1-0.4,1-1.4,1.1-2.3
		c0.5-3.8,0-7.4-1.3-11c-5.2-14.2-15.6-22.2-30.1-24.9c-15.3-2.9-29.5,0.9-42.9,8.2c-11.1,6-20.7,13.8-28.1,24.2
		c-1.1,1.6-2,3.2-2.7,5c-0.4,1-0.8,2.2,0,3c0.7,0.8,1.9,0.4,2.8,0.1c1.8-0.5,3.3-1.4,4.9-2.3c11.2-6.4,22.1-13.3,34.2-17.9
		C855.7,928.1,863.7,926.1,872.1,926"/>
	<path d="M742.5,1214.5c-11.4,0-21-0.2-30.4-2.7c-2.9-0.8-5.6-1.8-8.1-3.4c-1.6-1-2.7-2.4-2.3-4.5c0.5-2.1,2-2.7,3.9-3.1
		c6.1-1.1,12.3-0.5,18.4-0.6c47.1-0.5,92.5-10,136.5-26.7c3-1.1,5.9-2.4,9.2-2.7c1.6-0.2,3.1,0,4.1,1.5c1,1.6,0.6,3.2-0.3,4.7
		c-2.3,3.5-5.6,6-9.1,8.1c-13.8,8.5-29,13.2-44.4,17.7C794.1,1210.3,767.6,1213.9,742.5,1214.5"/>
	<path d="M730.4,1122.6c0-6.2,1.6-10.7,5.5-14.5c4-4,8.3-7.7,13.4-10c9.5-4.3,12.6-12.2,13.4-21.6c0.1-1.6,0.4-3.2,0.6-4.9
		c0.2-1.5,0.5-3.2,2.3-3.6c1.7-0.3,2.8,1,3.7,2.2c3.3,4.2,4.4,9.3,4.5,14.5c0.2,10.6-4.3,18.9-12.8,25.2c-3.8,2.8-7.7,5.3-11.4,8.2
		c-3.4,2.7-3.4,3.5-0.6,6.8c3.2,3.8,7.3,6.5,10.9,9.8c3.6,3.3,4.1,6,2,9.6c-1.2,2.1-3,2.9-5.3,2.8c-9.4-0.5-23.1-11.3-25.8-20.4
		C730.5,1124.9,730.4,1123.3,730.4,1122.6"/>
</g>
<g id="layer1" transform="translate(-2170.8 -1628.2)">
	<path id="path7502" class="st5" d="M3301.6,2163.2c-26.2-3.8-54.5-2.5-76.8,7.6c-42.1-18-106-24.2-109.8-3.7
		c-66.2-33-106.1-15-110.3-0.5c-26.9-18.8-100.1-32.1-104.1-8.2c-28.5-16.8-53.7-18.6-78.6-17.5c-7.9-25-95.6-37.9-100.5-16.4
		c-65.4-32.1-102.8-10.1-96.9,8.1c-93.9,5.7,2.6,59.9,41.2,34.5c17.1,21.6,74.4,34.1,112.6,18.4c8.9,18.4,47.7,29.4,84,28.1
		c23.6,18.7,74.9,17.5,78.3,1.9c22.4,17.8,69.6,30.8,94.4,8c17.3,27,97.4,36.7,114.8,17.4c14.5,18.7,68.3,36.6,93.3,19.9
		c14.9,27.4,114.2,45.5,124.4,20c238.2,36.8,99.1-77.2,8.9-73.7C3378.3,2188.4,3342.7,2169.5,3301.6,2163.2L3301.6,2163.2z
		 M3294,2304.5c-12.5-1.6-24.4,0.1-30.5,4.7c-8.7,6.5-1.9,16.8,14.9,22.8c16.8,5.8,37.6,5.4,46-1.1c8.7-6.5,2.2-16.7-14.6-22.7
		C3304.8,2306.3,3299.3,2305,3294,2304.5L3294,2304.5z M3270.7,2350.2c-9.8-1.4-19.7-0.2-24.3,3.6c-6.8,5-1.6,12.8,11.4,17.5
		c13,4.5,28.8,4.1,35.6-0.8c6.5-5.1,1.6-12.8-11.4-17.5C3278.1,2351.7,3274.6,2350.8,3270.7,2350.2L3270.7,2350.2z M3242.4,2388.5
		c-9.2-1.4-18-0.4-22.6,3.1c-6,4.4-1.4,11.5,10.3,15.7c11.7,4.2,25.8,3.8,31.9-0.8s1.4-11.5-10-15.6l-0.3,0
		C3248.9,2389.7,3245.7,2389,3242.4,2388.5z M3208.5,2422.4c-5.9-0.8-11.4,0-14,2.2c-4.1,3.1-0.8,7.7,6.8,10.5
		c8,2.7,17.3,2.5,21.5-0.4c3.8-3.1,0.8-7.7-7.1-10.6C3213.3,2423.3,3210.8,2422.7,3208.5,2422.4L3208.5,2422.4z"/>
</g>
<linearGradient id="path933_18_" gradientUnits="userSpaceOnUse" x1="477.545" y1="989.8085" x2="507.2904" y2="1013.2127" gradientTransform="matrix(0.8923 0.3564 0.386 -0.9666 -335.2456 1304.6583)">
	<stop  offset="0" style="stop-color:#D3EEFF"/>
	<stop  offset="1" style="stop-color:#91C2FF"/>
</linearGradient>
<path id="path933_2_" class="st6" d="M490.7,504c-1.5-2.1-4.5-1.2-6.7-2.3c-3.2-0.8-7.2-2-8.2-5.6c-0.3-1.9,0.7-3.5,1.4-5.2
	c11.3,1.4,22.3,5.2,30.7,12.3c-0.9,4.6-5.2,7.4-9.2,9.3c-2.4,1.2-5,2.1-7.2,3.7c-3.7,2-8.2,3-11.3,6c-1.1,2.6,2.1,4,4.2,4.4
	c2.5,0.5,4.8,1.4,7.1,2.1c2.2,0.9,5,2.4,5,5.1c-0.3,2.9-3.9,4-6.3,3c-5.2-0.1-23.1-5.5-26.5-11.1c-1.1-2.8,1.3-5.3,3.5-6.6
	c3.5-2.3,7.6-3.7,11.2-5.8c2.6-1.4,5.2-2.8,8-4C489.1,509.3,491.9,506.6,490.7,504"/>
<linearGradient id="path933_19_" gradientUnits="userSpaceOnUse" x1="529.0125" y1="1002.94" x2="551.7185" y2="1020.8055" gradientTransform="matrix(0.8923 0.3564 0.386 -0.9666 -335.2456 1304.6583)">
	<stop  offset="0" style="stop-color:#D3EEFF"/>
	<stop  offset="1" style="stop-color:#91C2FF"/>
</linearGradient>
<path id="path933_1_" class="st7" d="M537.5,513c-1.2-1.6-3.5-0.9-5.1-1.8c-2.4-0.6-5.5-1.5-6.2-4.3c-0.2-1.4,0.6-2.7,1.1-4
	c8.6,1.1,17,4,23.4,9.4c-0.7,3.5-4,5.7-7,7.1c-1.9,0.9-3.8,1.6-5.5,2.8c-2.9,1.5-6.2,2.3-8.6,4.6c-0.8,2,1.6,3.1,3.2,3.3
	c1.9,0.4,3.6,1.1,5.5,1.6c1.7,0.7,3.8,1.8,3.8,3.9c-0.3,2.2-3,3-4.8,2.3c-4-0.1-17.6-4.2-20.2-8.5c-0.9-2.1,1-4,2.6-5
	c2.7-1.8,5.8-2.8,8.6-4.5c2-1.1,4-2.1,6.1-3C536.2,517.1,538.4,515,537.5,513"/>
<linearGradient id="path933_20_" gradientUnits="userSpaceOnUse" x1="567.7167" y1="1013.9741" x2="585.0084" y2="1027.5796" gradientTransform="matrix(0.9035 0.3268 0.354 -0.9787 -315.8081 1343.3925)">
	<stop  offset="0" style="stop-color:#D3EEFF"/>
	<stop  offset="1" style="stop-color:#91C2FF"/>
</linearGradient>
<path id="path933_3_" class="st8" d="M566.2,527.9c-0.9-1.2-2.7-0.6-3.9-1.2c-1.9-0.4-4.2-1-4.9-3.1c-0.2-1.1,0.4-2.1,0.7-3
	c6.6,0.6,13.1,2.6,18.1,6.5c-0.4,2.7-2.9,4.4-5.2,5.6c-1.4,0.7-2.9,1.3-4.1,2.3c-2.1,1.2-4.7,1.9-6.4,3.7c-0.6,1.6,1.3,2.3,2.5,2.5
	c1.4,0.2,2.8,0.7,4.2,1.1c1.3,0.5,3,1.3,3,2.9c-0.1,1.7-2.2,2.4-3.6,1.8c-3,0-13.5-2.8-15.6-5.9c-0.7-1.6,0.6-3.1,1.9-3.9
	c2-1.4,4.3-2.3,6.4-3.6c1.5-0.9,3-1.7,4.5-2.5C565.3,531.1,566.9,529.4,566.2,527.9"/>
<linearGradient id="path933_21_" gradientUnits="userSpaceOnUse" x1="601.6036" y1="1020.8478" x2="618.8954" y2="1034.4532" gradientTransform="matrix(0.9035 0.3268 0.354 -0.9787 -315.8081 1343.3925)">
	<stop  offset="0" style="stop-color:#D3EEFF"/>
	<stop  offset="1" style="stop-color:#91C2FF"/>
</linearGradient>
<path id="path933_4_" class="st9" d="M599.2,532.3c-0.9-1.2-2.7-0.6-3.9-1.2c-1.9-0.4-4.2-1-4.9-3.1c-0.2-1.1,0.4-2.1,0.7-3
	c6.6,0.6,13.1,2.6,18.1,6.5c-0.4,2.7-2.9,4.4-5.2,5.6c-1.4,0.7-2.9,1.3-4.1,2.3c-2.1,1.2-4.7,1.9-6.4,3.7c-0.6,1.6,1.3,2.3,2.5,2.5
	c1.4,0.2,2.8,0.7,4.2,1.1c1.3,0.5,3,1.3,3,2.9c-0.1,1.7-2.2,2.4-3.6,1.8c-3,0-13.5-2.8-15.6-5.9c-0.7-1.6,0.6-3.1,1.9-3.9
	c2-1.4,4.3-2.3,6.4-3.6c1.5-0.9,3-1.7,4.5-2.5C598.3,535.4,599.9,533.8,599.2,532.3"/>
<linearGradient id="path933_22_" gradientUnits="userSpaceOnUse" x1="1094.1031" y1="1150.2719" x2="1129.5457" y2="1178.1586" gradientTransform="matrix(1.6697 0.6668 0.477 -1.1944 -1288.2388 1234.0953)">
	<stop  offset="0" style="stop-color:#D3EEFF"/>
	<stop  offset="1" style="stop-color:#91C2FF"/>
</linearGradient>
<path id="path933_7_" class="st10" d="M1121.3,572.1c-3.8-3.7-10-3.1-14.8-5.4c-7-2.1-15.8-5.1-18.8-10.9c-1.1-3,0.7-5.4,1.6-7.8
	c24.4,5.2,48.7,14,68.5,27.3c-0.7,7.1-9.1,10.4-17.2,12.2c-4.9,1.2-10.1,2-14.4,3.9c-7.4,2.2-16.6,2.5-22.4,6.5
	c-1.6,3.9,5.5,6.9,10.1,8c5.4,1.4,10.5,3.4,15.7,5.1c4.9,2,11.3,5.1,11.9,9.4c0,4.4-7.2,5.3-12.7,3c-11.2-1.6-50.5-14.7-59.2-24.4
	c-3.1-4.7,1.3-8,5.6-9.5c6.9-2.7,15.1-3.9,22.4-6.3c5.2-1.5,10.4-3.1,15.9-4.2C1119.2,580.1,1124.5,576.5,1121.3,572.1"/>
<linearGradient id="path933_23_" gradientUnits="userSpaceOnUse" x1="939.1071" y1="1087.2953" x2="974.5496" y2="1115.1821" gradientTransform="matrix(0.8923 0.3564 0.386 -0.9666 -335.2456 1304.6583)">
	<stop  offset="0" style="stop-color:#D3EEFF"/>
	<stop  offset="1" style="stop-color:#91C2FF"/>
</linearGradient>
<path id="path933_8_" class="st11" d="M943.6,571.5c-1.8-2.5-5.4-1.5-7.9-2.7c-3.8-0.9-8.6-2.4-9.7-6.6c-0.3-2.2,0.9-4.2,1.7-6.2
	c13.5,1.7,26.6,6.2,36.6,14.6c-1.1,5.5-6.2,8.9-11,11.1c-2.9,1.4-6,2.5-8.6,4.4c-4.5,2.4-9.7,3.5-13.5,7.2c-1.3,3.1,2.5,4.8,5,5.2
	c2.9,0.6,5.7,1.7,8.5,2.5c2.6,1,6,2.9,5.9,6.1c-0.4,3.4-4.6,4.8-7.5,3.5c-6.2-0.2-27.5-6.6-31.6-13.2c-1.3-3.3,1.5-6.3,4.1-7.9
	c4.2-2.8,9-4.4,13.4-6.9c3.1-1.7,6.2-3.3,9.5-4.8C941.6,577.9,945,574.6,943.6,571.5"/>
<linearGradient id="path933_24_" gradientUnits="userSpaceOnUse" x1="1189.2301" y1="1142.7666" x2="1206.5219" y2="1156.3721" gradientTransform="matrix(1.2926 0.4675 0.571 -1.5787 -1027.3633 1872.7705)">
	<stop  offset="0" style="stop-color:#D3EEFF"/>
	<stop  offset="1" style="stop-color:#91C2FF"/>
</linearGradient>
<path id="path933_9_" class="st12" d="M1177.4,610.5c-1.3-1.8-3.8-0.8-5.6-1.7c-2.7-0.5-6.1-1.4-6.9-4.6c-0.2-1.7,0.7-3.3,1.2-4.9
	c9.5,0.6,18.8,3.4,25.9,9.4c-0.8,4.3-4.4,7.2-7.8,9.2c-2.1,1.2-4.2,2.3-6.1,3.9c-3.2,2.1-6.9,3.3-9.6,6.3c-0.9,2.5,1.8,3.6,3.5,3.8
	c2.1,0.3,4,1,6,1.4c1.8,0.7,4.2,1.9,4.2,4.4c-0.3,2.7-3.3,3.9-5.4,3.2c-4.4,0.2-19.5-3.6-22.3-8.5c-0.9-2.5,1.1-4.9,3-6.3
	c3-2.4,6.4-3.9,9.5-6.1c2.2-1.5,4.4-2.9,6.7-4.2C1175.9,615.5,1178.4,612.8,1177.4,610.5"/>
<linearGradient id="path933_25_" gradientUnits="userSpaceOnUse" x1="791.4482" y1="1057.5353" x2="821.1937" y2="1080.9396" gradientTransform="matrix(0.8923 0.3564 0.386 -0.9666 -335.2456 1304.6583)">
	<stop  offset="0" style="stop-color:#D3EEFF"/>
	<stop  offset="1" style="stop-color:#91C2FF"/>
</linearGradient>
<path id="path933_11_" class="st13" d="M797,550.4c-1.5-2.1-4.5-1.2-6.7-2.3c-3.2-0.8-7.2-2-8.2-5.6c-0.3-1.9,0.7-3.5,1.4-5.2
	c11.3,1.4,22.3,5.2,30.7,12.3c-0.9,4.6-5.2,7.4-9.2,9.3c-2.4,1.2-5,2.1-7.2,3.7c-3.7,2-8.2,3-11.3,6c-1.1,2.6,2.1,4,4.2,4.4
	c2.5,0.5,4.8,1.4,7.1,2.1c2.2,0.9,5,2.4,5,5.1c-0.3,2.9-3.9,4-6.3,3c-5.2-0.1-23.1-5.5-26.5-11.1c-1.1-2.8,1.3-5.3,3.5-6.6
	c3.5-2.3,7.6-3.7,11.2-5.8c2.6-1.4,5.2-2.8,8-4C795.3,555.7,798.1,553,797,550.4"/>
<linearGradient id="path933_26_" gradientUnits="userSpaceOnUse" x1="836.552" y1="1062.8147" x2="859.2581" y2="1080.6802" gradientTransform="matrix(0.8923 0.3564 0.386 -0.9666 -335.2456 1304.6583)">
	<stop  offset="0" style="stop-color:#D3EEFF"/>
	<stop  offset="1" style="stop-color:#91C2FF"/>
</linearGradient>
<path id="path933_10_" class="st14" d="M835.1,564.7c-1.2-1.6-3.5-0.9-5.1-1.8c-2.4-0.6-5.5-1.5-6.2-4.3c-0.2-1.4,0.6-2.7,1.1-4
	c8.6,1.1,17,4,23.4,9.4c-0.7,3.5-4,5.7-7,7.1c-1.9,0.9-3.8,1.6-5.5,2.8c-2.9,1.5-6.2,2.3-8.6,4.6c-0.8,2,1.6,3.1,3.2,3.3
	c1.9,0.4,3.6,1.1,5.5,1.6c1.7,0.7,3.8,1.8,3.8,3.9c-0.3,2.2-3,3-4.8,2.3c-4-0.1-17.6-4.2-20.2-8.5c-0.9-2.1,1-4,2.6-5
	c2.7-1.8,5.8-2.8,8.6-4.5c2-1.1,4-2.1,6.1-3C833.8,568.8,835.9,566.7,835.1,564.7"/>
<linearGradient id="path933_27_" gradientUnits="userSpaceOnUse" x1="1278.9894" y1="1149.8223" x2="1296.2811" y2="1163.4277" gradientTransform="matrix(0.9035 0.3268 0.354 -0.9787 -315.8081 1343.3925)">
	<stop  offset="0" style="stop-color:#D3EEFF"/>
	<stop  offset="1" style="stop-color:#91C2FF"/>
</linearGradient>
<path id="path933_6_" class="st15" d="M1256.9,627.4c-0.9-1.2-2.7-0.6-3.9-1.2c-1.9-0.4-4.2-1-4.9-3.1c-0.2-1.1,0.4-2.1,0.7-3
	c6.6,0.6,13.1,2.6,18.1,6.5c-0.4,2.7-2.9,4.4-5.2,5.6c-1.4,0.7-2.9,1.3-4.1,2.3c-2.1,1.2-4.7,1.9-6.4,3.7c-0.6,1.6,1.3,2.3,2.5,2.5
	c1.4,0.2,2.8,0.7,4.2,1.1c1.3,0.5,3,1.3,3,2.9c-0.1,1.7-2.2,2.4-3.6,1.8c-3,0-13.5-2.8-15.6-5.9c-0.7-1.6,0.6-3.1,1.9-3.9
	c2-1.4,4.3-2.3,6.4-3.6c1.5-0.9,3-1.7,4.5-2.5C1256,630.6,1257.6,628.9,1256.9,627.4"/>
<linearGradient id="path933_28_" gradientUnits="userSpaceOnUse" x1="1314.9218" y1="1161.8199" x2="1332.2135" y2="1175.4253" gradientTransform="matrix(0.9035 0.3268 0.354 -0.9787 -315.8081 1343.3925)">
	<stop  offset="0" style="stop-color:#D3EEFF"/>
	<stop  offset="1" style="stop-color:#91C2FF"/>
</linearGradient>
<path id="path933_5_" class="st16" d="M1293.6,627.4c-0.9-1.2-2.7-0.6-3.9-1.2c-1.9-0.4-4.2-1-4.9-3.1c-0.2-1.1,0.4-2.1,0.7-3
	c6.6,0.6,13.1,2.6,18.1,6.5c-0.4,2.7-2.9,4.4-5.2,5.6c-1.4,0.7-2.9,1.3-4.1,2.3c-2.1,1.2-4.7,1.9-6.4,3.7c-0.6,1.6,1.3,2.3,2.5,2.5
	c1.4,0.2,2.8,0.7,4.2,1.1c1.3,0.5,3,1.3,3,2.9c-0.1,1.7-2.2,2.4-3.6,1.8c-3,0-13.5-2.8-15.6-5.9c-0.7-1.6,0.6-3.1,1.9-3.9
	c2-1.4,4.3-2.3,6.4-3.6c1.5-0.9,3-1.7,4.5-2.5C1292.8,630.6,1294.4,628.9,1293.6,627.4"/>
<linearGradient id="path933_29_" gradientUnits="userSpaceOnUse" x1="890.0474" y1="1094.9015" x2="912.7534" y2="1112.767" gradientTransform="matrix(0.8923 0.3564 0.386 -0.9666 -335.2456 1304.6583)">
	<stop  offset="0" style="stop-color:#D3EEFF"/>
	<stop  offset="1" style="stop-color:#91C2FF"/>
</linearGradient>
<path id="path933_14_" class="st17" d="M895.2,552.7c-1.2-1.6-3.5-0.9-5.1-1.8c-2.4-0.6-5.5-1.5-6.2-4.3c-0.2-1.4,0.6-2.7,1.1-4
	c8.6,1.1,17,4,23.4,9.4c-0.7,3.5-4,5.7-7,7.1c-1.9,0.9-3.8,1.6-5.5,2.8c-2.9,1.5-6.2,2.3-8.6,4.6c-0.8,2,1.6,3.1,3.2,3.3
	c1.9,0.4,3.6,1.1,5.5,1.6c1.7,0.7,3.8,1.8,3.8,3.9c-0.3,2.2-3,3-4.8,2.3c-4-0.1-17.6-4.2-20.2-8.5c-0.9-2.1,1-4,2.6-5
	c2.7-1.8,5.8-2.8,8.6-4.5c2-1.1,4-2.1,6.1-3C893.9,556.8,896.1,554.7,895.2,552.7"/>
<linearGradient id="path933_30_" gradientUnits="userSpaceOnUse" x1="690.255" y1="1040.4426" x2="707.5468" y2="1054.0481" gradientTransform="matrix(0.9035 0.3268 0.354 -0.9787 -315.8081 1343.3925)">
	<stop  offset="0" style="stop-color:#D3EEFF"/>
	<stop  offset="1" style="stop-color:#91C2FF"/>
</linearGradient>
<path id="path933_13_" class="st18" d="M686.2,542.1c-0.9-1.2-2.7-0.6-3.9-1.2c-1.9-0.4-4.2-1-4.9-3.1c-0.2-1.1,0.4-2.1,0.7-3
	c6.6,0.6,13.1,2.6,18.1,6.5c-0.4,2.7-2.9,4.4-5.2,5.6c-1.4,0.7-2.9,1.3-4.1,2.3c-2.1,1.2-4.7,1.9-6.4,3.7c-0.6,1.6,1.3,2.3,2.5,2.5
	c1.4,0.2,2.8,0.7,4.2,1.1c1.3,0.5,3,1.3,3,2.9c-0.1,1.7-2.2,2.4-3.6,1.8c-3,0-13.5-2.8-15.6-5.9c-0.7-1.6,0.6-3.1,1.9-3.9
	c2-1.4,4.3-2.3,6.4-3.6c1.5-0.9,3-1.7,4.5-2.5C685.4,545.2,687,543.6,686.2,542.1"/>
<linearGradient id="path933_31_" gradientUnits="userSpaceOnUse" x1="648.3274" y1="1027.3445" x2="665.6191" y2="1040.95" gradientTransform="matrix(0.9035 0.3268 0.354 -0.9787 -315.8081 1343.3925)">
	<stop  offset="0" style="stop-color:#D3EEFF"/>
	<stop  offset="1" style="stop-color:#91C2FF"/>
</linearGradient>
<path id="path933_12_" class="st19" d="M643.7,541.2c-0.9-1.2-2.7-0.6-3.9-1.2c-1.9-0.4-4.2-1-4.9-3.1c-0.2-1.1,0.4-2.1,0.7-3
	c6.6,0.6,13.1,2.6,18.1,6.5c-0.4,2.7-2.9,4.4-5.2,5.6c-1.4,0.7-2.9,1.3-4.1,2.3c-2.1,1.2-4.7,1.9-6.4,3.7c-0.6,1.6,1.3,2.3,2.5,2.5
	c1.4,0.2,2.8,0.7,4.2,1.1c1.3,0.5,3,1.3,3,2.9c-0.1,1.7-2.2,2.4-3.6,1.8c-3,0-13.5-2.8-15.6-5.9c-0.7-1.6,0.6-3.1,1.9-3.9
	c2-1.4,4.3-2.3,6.4-3.6c1.5-0.9,3-1.7,4.5-2.5C642.8,544.3,644.5,542.7,643.7,541.2"/>
<linearGradient id="path933_32_" gradientUnits="userSpaceOnUse" x1="730.1901" y1="1033.2169" x2="765.6327" y2="1061.1038" gradientTransform="matrix(0.8923 0.3564 0.386 -0.9666 -335.2456 1304.6583)">
	<stop  offset="0" style="stop-color:#D3EEFF"/>
	<stop  offset="1" style="stop-color:#91C2FF"/>
</linearGradient>
<path id="path933_15_" class="st20" d="M736.3,549.3c-1.8-2.5-5.4-1.5-7.9-2.7c-3.8-0.9-8.6-2.4-9.7-6.6c-0.3-2.2,0.9-4.2,1.7-6.2
	c13.5,1.7,26.6,6.2,36.6,14.6c-1.1,5.5-6.2,8.9-11,11.1c-2.9,1.4-6,2.5-8.6,4.4c-4.5,2.4-9.7,3.5-13.5,7.2c-1.3,3.1,2.5,4.8,5,5.2
	c2.9,0.6,5.7,1.7,8.5,2.5c2.6,1,6,2.9,5.9,6.1c-0.4,3.4-4.6,4.8-7.5,3.5c-6.2-0.2-27.5-6.6-31.6-13.2c-1.3-3.3,1.5-6.3,4.1-7.9
	c4.2-2.8,9-4.4,13.4-6.9c3.1-1.7,6.2-3.3,9.5-4.8C734.3,555.7,737.7,552.4,736.3,549.3"/>
<linearGradient id="path933_33_" gradientUnits="userSpaceOnUse" x1="1001.7117" y1="1127.9227" x2="1037.1542" y2="1155.8094" gradientTransform="matrix(1.547 0.6178 0.5501 -1.3774 -1172.103 1525.1115)">
	<stop  offset="0" style="stop-color:#D3EEFF"/>
	<stop  offset="1" style="stop-color:#91C2FF"/>
</linearGradient>
<path id="path933_16_" class="st21" d="M1032.1,567.9c-3.3-3.8-9.3-2.7-13.7-4.9c-6.6-1.8-14.8-4.5-17.2-10.8
	c-0.8-3.3,1.1-6.1,2.2-8.9c23,3.9,45.6,11.9,63.4,25.3c-1.3,8-9.5,12.4-17.4,15.1c-4.8,1.7-9.8,3.1-14.1,5.5
	c-7.3,3.1-16.1,4.2-22,9.1c-1.8,4.5,4.8,7.3,9,8.2c5,1.1,9.8,3.1,14.7,4.5c4.5,1.8,10.4,4.9,10.7,9.6c-0.3,5-7.3,6.5-12.4,4.4
	c-10.6-0.9-47.2-12.6-54.8-22.8c-2.6-5,1.9-9,6.1-11.1c6.8-3.6,14.8-5.5,21.9-8.8c5.1-2.1,10.2-4.3,15.5-6
	C1029.4,577,1034.7,572.6,1032.1,567.9"/>
<linearGradient id="path933_34_" gradientUnits="userSpaceOnUse" x1="1224.229" y1="1150.1958" x2="1241.5208" y2="1163.8013" gradientTransform="matrix(1.2926 0.4675 0.571 -1.5787 -1027.3633 1872.7705)">
	<stop  offset="0" style="stop-color:#D3EEFF"/>
	<stop  offset="1" style="stop-color:#91C2FF"/>
</linearGradient>
<path id="path933_17_" class="st22" d="M1226.9,615.1c-1.3-1.8-3.8-0.8-5.6-1.7c-2.7-0.5-6.1-1.4-6.9-4.6c-0.2-1.7,0.7-3.3,1.2-4.9
	c9.5,0.6,18.8,3.4,25.9,9.4c-0.8,4.3-4.4,7.2-7.8,9.2c-2.1,1.2-4.2,2.3-6.1,3.9c-3.2,2.1-6.9,3.3-9.6,6.3c-0.9,2.5,1.8,3.6,3.5,3.8
	c2.1,0.3,4,1,6,1.4c1.8,0.7,4.2,1.9,4.2,4.4c-0.3,2.7-3.3,3.9-5.4,3.2c-4.4,0.2-19.5-3.6-22.3-8.5c-0.9-2.5,1.1-4.9,3-6.3
	c3-2.4,6.4-3.9,9.5-6.1c2.2-1.5,4.4-2.9,6.7-4.2C1225.4,620.2,1227.8,617.4,1226.9,615.1"/>
</svg>
