<?xml version="1.0" encoding="utf-8"?>
<!-- Generator: Adobe Illustrator 23.0.1, SVG Export Plug-In . SVG Version: 6.00 Build 0)  -->
<svg version="1.1" xmlns="http://www.w3.org/2000/svg" xmlns:xlink="http://www.w3.org/1999/xlink" x="0px" y="0px"
	 viewBox="0 0 1538 1659.6" style="enable-background:new 0 0 1538 1659.6;" xml:space="preserve">
<style type="text/css">
	.st0{fill:#2D1F1F;stroke:#2D1F1F;}
	.st1{fill:#A5663A;stroke:#A5663A;}
	.st2{fill:#8E5C3A;stroke:#8E5C3A;}
	.st3{fill:#99CC33;stroke:#99CC33;}
	.st4{fill:#FEFEFE;}
	.st5{fill:#FDFEFE;}
	.st6{fill:#7373BC;}
	.st7{fill:#543E36;}
	.st8{fill:#EFC7B0;}
	.st9{fill:#F9B282;}
	.st10{fill:#69311F;}
	.st11{fill:#313131;}
	.st12{fill:#B89BBA;}
	.st13{fill:#713C1A;}
	.st14{fill:#572000;}
	.st15{fill:#9ADAF7;}
	.st16{fill:#FDFEFE;stroke:#000000;stroke-miterlimit:10;}
</style>
<g id="Layer_1">
	<g>
		<g>
			<path class="st0" d="M610.9,707.5c43-26.7,92.6-43.3,143.4-45.4c43.2-1.6,87.1,3.9,127.5,19.8c30.5,12.2,58.9,31.3,78.7,57.8
				c17.7,23.1,27.5,51.2,32.9,79.6c5.8,31.2,11.2,62.7,10.8,94.6c0.2,15.1-0.7,30.3-1.9,45.4c-1.4,15.7-2,31.6-6.1,46.9
				c-8.6,42.2-24.7,82.4-36.5,123.8c-0.5,1.2-1,2.4-1.6,3.6c-2.6-24.5,1.1-49.2,3-73.6c2-17,4-34,5.7-51.1
				c1.6-17.6,3.7-35.3,2.2-52.9c-6.3-30.5-16.4-60.1-28.9-88.5c-1.8-4.2-3.8-8.6-8.1-10.8c-27.4-17.1-59.6-24.2-91.2-29.2
				c-32.3-4.9-65.1-6.3-97.7-5.2c-34.6,1.9-69.4,5.9-102.4,16.8c-12.6,4.4-25,9.7-35.8,17.6c-3.9,2.7-5.4,7.5-7.3,11.6
				c-12,27.2-21.6,55.5-27.9,84.5c-1.2,5.2-1.6,10.6-1.5,15.9c0.1,46.2,5.3,92.1,7.5,138.2c0.4,15.8,1.9,31.7,0,47.4
				c-0.2,1.2-0.7,2.2-1.4,3.2c-13.3-49.1-23-99.1-32.6-149c-1.4-8.7-2.9-17.5-4-26.3c-2.6-27.7-0.8-55.6,1.9-83.2
				c2.3-26.7,2-53.6,4.5-80.2c6.4-38.5,28.2-72.8,54.8-100.6C602.5,714.3,606.1,710.2,610.9,707.5z"/>
			<path class="st1" d="M743.1,822.2c32.6-1.1,65.4,0.3,97.7,5.2c31.6,5,63.7,12.1,91.2,29.2c4.3,2.2,6.3,6.6,8.1,10.8
				c12.6,28.4,22.6,58.1,28.9,88.5c1.5,17.7-0.7,35.4-2.2,52.9c-1.7,17.1-3.7,34.1-5.7,51.1c-1.9,24.5-5.6,49.1-3,73.6
				c0.6-1.2,1.1-2.4,1.6-3.6c11.8-41.4,27.9-81.6,36.5-123.8c0.3,0.5,0.7,1.5,1,2c7.9-0.1,15.9,2.4,21.6,8
				c11.5,10.7,15.7,27.1,15.7,42.3c0.5,25.5-10.1,49.6-23.6,70.7c-7.3,10.7-15.6,21.2-27,27.7c-4.2,2.5-9,3.3-13.8,3.8
				c-3.2,12.5-6,25.3-10.9,37.2c0.7-4.6,1.7-9,2.4-13.6c-4.1,4.1-6.9,9.1-10.4,13.7c-27.5,36.4-63,67.4-104.5,87
				c-11.6,5.2-24.4,9.3-37.3,7.4c-7.5-1.1-15.1-2.2-22.4-4.2c-6.6-1.8-12.2-6.8-19.3-6.5c-7.4-0.3-12.9,5.7-19.8,7.5
				c-9.3,2.5-19,3.6-28.5,3.5c-19.6-1.6-38.2-9-55.5-17.9c-34.6-18.4-65.2-44.4-89.2-75.4c-3.8-12.8-8-25.6-10.9-38.7
				c-15.7-4.2-26.7-17.1-35.6-29.9c-13.4-20.3-23.9-43.5-24.6-68.2c-0.4-14.7,2.4-30.4,11.8-42.2c6.2-7.8,16.2-13.1,26.3-11.7
				c9.6,49.9,19.3,99.9,32.6,149c0.7-1,1.2-2,1.4-3.2c2-15.8,0.5-31.6,0-47.4c-2.2-46.1-7.4-92-7.5-138.2
				c-0.1-5.3,0.3-10.7,1.5-15.9c6.3-29,15.9-57.3,27.9-84.5c1.9-4.1,3.3-8.9,7.3-11.6c10.8-7.9,23.2-13.2,35.8-17.6
				C673.7,828,708.5,824.1,743.1,822.2z"/>
			<path class="st0" d="M951.2,1197.8c3.4-4.6,6.3-9.6,10.4-13.7c-0.7,4.5-1.7,9-2.4,13.6c-3.1,13.7-8,26.9-14,39.6
				c-4,8.2-8.4,16.3-14.4,23.1c-18,22.6-40.2,41.5-64.3,57.2c-22.3,13.6-46.7,24.6-72.9,27.8c-18.6,2.8-37.7,2.2-56.2-1
				c-24.2-3.7-46-15.8-66-29.3c-20.1-14.8-40.6-29.5-57.8-47.7c-21.2-21.8-38.5-48.1-46.6-77.6c2.8,3,4.9,6.5,7.6,9.5
				c24,30.9,54.6,57,89.2,75.4c17.3,8.9,35.9,16.3,55.5,17.9c9.6,0.2,19.3-0.9,28.5-3.5c6.9-1.7,12.3-7.8,19.8-7.5
				c7.1-0.3,12.8,4.7,19.3,6.5c7.3,1.9,14.9,3.1,22.4,4.2c12.9,1.9,25.7-2.2,37.3-7.4C888.1,1265.2,923.7,1234.2,951.2,1197.8z"/>
			<path class="st2" d="M671.4,1315c20,13.5,41.8,25.6,66,29.3c18.5,3.3,37.6,3.8,56.2,1c26.1-3.2,50.6-14.2,72.9-27.8
				c1.3,9.9,0.7,19.9,1.4,29.9c-4.8,4.8-11,7.8-16.9,11c-20.6,9.8-42.2,18.1-64.7,22.3c-9.7,1.9-19.7,1.3-29.5,1.2
				c-13.7-1.2-27.2-4.8-40.2-9.1c-12.3-4.6-24.9-9-35.9-16.2c-3.6-2.3-7-4.8-10.6-6.9c-0.3-5.4,0-10.9,0.4-16.3
				C671,1327.4,670.3,1321.1,671.4,1315z"/>
			<path class="st1" d="M851.1,1358.6c5.9-3.3,12-6.2,16.9-11c0.3,10.2,1.7,20.3,3.3,30.4c1.7,11.8,8.7,23.5,20.1,28.1
				c9.2,3.3,18.5,6,27.7,9.1c-2.1,5.8-5.5,11.1-8.4,16.6c-12,21.9-25.1,43.2-39.6,63.5c-14.8,20.5-30.8,40.4-50.2,56.9
				c-13.2,11.2-28.6,21-46,23.7c-10.6,1.6-20.3-4.4-29.1-9.6c-20.1-13.3-37.2-30.6-53.4-48.3c-23.4-26.1-44.7-54.1-63.2-83.9
				c-3.6-6.2-7.7-12.2-10.2-18.9c8.9-3,17.9-5.6,26.8-8.7c10.5-3.7,17.8-13.5,20.2-24.1c2.2-10.7,3.1-21.6,4.2-32.4
				c3.6,2.2,7.1,4.7,10.6,6.9c11,7.2,23.6,11.6,35.9,16.2c13.1,4.3,26.5,7.9,40.2,9.1c9.8,0.1,19.8,0.7,29.5-1.2
				C808.9,1376.7,830.4,1368.4,851.1,1358.6z"/>
			<path class="st3" d="M464.7,1465c51.4-16.6,102.7-33.6,154.2-50c2.5,6.7,6.6,12.7,10.2,18.9c18.6,29.7,39.8,57.8,63.2,83.9
				c16.2,17.7,33.3,35,53.4,48.3c8.7,5.2,18.4,11.2,29.1,9.6c17.4-2.7,32.7-12.5,46-23.7c19.4-16.4,35.4-36.4,50.2-56.9
				c14.5-20.3,27.6-41.6,39.6-63.5c2.9-5.5,6.3-10.7,8.4-16.6c48.2,15.2,96.1,31.2,144.2,46.7c11.5,4.3,23.6,6.3,35.2,10.3
				c43.8,13.6,82,44.8,103,85.7c14.5,27.1,20.9,57.7,23.8,88.1c-4.8,0.9-9.7,0.6-14.5,0.6c-297.6,0-595.2,0-892.8,0
				c-1.7-0.1-3.4-0.3-5.1-0.6c2.8-26,7.7-52.1,18.5-76.1c17.6-41,51.3-75,92.6-92.1C437,1472,450.9,1468.6,464.7,1465z"/>
		</g>
		<path d="M611.6,1031.6c-2.9-4.6-3.1-9.8-3.5-15c0.5-13.2,4.6-25.1,13.8-34.6c16.3-16.8,35.9-22.1,58.4-15.3
			c14.3,4.4,26.2,12.5,34.2,25.4c4.5,7.2,6.9,15.3,6.6,23.8c-0.7,14.3-8.8,24.2-22.8,28.5c-5.7,1.8-11.5,2.9-17.5,2.2
			c-1.1,0.7-2.2,0.4-3.4,0.1c-10.7-2.5-18.1-8.9-21.7-19.2c-4.9-14.2-3.5-27.7,5.8-39.9c1.6-2.1,3.6-3.9,5.7-5.5
			c2.1-1.7,4.4-2.9,6.8-4.4c-3.8-1.2-7.7-1.4-11.5-1.3c-12.3,0.3-22.7,5.5-31.4,14c-6.4,6.2-9.8,14-11.5,22.7
			c-0.9,4.6-1.1,9.2-1.6,13.8c-0.2,1.7-0.1,3.5-1.7,4.7C614.9,1033,613.3,1033.1,611.6,1031.6"/>
		<path class="st4" d="M616.5,1031.5c1.3-3.6,1.2-7.5,1.5-11.3c1.3-21.5,14.8-38.1,35.5-43.5c7.5-2,15-1.4,22.9,0.7
			c-8.8,3.9-15,9.7-18.9,17.9c-6.5,13.5-4.2,32.2,5.3,42.4c4.9,5.3,11.1,7.9,18.1,8.8c0.2,0.1,0.5,0.2,0.6,0.4
			c0.5,0.8-0.4,0.4-0.5,0.4c-5,1.2-10,2.2-15,2.8c-8.8,1-17.6,1.3-26.3-0.8C629.2,1046.8,621.2,1041.3,616.5,1031.5"/>
		<path d="M634.9,924.8c-12.4-0.2-22.1,5-29.6,14.7c-1.8,2.4-3.3,5-5.5,7c-0.7,0.7-1.5,1.4-2.6,1c-1-0.4-1-1.4-1.1-2.3
			c-0.5-3.8,0-7.4,1.3-11c5.2-14.2,15.6-22.2,30.1-24.9c15.3-2.9,29.5,0.9,42.9,8.2c11.1,6,20.7,13.8,28.1,24.2c1.1,1.6,2,3.2,2.7,5
			c0.4,1,0.8,2.2,0,3c-0.7,0.8-1.9,0.4-2.8,0.1c-1.8-0.5-3.3-1.4-4.9-2.3c-11.2-6.4-22.1-13.3-34.2-17.9
			C651.4,926.9,643.4,924.9,634.9,924.8"/>
		<path class="st4" d="M668.1,1029.9c0-6.3,4.6-11.2,10.5-11.1c5.2,0,9.2,4.7,9.2,10.8c0,6.1-4.5,10.3-10.9,10.3
			C671.5,1039.9,668.1,1036.1,668.1,1029.9"/>
		<g>
			<g>
				<path d="M792,1033.2c-1.8-0.3-2-2-2.4-3.3c-2-6.2-2-12.5-0.7-18.8c4.8-24.8,26-44.8,51-48.4c17-2.4,32.8,0.4,46.6,10.9
					c9.3,7,16.4,15.6,19.2,27.4c3.9,16.5-2.6,31.3-17.7,39.1c-8.3,4.3-17.1,6.2-26.4,5.5c-1,0.4-2.1,0.4-3.1,0.1
					c-12.7-2.6-21.3-10-26.1-21.9c-2-4.9-3.1-10.1-3.1-15.3c0-9.6,2.7-18.5,9.3-25.8c3.2-3.5,6.7-6.7,11.4-8.7
					c-11.7,0.4-22.3,3.6-31.7,10.1c-12,8.1-19,19.6-22.6,33.5c-1.1,4.2-1.4,8.5-2,12.8C793.5,1031.5,793.6,1032.9,792,1033.2"/>
				<path class="st4" d="M792,1033.2c1.5-2.1,1.2-4.5,1.4-6.8c2.6-25.5,19.2-47,47.5-52.2c3.5-0.6,7-1,11.2-0.6
					c-9,4.1-15.2,10.1-19,18.6s-4,17.3-1.9,26.3c3.5,14.9,14.9,25.1,30.3,27.1c-1.9,1.5-4.3,1.2-6.5,1.5
					c-16.6,2.3-33.1,2.8-49.4-2.2c-4.1-1.3-7.8-3.2-10.8-6.4C793.5,1036.9,792.4,1035.3,792,1033.2"/>
			</g>
			<path class="st4" d="M869.7,1027.5c0,5.9-5.4,10.5-12.3,10.5c-5.9,0-10.4-4.8-10.5-11.2c-0.1-6.2,4.9-11.1,11.4-11.2
				C864.6,1015.6,869.7,1020.9,869.7,1027.5"/>
		</g>
		<path d="M872.1,926c12.4-0.2,22.1,5,29.6,14.7c1.8,2.4,3.3,5,5.5,7c0.7,0.7,1.5,1.4,2.6,1c1-0.4,1-1.4,1.1-2.3
			c0.5-3.8,0-7.4-1.3-11c-5.2-14.2-15.6-22.2-30.1-24.9c-15.3-2.9-29.5,0.9-42.9,8.2c-11.1,6-20.7,13.8-28.1,24.2
			c-1.1,1.6-2,3.2-2.7,5c-0.4,1-0.8,2.2,0,3c0.7,0.8,1.9,0.4,2.8,0.1c1.8-0.5,3.3-1.4,4.9-2.3c11.2-6.4,22.1-13.3,34.2-17.9
			C855.7,928.1,863.7,926.1,872.1,926"/>
		<path d="M742.5,1214.5c-11.4,0-21-0.2-30.4-2.7c-2.9-0.8-5.6-1.8-8.1-3.4c-1.6-1-2.7-2.4-2.3-4.5c0.5-2.1,2-2.7,3.9-3.1
			c6.1-1.1,12.3-0.5,18.4-0.6c47.1-0.5,92.5-10,136.5-26.7c3-1.1,5.9-2.4,9.2-2.7c1.6-0.2,3.1,0,4.1,1.5c1,1.6,0.6,3.2-0.3,4.7
			c-2.3,3.5-5.6,6-9.1,8.1c-13.8,8.5-29,13.2-44.4,17.7C794.1,1210.3,767.6,1213.9,742.5,1214.5"/>
		<path d="M730.4,1122.6c0-6.2,1.6-10.7,5.5-14.5c4-4,8.3-7.7,13.4-10c9.5-4.3,12.6-12.2,13.4-21.6c0.1-1.6,0.4-3.2,0.6-4.9
			c0.2-1.5,0.5-3.2,2.3-3.6c1.7-0.3,2.8,1,3.7,2.2c3.3,4.2,4.4,9.3,4.5,14.5c0.2,10.6-4.3,18.9-12.8,25.2c-3.8,2.8-7.7,5.3-11.4,8.2
			c-3.4,2.7-3.4,3.5-0.6,6.8c3.2,3.8,7.3,6.5,10.9,9.8c3.6,3.3,4.1,6,2,9.6c-1.2,2.1-3,2.9-5.3,2.8c-9.4-0.5-23.1-11.3-25.8-20.4
			C730.5,1124.9,730.4,1123.3,730.4,1122.6"/>
	</g>
	<g>
		<g>
			<path d="M658.3,639.3c-0.3-0.2-0.6-0.6-0.9-0.7c-2.2-0.6-3.9-2-5.2-3.8c-1-1.3-1.8-2.7-2.3-4.2c-0.1-0.3-0.1-0.5-0.2-0.8
				c0-0.2,0-0.5,0-0.7c-0.6-1.4,0-2.8,0.1-4.2c0-0.7,0.3-1.5,0.6-2.1c1.6-2.6,3.6-4.8,6.5-6.2c2.2-1.1,4.5-1.2,6.7-0.9
				c1.8,0.3,3.6,1.1,5.1,2.4c1.6,1.4,3,3,3.8,4.9c0.4,1,0.8,2,0.8,3.1c-0.1,1.8,0.2,3.7-0.6,5.4c-0.9,1.8-1.8,3.7-3.6,4.9
				c-0.9,0.6-1.6,1.4-2.6,1.8c-0.3,0.1-0.6,0.3-0.8,0.3c-0.6,0-0.9,0.3-1.2,0.8C662.3,639.3,660.3,639.3,658.3,639.3z M661.4,632.2
				c2.6-0.2,4.8-2.4,4.8-4.7c0-1.8-2.3-4.8-4.7-4.6c-2.3,0.1-4.9,2.4-4.8,4.5C656.8,629.4,658.8,632.2,661.4,632.2z"/>
			<path d="M916.9,304.3c1.7-0.6,3.2-1.1,4.7-1.6c0.9-0.3,1.8-0.8,2.8-1.1c0.9-0.3,1.7-0.5,2.6-0.7c1.1-0.2,2.3-0.2,3.3-0.7
				c1.6-0.7,3.4-0.2,4.9-1c0.2-0.1,0.5,0,0.8-0.1c1.4-0.1,2.7,0.1,4.1-0.4c0.4-0.2,1-0.1,1.5-0.1c4.3,0,8.5-0.1,12.8,0
				c2,0,4,0.2,6,0.7c1.3,0.3,2.6,0.2,3.8,0.9c0.9,0.5,2,0.5,3,0.7c0.7,0.2,1.4,0.3,2.1,0.6c1.9,0.7,3.7,1.5,5.5,2.2
				c2,0.8,4,1.4,5.9,2.4c2.5,1.4,5.1,2.5,7.4,4.3c1.1,0.9,2.4,1.6,3.5,2.4c1.1,0.7,2.2,1.4,3.2,2.3c4,3.3,7.9,6.7,11.1,10.8
				c1.1,1.4,2.2,2.7,3.2,4.1c1.2,1.6,2.4,3.4,3.4,5.1c1.2,2,2.3,4.1,3.4,6.1c0.5,0.8,0.8,1.7,1.3,2.6c0.2,0.4,0.5,0.8,0.7,1.1
				c2.3-0.3,4.4-0.7,6.5-0.9c3.7-0.2,7.5-0.3,11.2-0.4c1.9,0,3.8,0.1,5.6,0.2c0.9,0,1.8,0.2,2.7,0.2c2.2,0,4.4,0.3,6.5,1.1
				c0.8,0.3,1.8,0.4,2.6,0.6c1,0.2,2,0.5,2.9,1c0.6,0.3,1.3,0.5,2,0.7c2.6,0.8,5,1.9,7.3,3.1c3,1.6,5.9,3.4,8.8,5.3
				c5.2,3.5,9.7,7.7,13.8,12.3c2.3,2.7,4.5,5.5,6.3,8.5c1.6,2.7,3.3,5.4,4.5,8.4c0.6,1.6,1.5,3.1,2.1,4.7c0.5,1.4,0.8,2.9,1.3,4.3
				c0.3,1,0.7,2,1,3.1c0.2,0.9,0.5,1.8,0.6,2.6c0.3,1.7,0.5,3.3,0.7,5c0.1,0.5,0,1,0.1,1.5c0.9,4.1,0.4,8.3,0.4,12.5
				c0,1.6-0.3,3.2-0.5,4.8c-0.3,1.5-0.7,3-1,4.5c-0.2,1.1-0.4,2.3-0.7,3.5c-0.1,0.5-0.4,1-0.6,1.5c-0.4,1.3-0.7,2.5-1.2,3.8
				c-1.2,3.1-2.5,6.2-4.1,9.2c-0.9,1.6-1.8,3.3-2.8,4.8c-1.1,1.6-2.2,3.3-3.4,4.8c-1.5,2-3.1,4-4.8,5.8c-1.9,2-3.9,3.8-5.9,5.6
				c-1.4,1.3-2.9,2.6-4.5,3.7c-2.3,1.6-4.7,3.1-7.1,4.6c-1.7,1-3.5,2-5.4,2.8c-1.7,0.7-3.4,1.3-5.1,1.9c-1.4,0.5-2.8,1-4.2,1.4
				c-1.3,0.4-2.6,0.5-3.8,0.9c-1.7,0.6-3.4,0.5-5.1,0.9c-0.2,0.1-0.4,0.2-0.7,0.2c-4.5,0-9,1-13.6,0.5c-2-0.2-4-0.3-6-0.4
				c-1.2,0-1.4,0.2-1.5,1.4c-0.2,1.8-0.3,3.5-0.6,5.3c-0.4,2.2-1,4.3-1.5,6.5c-0.2,1.1-0.4,2.1-0.7,3.2c-0.2,0.9-0.5,1.8-0.8,2.7
				c-0.3,1-0.6,2.1-1,3.1c-0.5,1.4-1,2.8-1.5,4.1c-0.4,1.1-0.9,2.2-1.3,3.3c-0.6,1.5-1.2,3.1-1.9,4.6c-1.5,2.9-2.9,5.8-4.6,8.7
				c-1.6,2.7-3.4,5.3-5.1,7.8c-2,2.9-4.2,5.8-6.6,8.4c-2.7,2.9-5.5,5.8-8.4,8.6c-2,1.9-4.2,3.5-6.3,5.2c-2.6,2.2-5.4,4.1-8.3,5.9
				c-2.6,1.6-5.1,3.1-7.8,4.5c-3,1.6-6.2,2.9-9.3,4.3c-1.8,0.8-3.7,1.3-5.6,2c-0.8,0.3-1.7,0.7-2.5,0.9c-0.9,0.3-1.8,0.5-2.7,0.8
				c-1.1,0.3-2.3,0.7-3.4,1c-0.1,0-0.3,0.1-0.4,0.1c-2.3,0.4-4.6,0.6-6.8,1.2c-2.1,0.6-4.4,0.5-6.5,1c-1.1,0.2-2.2,0.1-3.3,0.2
				c-3.3,0.4-6.6,0.6-9.9,0.5c-1.9-0.1-3.8-0.2-5.8-0.3c-2-0.1-3.9-0.2-5.9-0.4c-1.3-0.1-2.6-0.2-4-0.4c-0.3,0-0.6-0.2-0.9-0.2
				c-0.3-0.1-0.6-0.3-0.9-0.3c-1.4-0.2-2.8-0.4-4.2-0.7c-1.1-0.2-2.2-0.6-3.3-0.9c-1-0.3-2.1-0.5-3.1-0.8c-1-0.3-1.9-0.6-2.9-0.9
				c-0.7-0.2-1.4-0.6-2.2-0.7c-2.5-0.5-4.8-1.6-7.1-2.5c-3.6-1.4-7-3.2-10.4-5c-2.2-1.2-4.2-2.6-6.2-4c-1.9-1.2-3.7-2.4-5.6-3.7
				c-0.5-0.3-0.8-0.3-1.3,0c-2.5,1.3-5.1,2.7-7.7,3.7c-2.3,1-4.5,2.2-6.8,3.2c-2.3,1-4.6,1.7-7,2.5c-2.1,0.7-4.1,1.4-6.2,2.1
				c-0.7,0.2-1.5,0.3-2.3,0.4c-1.9,0.3-3.9,0.6-5.8,0.9c-0.2,0-0.4,0-0.5,0c-4.5,0.8-9.1,0.6-13.7,0.6c-0.9,0-1.8,0-2.8,0
				c-1.2-0.1-2.5-0.2-3.7-0.4c-0.7-0.1-1.5-0.1-2.2-0.2c-0.8-0.1-1.6-0.3-2.4-0.5c-0.1,0-0.3-0.1-0.4-0.1c-1.4-0.2-2.8-0.3-4.2-0.6
				c-1.2-0.3-2.4-0.4-3.5-1c-0.7-0.4-1.5-0.5-2.3-0.6c-2.6-0.4-5-1.5-7.4-2.4c-2.8-1-5.4-2.6-8.2-3.8c-2.7-1.2-5.1-2.8-7.6-4.3
				c-1.3-0.8-2.3-1.8-3.6-2.6c-2.8-1.7-5.1-4-7.6-6.1c-2.2-1.9-4.4-4-6.2-6.4c-0.2-0.3-0.6-0.6-0.8-0.9c-1.7-2-3.4-4-4.9-6.2
				c-1.3-2-2.6-4-3.9-6c-1.6-2.6-2.9-5.3-4.3-8c-0.8-1.6-1.4-3.3-2-4.9c-0.5-1.3-1-2.6-1.5-3.9c-0.3-0.9-0.5-1.8-0.8-2.7
				c-0.2-0.8-0.5-1.6-0.7-2.4c-0.5-1.7-1.1-3.4-1.6-5.2c-0.1-0.5-0.4-0.8-0.9-0.8c-1.1,0.1-2.3,0.2-3.4,0.3
				c-0.7,0.1-1.4,0.3-2.2,0.3c-4.3,0-8.5,0.1-12.8,0.1c-1.6,0-3.1-0.1-4.6-0.5c-1.4-0.4-3-0.4-4.4-0.7c-0.9-0.2-1.8-0.4-2.6-0.7
				c-1.1-0.3-2.1-0.6-3.2-1c-1.1-0.4-2.2-0.9-3.3-1.4c-2.6-1-5.1-2.4-7.4-3.8c-2-1.2-3.8-2.6-5.6-4c-3.7-2.9-7-6.4-10.2-9.9
				c-1.6-1.7-2.7-3.8-4.1-5.6c-1.5-2-2.6-4.1-3.6-6.3c-0.5-1.1-1-2.2-1.5-3.3c-0.6-1.5-1.2-3-1.6-4.6c-0.5-1.9-1.2-3.8-1.4-5.8
				c-0.2-2.3-0.7-4.6-1.1-6.9c-0.1-0.7-0.1-1.5-0.1-2.2c0-2.6-0.2-5.2,0.4-7.8c0.2-0.8,0.2-1.7,0.2-2.6c0-0.5,0.1-0.9,0.1-1.4
				c0.3-1.9,0.6-3.8,1-5.7c0.4-1.7,0.9-3.3,1.4-4.9c0.5-1.4,0.9-2.9,1.5-4.3c0.5-1.2,1.1-2.4,1.7-3.6c1.9-4,4.5-7.5,7.4-10.7
				c2-2.2,4.1-4.2,6.2-6.3c0.8-0.8,1.8-1.5,2.7-2.2c1-0.8,2-1.6,3-2.4c1.5-1.1,3.1-2.2,4.7-3.2c1.6-1,3.3-2,5.1-2.7
				c1.8-0.7,2.3-1.8,2.4-3.6c0.1-1.4,0.6-2.7,0.9-4.1c0.3-1.2,0.5-2.4,0.7-3.6c0.2-0.8,0.4-1.6,0.7-2.4c0.4-1.2,0.7-2.3,1.1-3.5
				c0.7-1.8,1.5-3.7,2.4-5.5c1.4-2.7,2.8-5.4,4.4-8c1.3-2.1,2.8-3.9,4.3-5.9c2.2-3.1,5-5.6,7.8-8.2c1.5-1.4,3.2-2.6,4.8-3.9
				c1.4-1.1,2.9-2.2,4.4-3.1c2.6-1.6,5.3-3.2,8.1-4.3c2.2-0.9,4.3-1.8,6.5-2.7c0.8-0.3,1.6-0.5,2.5-0.7c1-0.3,2-0.7,3-1
				c0.3-0.1,0.6-0.1,0.9-0.1c0.6-0.1,1.1-0.3,1.7-0.4c0.3-0.1,0.6-0.1,0.9-0.1c0.8,0,1.7,0.1,2.4-0.5c0.1-0.1,0.4-0.1,0.5-0.1
				c3.8-0.3,7.7-0.8,11.5-0.6c2,0.1,1.9,0,2.1-1.9c0.2-2.2,0.3-4.4,0.6-6.5c0.2-1.2,0.5-2.4,0.8-3.6c0.3-1.2,0.6-2.5,0.9-3.7
				c0.3-0.9,0.6-1.9,0.9-2.8c0.3-0.9,0.6-1.9,0.9-2.8c0.4-1.2,0.9-2.3,1.4-3.5c0.6-1.5,1.3-2.9,2-4.3c1.3-2.4,2.6-4.7,4-7.1
				c0.9-1.6,1.9-3.1,2.9-4.7c0.5-0.8,1.1-1.6,1.8-2.4c1.4-1.7,2.8-3.4,4.2-5c1.9-2,3.7-4.1,5.7-5.9c1.7-1.6,3.6-3,5.4-4.6
				c2.5-2,5.1-3.8,7.8-5.5c2.8-1.8,5.8-3.4,8.8-4.9c1.8-0.9,3.6-1.8,5.5-2.5c1.5-0.6,3.1-1.3,4.7-1.7c1.9-0.4,3.7-1.3,5.6-1.3
				c2.3-1,4.9-0.5,7.3-0.9c2.4-0.4,4.9-0.2,7.3-0.2c4.9,0,9.7,0,14.6,0.1c2.1,0,4.1,0.2,6.2,0.5c1.3,0.2,2.5,0.6,3.8,1
				c1,0.2,1.9,0.4,2.9,0.7c0.7,0.2,1.5,0.4,2.2,0.7c2.3,0.9,4.7,1.8,7,2.9c3.4,1.5,6.6,3.3,9.8,5.1c1.5,0.9,2.9,1.9,4.3,3
				c2.1,1.5,4.2,3.1,6.2,4.7c1.3,1,2.5,2.2,3.7,3.4c2.3,2.4,4.7,4.7,6.9,7.3c1.7,1.9,3.1,4,4.6,6.1c1.5,2.2,2.8,4.5,4.3,6.7
				c1,1.6,1.7,3.4,2.6,5.1c1.2,2.4,2.3,4.9,3.5,7.3C916.3,304,916.6,304.1,916.9,304.3z M761.6,332.5c-0.6,0-1,0-1.4,0
				c-4.5,0-9.1,0-13.6,0c-0.6,0-1.4-0.1-1.9,0.1c-1.6,0.8-3.3,0.4-4.9,0.9c-1.6,0.5-3.3,0.7-4.9,1.2c-1.7,0.5-3.5,1-5.2,1.8
				c-2.5,1-4.9,2.2-7.2,3.4c-2.1,1.1-4,2.3-5.9,3.6c-1.8,1.2-3.5,2.5-5.1,3.9c-1.2,1-2.1,2.2-3.3,3.2c-2.8,2.6-5.2,5.5-7.3,8.6
				c-2.2,3.2-4,6.6-5.5,10.1c-0.7,1.6-1.4,3.2-1.9,4.8c-0.5,1.7-0.9,3.5-1.3,5.2c-0.4,1.8-0.7,3.6-1.1,5.5c0,0.2,0,0.4-0.1,0.5
				c-0.7,1.5-0.7,3.2-1,4.7c-0.1,0.7-0.4,1.2-1,1.5c-2.3,1.2-4.7,2.3-7.1,3.5c-2.5,1.2-4.7,2.7-6.9,4.3c-1.5,1.1-3,2.4-4.4,3.7
				c-2.2,2.1-4.5,4.3-6.5,6.6c-2.2,2.5-4.2,5.3-5.6,8.3c-1,2-1.9,4.1-2.5,6.3c-0.2,0.9-0.6,1.8-0.9,2.7c-0.3,1-0.6,2.1-0.8,3.2
				c-0.3,1.7-0.5,3.3-0.8,5c-0.1,0.9-0.3,1.9-0.3,2.9c-0.1,1.5-0.1,3-0.1,4.5c0,4.7,0.1,9.4,1.7,13.9c0.6,1.7,1,3.5,1.7,5.2
				c1,2.5,2.1,5,3.5,7.3c1.5,2.4,3.2,4.7,5.1,6.7c3.7,3.9,7.3,7.9,12,10.8c1.8,1.1,3.7,2.3,5.6,3.3c1.4,0.8,2.9,1.3,4.4,1.9
				c1.6,0.7,3.2,1.2,4.8,1.5c1.1,0.2,2.3,0.3,3.3,0.7c1,0.4,2,0.4,3.1,0.4c0.5,0,0.9,0,1.4,0.1c3.2,0.9,6.4,0.6,9.6,0.3
				c1.5-0.1,3.1-0.4,4.6-0.4c1.1,0,2.3-0.2,3.4-0.3c1.5-0.1,3.1-0.2,4.7-0.3c0.2,0,0.5,0.2,0.7,0.3c1.7,0.9,2.5,2.5,3.2,4.2
				c0.5,1.2,1.1,2.4,1.3,3.8c0.2,1,0.7,1.9,1,2.9c0.3,1,0.5,2.1,0.8,3.1c0.5,1.5,1,2.9,1.6,4.3c1,2.4,1.9,4.9,3,7.3
				c1.6,3.3,3.5,6.4,5.5,9.5c2,3.1,4.4,5.9,6.7,8.7c1.6,1.9,3.5,3.6,5.3,5.3c2.3,2.2,4.8,4.2,7.5,6c2.4,1.6,4.7,3.3,7.2,4.7
				c2.1,1.2,4.4,2.3,6.7,3.3c2.8,1.3,5.6,2.5,8.6,3.3c0.7,0.2,1.5,0.4,2.2,0.6c1.1,0.3,2.2,0.7,3.3,1c1.3,0.3,2.6,0.4,3.9,0.7
				c1.8,0.3,3.6,0.8,5.5,1c2.2,0.3,4.5,0.3,6.7,0.5c3.9,0.4,7.8-0.5,11.7-0.5c0.2,0,0.5-0.1,0.7-0.1c1.7-0.3,3.4-0.8,5.1-0.9
				c2-0.1,3.8-1,5.8-1.3c1.4-0.3,2.7-1.1,4.1-1.5c2.9-1,5.7-2.1,8.4-3.5c2.5-1.2,5.1-2.3,7.6-3.6c2-1,4-2,6-3
				c1.3-0.7,1.7-0.7,2.8,0.2c0.8,0.6,1.6,1.2,2.5,1.8c3.1,2,6.2,4,9.3,6c2.6,1.7,5.4,3.1,8.2,4.4c2,0.9,4,1.8,6,2.6
				c1.9,0.7,3.9,1.2,5.7,1.9c0.9,0.4,1.7,0.4,2.6,0.7c1,0.3,1.9,0.7,2.9,0.9c1.2,0.3,2.5,0.4,3.7,0.7c1.7,0.5,3.4,0.9,5.2,1
				c0.3,0,0.6,0,0.8,0.1c1.3,0.5,2.6,0.5,3.9,0.5c0.8,0,1.6,0.1,2.3,0.2c1,0.1,2.1,0.3,3.1,0.3c4,0,8.1,0,12.1,0
				c0.9,0,1.7-0.1,2.6-0.2c1-0.1,2.1-0.2,3.1-0.3c0.7-0.1,1.4-0.2,2.2-0.3c0.6-0.1,1.1-0.3,1.7-0.4c1.6-0.3,3.2-0.5,4.7-0.8
				c1.1-0.2,2.1-0.7,3.1-0.9c1.6-0.2,3.1-0.6,4.6-1.1c1.5-0.5,3-0.8,4.5-1.3c0.6-0.2,1.3-0.4,1.9-0.7c1.7-0.7,3.3-1.5,4.9-2.2
				c3.9-1.5,7.5-3.4,11.1-5.6c2.6-1.5,5-3.2,7.5-4.9c2.5-1.7,4.9-3.6,7.2-5.6c2.9-2.6,5.7-5.4,8.3-8.3c0.8-0.8,1.6-1.6,2.3-2.5
				c1.6-2.1,3.3-4.2,4.8-6.3c1.7-2.4,3.4-4.7,4.9-7.2c1.6-2.7,3-5.6,4.3-8.5c1.3-2.6,2.5-5.2,3.3-8c0.2-0.7,0.5-1.3,0.7-2
				c0.3-0.9,0.8-1.8,1-2.7c0.4-1.7,1.1-3.4,1.4-5.1c0.4-2.1,1.1-4.1,1.5-6.2c0.3-1.6,0.3-3.3,0.7-4.9c0.3-1.4,0.6-2.8,0.6-4.2
				c0-0.2,0.2-0.4,0.2-0.6c0.1-0.3,0.2-0.7,0.3-1c0.2-1.2,0.4-2.4,0.5-3.5c1.1,0,2,0,2.9,0c2.4,0.1,4.9,0.2,7.3,0.3
				c1,0,1.9,0.2,2.9,0.2c3,0,6,0.1,9,0c1.9-0.1,3.8-0.4,5.7-0.6c0.1,0,0.3-0.1,0.4-0.1c1.4-0.3,2.7-0.6,4.1-1
				c1.8-0.5,3.7-0.9,5.5-1.4c1.2-0.4,2.4-1.1,3.6-1.5c2.3-0.8,4.4-1.9,6.5-3.1c2.5-1.4,4.9-3,7.2-4.7c1.8-1.3,3.3-2.9,5-4.3
				c2.6-2.3,4.8-4.9,7-7.6c1.5-1.8,2.8-3.7,4-5.7c1.7-2.6,3.1-5.3,4.3-8.1c0.9-2.3,1.8-4.6,2.7-6.9c0.3-0.8,0.5-1.6,0.7-2.4
				c0.3-1.2,0.3-2.5,0.7-3.6c0.6-1.6,0.6-3.3,0.9-4.9c0.4-2.4,0.3-4.8,0.3-7.3c0-2.3-0.1-4.6-0.2-6.9c0-0.3,0-0.6-0.1-1
				c-0.3-1.5-0.8-3-1-4.5c-0.2-2-1-3.8-1.5-5.7c-0.4-1.5-0.9-2.9-1.5-4.3c-0.8-1.9-1.7-3.9-2.6-5.7c-0.9-1.7-1.9-3.4-3-5.1
				c-1-1.6-2-3.2-3.2-4.6c-1.8-2.1-3.5-4.3-5.5-6.2c-3-2.9-6-5.6-9.5-7.8c-1.8-1.2-3.6-2.3-5.4-3.4c-2.9-1.8-6.1-3.1-9.2-4.4
				c-0.6-0.2-1.2-0.5-1.9-0.6c-1-0.2-1.9-0.4-2.9-0.6c-1.3-0.3-2.5-0.8-3.8-1c-1.6-0.3-3.2-0.5-4.8-0.5c-4.1-0.1-8.3-0.1-12.4-0.1
				c-0.9,0-1.7,0.1-2.6,0.2c-1.1,0.1-2.3,0.2-3.4,0.3c-1.6,0.2-3.2,0.4-4.7,0.9c-1.6,0.5-2.9,0.1-4.1-0.7c-1.6-1-2.8-2.5-3.7-4.2
				c-1.8-3.4-3.4-6.8-5.4-10c-1.9-3-4.1-5.7-6.3-8.4c-1.6-1.9-3.4-3.5-5.2-5.2c-1.6-1.6-3.5-2.9-5.4-4.3c-2.2-1.7-4.4-3.2-6.8-4.5
				c-2.3-1.2-4.5-2.5-6.8-3.6c-1.7-0.8-3.4-1.3-5.2-2c-1.5-0.5-3-1.1-4.4-1.6c-0.8-0.3-1.7-0.6-2.5-0.6c-1.5-0.1-2.8-1-4.3-0.7
				c-0.1,0-0.3,0-0.4-0.1c-0.7-0.5-1.6-0.4-2.4-0.4c-0.8,0-1.6,0-2.3,0c-2.1-0.1-4.2-0.3-6.3-0.4c-0.8,0-1.6,0.2-2.4,0.3
				c-1.7,0.1-3.5,0.1-5.2,0.2c-0.4,0-0.9-0.1-1.2,0.1c-0.8,0.5-1.7,0.4-2.5,0.4c-0.5,0-1.1,0-1.6,0.1c-1.3,0.3-2.6,0.8-3.9,1
				c-1.9,0.3-3.7,1-5.6,1.7c-1.4,0.5-2.8,0.9-4.2,1.4c-0.7,0.2-1.5,0.4-2.2,0.6c-2.8,1.1-5.2,0.4-6.7-1.9c-1-1.4-1.9-2.9-2.7-4.5
				c-1.3-2.5-2.3-5.1-3.6-7.6c-1.3-2.7-2.8-5.2-4.5-7.7c-2-3-4.2-5.8-6.6-8.5c-2.2-2.4-4.3-4.8-6.9-6.8c-0.9-0.6-1.5-1.5-2.4-2.2
				c-1.2-0.9-2.4-1.8-3.6-2.7c-1.8-1.2-3.6-2.5-5.5-3.6c-1.9-1.1-4-2.2-6-3.1c-2.1-1-4.2-1.9-6.3-2.8c-1.2-0.5-2.4-0.8-3.6-1.3
				c-0.8-0.3-1.6-0.7-2.5-0.9c-1.4-0.3-2.9-0.4-4.3-0.6c-0.2,0-0.4,0-0.5-0.1c-1-0.6-2-0.5-3.1-0.5c-2.7,0-5.3,0-8,0
				c-5.4,0-10.7,0-16.1,0.1c-0.6,0-1.2,0.1-1.8,0.2c-0.7,0.1-1.3,0.3-2,0.4c-1.2,0.2-2.5,0.4-3.7,0.6c-0.1,0-0.2,0.1-0.2,0.1
				c-0.9,0.3-1.7,0.6-2.6,0.9c-1.3,0.4-2.6,0.8-3.8,1.3c-1.5,0.6-3,1.4-4.5,2.2c-1.7,0.8-3.5,1.6-5.1,2.5c-3.2,1.9-6.3,4-9.3,6.2
				c-2,1.5-3.9,3.2-5.8,4.8c-2.2,2-4.2,4.1-6.1,6.5c-1.4,1.7-2.9,3.3-4.1,5.1c-1.6,2.3-3.2,4.6-4.6,7c-1.4,2.4-2.5,4.8-3.6,7.3
				c-0.7,1.6-1.3,3.3-1.9,5c-0.5,1.4-1.1,2.9-1.5,4.3c-0.5,2.1-0.8,4.3-1.2,6.4c-0.1,0.3-0.1,0.5-0.2,0.8c-0.1,0.7-0.3,1.3-0.4,2
				c-0.2,2.5-0.4,5.1-0.7,7.6c0,0.1-0.1,0.3-0.1,0.4c-0.1,0.9-0.3,1.7-0.4,2.6C761.6,331.5,761.6,331.9,761.6,332.5z"/>
			<path d="M754.8,574.2c0,0.9,0.1,1.8,0,2.8c-0.1,0.7-0.3,1.3-0.4,2c0,0.2-0.1,0.4-0.1,0.7c-0.2,2.6-1.2,5-2.5,7.2
				c-1.7,3.2-4,6-6.8,8.3c-2.2,1.8-4.5,3.4-7.2,4.4c-1.4,0.5-2.7,1.2-4,1.5c-1.4,0.4-2.9,0.6-4.4,0.7c-1.1,0.1-2.3,0-3.4,0
				c-2.8,0.1-5.3-0.7-8-1.5c-2.4-0.8-4.6-1.9-6.6-3.4c-2.2-1.7-4.5-3.4-6.1-5.9c-1.3-1.9-2.6-3.7-3.5-5.8c-0.7-1.5-1.3-3-1.6-4.7
				c-0.6-2.7-1.3-5.3-1-8.1c0.2-1.8,0.6-3.5,1-5.3c0.4-2.2,1.3-4.2,2.4-6.1c1.5-2.7,3.2-5.2,5.6-7.1c1.2-1,2.4-2,3.6-3
				c1.5-1.2,3.2-2,5-2.6c1.5-0.5,2.9-1.1,4.4-1.6c0,0,0.1,0,0.1,0c2.9-0.4,5.9-1.1,8.8-0.5c1.9,0.4,3.9,0.7,5.8,1.4
				c2.4,0.8,4.7,1.9,6.7,3.4c2.3,1.6,4.6,3.3,6.1,5.8c0.8,1.3,2,2.5,2.7,3.9c1,1.9,1.9,3.9,2.5,6.1
				C754.5,569.2,754.9,571.7,754.8,574.2z M706.6,573.7C706.6,573.7,706.6,573.7,706.6,573.7c0.1,1.2-0.1,2.5,0.2,3.7
				c0.4,1.5,0.9,3,1.5,4.5c0.9,2.1,2.1,3.8,3.4,5.5c1.6,2.1,3.9,3.5,6.1,4.8c1,0.6,2.1,1.1,3.2,1.4c1.7,0.5,3.4,0.7,5.2,1
				c0.4,0.1,0.9,0,1.4,0c0.9-0.1,1.7-0.3,2.5-0.4c0.4-0.1,0.8,0,1.1-0.1c1.6-0.5,3.2-1,4.7-1.8c1.4-0.7,2.9-1.5,4.1-2.6
				c2.2-1.8,4.1-3.9,5.4-6.5c1-2,2-4,2-6.3c0-0.4,0.2-0.7,0.2-1.1c0.1-0.8,0.2-1.6,0.2-2.4c-0.1-1.1-0.3-2.2-0.4-3.2
				c0-0.2,0-0.5-0.1-0.7c-0.5-1.3-1.1-2.6-1.5-4c-0.6-2-2-3.5-3.2-5.1c-1.2-1.7-2.9-2.8-4.6-3.9c-1.2-0.8-2.6-1.5-4.1-2
				c-0.8-0.3-1.7-0.2-2.5-0.6c-0.8-0.4-1.6-0.4-2.4-0.4c-2.1,0.1-4.3-0.2-6.4,0.4c-1,0.3-2,0.5-2.9,0.9c-1.4,0.6-2.6,1.4-3.9,2.2
				c-2.1,1.2-3.7,3-5.1,4.9c-1.4,1.7-2.4,3.7-3.1,5.8c-0.5,1.5-1.1,3-0.9,4.6C706.6,572.8,706.6,573.3,706.6,573.7z"/>
			<path d="M705,606.4c-0.1,1,0.1,2.2-0.2,3.3c-0.4,1.5-0.9,3-1.6,4.4c-0.8,1.5-1.7,3-3,4.2c-1.5,1.4-3,2.6-4.9,3.5
				c-2.4,1.2-4.8,1.9-7.5,1.7c-0.6,0-1.2-0.1-1.8,0c-1.4,0.2-2.6-0.3-3.8-0.7c-1.5-0.5-3-1.2-4.3-2.1c-1.5-1-2.9-2.1-4-3.6
				c-1.1-1.5-1.9-3.2-2.7-4.8c-0.4-0.8-0.6-1.7-0.6-2.6c-0.1-2.2-0.3-4.5,0-6.7c0.3-2.3,1.2-4.4,2.4-6.3c1.7-2.7,4-4.7,6.9-6.1
				c1.6-0.7,3.2-1.5,5-1.5c0.9,0,1.8-0.4,2.7-0.4c1.8,0,3.5,0.5,5.3,0.9c3.3,0.9,6,2.7,8.2,5.3c1.2,1.5,2.1,3.1,2.8,5
				C704.6,602,705,604.1,705,606.4z M697.9,606.4c-0.6-6-3.7-10.1-9.8-10.4c-6.7-0.3-10.4,4.3-10.7,10c-0.1,2.9,0.9,5.6,2.9,7.7
				c1.9,1.9,4.5,2.5,7.1,2.9C693,616.1,697.3,612.4,697.9,606.4z"/>
		</g>
	</g>
	<g>
		<g>
			<path class="st5" d="M877.5,503.7c-4.7,0-9.4,0-14.1,0c0.1-3.4-0.6-6.8-1-10.1c-0.9-8.2-2-16.4-3-24.6
				c-0.8-6.4-1.6-12.8-2.5-19.2c1.1-0.6,2.4-0.8,3.7-0.9c0.5,0.2,1.1,0.2,1.6-0.1c0.5,0,1.1,0,1.6,0c-0.4,4.3,2.9,7,6.4,6.6
				c3.2-0.4,5.3-2.3,5.4-6.6c0.5,0,1,0,1.6,0c0.2,0.3,0.5,0.3,0.7,0c1.5,0.1,2.9,0.3,4.3,0.9c-0.4,4.9-0.7,9.9-1.1,14.8
				c-0.8,9.5-1.6,19-2.4,28.6C878.3,496.6,877.9,500.2,877.5,503.7z"/>
			<path class="st6" d="M856.9,449.8c0.8,6.4,1.7,12.8,2.5,19.2c1,8.2,2.1,16.4,3,24.6c0.4,3.4,1.1,6.7,1,10.1c-7.8,0-15.6,0-23.3,0
				c0-1.4,0-2.8,0.1-4.2c0.6-6.8,1.2-13.6,1.8-20.4c1.1-6.2,1.6-12.5,3.8-18.4C847.7,455.4,851.4,451.6,856.9,449.8z"/>
			<path class="st6" d="M877.5,503.7c0.4-3.6,0.8-7.2,1.2-10.7c0.8-9.5,1.6-19,2.4-28.6c0.4-4.9,0.7-9.9,1.1-14.8
				c2.1,0.3,3.7,1.4,5.4,2.5c2.7,1.8,4.2,4.6,6,7.1c0,0.7,0.1,1.4,0.4,2.1c1.9,4.5,2.3,9.4,3.1,14.1c0.5,3.1,0.9,6.2,1.1,9.3
				c0.5,6.3,1.5,12.6,1.4,18.9C892.2,503.7,884.9,503.7,877.5,503.7z"/>
			<path class="st7" d="M901.1,414.8c-0.5-5.4-1.3-10.6-4.3-15.3c-4.4-6.7-10.6-11.1-18.2-13.4c-10.7-3.3-20.7-2.1-29,6.2
				c-0.4,0.4-0.9,0.8-1.5,1c-1.5,0.5-2.7,1.5-3.7,2.7c-2.4,2.8-3.5,6.1-4.5,9.5c-1.7,5.9-0.4,11.7,0.3,17.5
				c0.6,5.2,1.5,10.4,2.1,15.6c1.5,0.5,2.9,1.1,4.4,1.4c2.2,0.5,4.4-0.1,6.6,0.1c0.1,0,0.3,0,0.4,0.1c0.2,0,0.4,0,0.5,0.1
				c-4.3-3.5-7.5-8.1-9.6-13.6c-0.3-0.6-0.4-1.3-0.3-2c1-7.2,2.9-14,7.7-19.8c1-1.2,1.7-1.3,3.1-0.5c7.5,4.4,15.6,7.4,24,9.6
				c0.2,0.8-0.9,0.3-1,1c2-0.1,3.7,0.6,5.4,1.7c0.7-0.8-0.6-1-0.2-1.7c4.2,0.7,8.4,1.5,12.6,1.7c0.9,0,1.1,0.6,1.3,1.3
				c0.6,2,0.7,4.1,0.1,6.1c-1.9,6.3-5,11.5-9.5,15.4c2.3-1.2,4.8-1.6,7.3-2.1c2.1-0.4,4.2-1,6.3-1.2c0.1-0.1,0.1-0.2,0.2-0.3
				C901.5,428.9,901.8,421.8,901.1,414.8z"/>
			<path class="st8" d="M863.7,448.8c0-0.1,0-0.3,0.1-0.4c0.4-2.3-0.4-3.5-2.8-4.5c-8.4-3.3-13.8-9.6-17.1-17.9
				c-0.3-0.6-0.4-1.3-0.3-2c1-7.2,2.9-14,7.7-19.8c1-1.2,1.7-1.3,3.1-0.5c7.5,4.4,15.6,7.4,24,9.6c0.2,0.8-0.9,0.3-1,1
				c2-0.1,3.7,0.6,5.4,1.7c0.7-0.8-0.6-1-0.2-1.7c4.2,0.7,8.4,1.5,12.6,1.7c0.9,0,1.1,0.6,1.3,1.3c0.6,2,0.7,4.1,0.1,6.1
				c-3.2,10.6-9.7,18-20.4,21.5c-1.3,0.4-1.6,1.9-0.6,3.9c-0.1,4.3-2.3,6.3-5.4,6.6C866.7,455.8,863.4,453,863.7,448.8z
				 M862.1,418.6L862.1,418.6c-1-1-2.2-1.3-3.5-0.6c-1.2,0.7-1.7,1.7-1.5,3c0.2,1.3,1.1,2.1,2.4,2.4c1.2,0.3,2.2-0.2,2.9-1.2
				C863.3,421,863,419.8,862.1,418.6z M880.7,418.4L880.7,418.4c-2.2-1.2-4.3-0.7-4.8,1.4c-0.3,1.5,0.1,2.8,1.6,3.5
				c1.3,0.6,2.6,0.3,3.4-0.7C881.9,421.2,882,419.7,880.7,418.4z M869.4,432.6C869.4,432.6,869.4,432.6,869.4,432.6
				c-2.3,0-4.7,0-7,0c-1.3,0-1.5,0.6-1.2,1.6c0.9,3.6,4.3,6,8.5,6c3.9-0.1,7.1-2.7,7.9-6.2c0.3-1.2-0.1-1.4-1.1-1.4
				C874,432.6,871.7,432.6,869.4,432.6z M861.8,414.4c-3.2-1.2-5.3-0.6-6.7,2.2C857.2,415.1,859.3,414,861.8,414.4z"/>
			<path class="st9" d="M860.6,448.9c0.5-0.3,1-0.3,1.6-0.1C861.6,449.1,861.1,449,860.6,448.9z"/>
			<path class="st9" d="M877.1,448.8c0.2,0,0.5,0,0.7,0C877.6,449,877.3,449.1,877.1,448.8z"/>
			<path class="st10" d="M869.4,432.6c2.3,0,4.7,0,7,0c1,0,1.4,0.2,1.1,1.4c-0.8,3.5-4,6.1-7.9,6.2c-4.2,0.1-7.6-2.4-8.5-6
				c-0.3-1.1,0-1.7,1.2-1.6C864.7,432.6,867,432.6,869.4,432.6C869.4,432.6,869.4,432.6,869.4,432.6z"/>
			<path class="st10" d="M880.7,418.4c1.3,1.3,1.3,2.8,0.2,4.1c-0.8,1.1-2.1,1.4-3.4,0.7c-1.5-0.7-1.9-2-1.6-3.5
				C876.4,417.7,878.4,417.2,880.7,418.4c-0.2,0-0.4,0.1-0.6,0c-0.9-0.1-1.6,0.1-1.6,1.2c0,0.6,0.5,1,1,1c1.1,0,1.3-0.7,1.1-1.6
				C880.6,418.8,880.7,418.6,880.7,418.4z"/>
			<path class="st10" d="M862.1,418.6c0.9,1.2,1.2,2.4,0.3,3.6c-0.7,1-1.7,1.5-2.9,1.2c-1.3-0.3-2.1-1.1-2.4-2.4
				c-0.2-1.3,0.3-2.4,1.5-3C859.9,417.3,861.1,417.6,862.1,418.6c-0.1,0-0.2,0-0.3-0.1c-0.8-0.3-1.6-0.3-1.9,0.7
				c-0.2,0.8,0.3,1.3,1,1.4c1.1,0,1.2-0.8,1.1-1.6C861.9,418.9,862,418.8,862.1,418.6z"/>
			<path class="st10" d="M861.8,414.4c-2.5-0.4-4.6,0.7-6.7,2.2C856.5,413.8,858.5,413.2,861.8,414.4z"/>
			<path class="st5" d="M862.1,418.6c-0.1,0.1-0.2,0.2-0.1,0.4c0.1,0.9,0,1.7-1.1,1.6c-0.7,0-1.2-0.6-1-1.4c0.3-1,1.1-1,1.9-0.7
				C861.9,418.6,862,418.6,862.1,418.6C862.1,418.7,862.1,418.6,862.1,418.6z"/>
			<path class="st5" d="M880.7,418.4c0,0.2,0,0.4,0,0.6c0.2,0.9,0,1.6-1.1,1.6c-0.6,0-1-0.4-1-1c0-1.1,0.6-1.3,1.6-1.2
				C880.3,418.5,880.5,418.4,880.7,418.4C880.7,418.4,880.7,418.4,880.7,418.4z"/>
		</g>
		<g>
			<path class="st11" d="M941.8,463.5c0.5,0.1,0.9-0.1,1.2-0.3c3.4-0.4,6.7-0.5,10.1,0.3c0,0.3-0.1,0.5-0.1,0.8
				c0.2,5.3,1.1,10.6,1,16c0,0.7,0.1,1.8,0.8,2.4c1.8,1.6,3.6,3.2,5.8,4.3c1.4,0.7,2.3,0.1,2.8-1.2c0.4-1.1,0.7-2.3,1-3.5
				c1.5-5.7,3.5-11.4,4.8-17.2c4.3,0,8.2,1.1,11.6,3.7c4.1,3.1,5,6,3.3,10.9c-0.7,1.9-1.7,3.6-2.6,5.4c-0.5,0.7-0.3,1.4-0.4,2.1
				c-1.3,12.3-2.6,24.7-3.9,37c-14.8-1.5-29.6-3.1-44.4-4.6c1.1-10.8,2.2-21.5,3.4-32.8c-2.3,2.4-4.1,4.3-6,6.1
				c-2.9,2.8-6,5.3-9.3,7.5c-3.9,1.3-4.3,1.1-6.5-2.3c-0.4-0.6-0.7-1.1-1-1.7c-4.4-8.5-7.5-17.4-10.7-26.4c-0.3-0.8-0.5-1.4,0.5-1.8
				c2.5-1,4.9-2.1,7.2-3.4c0.3,0.6,0.7,1.3,1,1.9c2.2,5.5,4.4,11.1,6.7,16.6c0.5,1.1,0.7,3.1,1.7,3.2c1.1,0.1,1.8-1.7,2.5-2.8
				c3.2-3.9,6.5-7.7,9.7-11.6c1.6-0.1,2.4,1.3,3.5,2.1c2.7,1.7,2.6,1.8,4.9-0.4c2.6-2.7,2-5.8-1.4-7.3c-0.3-0.2-0.5-0.4-0.5-0.8
				C939.4,464.9,940.6,464.2,941.8,463.5z M956.3,508.7c0.1,0,0.2,0,0.3,0c0.3-1.2,0.5-2.5,1-3.6c1.3-2.6,0.4-4.2-2.1-5.5
				C955.9,502.8,956.1,505.7,956.3,508.7z"/>
			<path class="st10" d="M981.4,485c-1.3,12.3-2.5,24.5-3.8,36.8c-0.1,0.8-0.1,1.6-0.1,2.4c-0.1,0-0.3,0-0.4,0
				c1.3-12.3,2.6-24.7,3.9-37C981.1,486.4,981,485.7,981.4,485z"/>
			<path class="st10" d="M938.4,402.3c-0.1-2.9-1-5.7-0.6-8.7c1.6,0.5,3,1.4,4.6,1.6c0.3,0.1,0.6,0.3,0.9,0.4
				c5.4,1.8,11,2.1,16.7,2.3c10,0.4,19.8,2.4,29.1,6.1c1.3,0.5,2.7,1.2,3.5,2.5c1.3,2.2,2.4,4.5,2.8,7c1.1,6.9,1.6,13.8-0.1,20.7
				c-1.9,4.5-4.4,8.7-6.6,13c-0.2,0.1-0.5,0.2-0.7,0.3c-1.5-3.9-3-7.7-4.5-11.6c-0.9-2.4-2.5-4.2-4.8-5.4c-3.8-2-8-3-12.2-4
				c-8.6-2-16.4-5.4-22.2-12.4c-0.8-0.9-1.2-0.6-1.9,0.1c-4,3.9-6.6,8.6-7.3,14.2c-0.3,2.2-0.1,4.4-0.7,6.6
				c-1.8-5.3-2.8-10.7-3.5-16.2c-0.4-3.6,1-6.4,3.8-8.5c1.5-1,3.4-1.6,4.4-3c1.1-1.5-0.4-3.3-0.6-5
				C938.5,402.4,938.4,402.3,938.4,402.3z"/>
			<path class="st9" d="M934.4,435.2c0.6-2.2,0.4-4.4,0.7-6.6c0.8-5.6,3.3-10.3,7.3-14.2c0.7-0.6,1.1-1,1.9-0.1
				c5.8,7,13.6,10.4,22.2,12.4c4.2,1,8.3,2,12.2,4c2.3,1.2,3.9,2.9,4.8,5.4c1.5,3.9,3,7.7,4.5,11.6c-0.8,1.8-2.6,2.7-3.7,4.2
				c-1,1.5-2.9,2.1-3.8,3.8c0,0,0,0,0,0c-0.8-0.1-1.2,0.3-1.3,1.1c-2,1.5-4.5,2-6.5,3.6c-1.3,0-2.5,0.7-3.7,1.1
				c-1.8,0.5-2.2,1.7-1.6,3.4c-0.6,0.3-0.4,0.9-0.5,1.4c-0.7,2.7-3.4,4.9-6.1,4.9c-4-0.1-6.3-2.8-6.3-7.6c0.2-0.8,0.6-2.1-0.4-2.2
				c-2.3-0.3-4.1-1.7-6.1-2.4c-3.3-1.9-5.8-4.8-7.9-7.7c-2.4-3.5-3.9-7.7-4.7-11.9C935.1,437.9,934.8,436.5,934.4,435.2z
				 M949.7,438.1c2-1.2,2.3-2.3,1.2-4.4c-1-1.5-2.3-1.2-3.7-0.8c-0.2,0.1-0.3,0.2-0.5,0.3c-1.9,0.7-1.7,2.2-1.2,3.5
				C946.2,438.2,947.7,438.7,949.7,438.1L949.7,438.1z M967,434.9c-1.7,0.8-2.2,2.3-1.4,3.9c0.8,1.5,2.8,2.2,4.3,1.3
				c1.5-0.9,2-2.9,1.1-4.4C970,434.2,968.5,433.9,967,434.9L967,434.9z M951.7,449c1.5,1.6,2.2,3.3,2.4,5.2c0.2,1.7,1.3,2.3,2.8,2.1
				c3.6-0.4,6.7-1.9,9.1-4.5c0.3-0.3,0.8-0.7,0.6-1.2c-0.3-0.7-0.9-0.5-1.4-0.4C960.8,450.6,956.5,449.6,951.7,449z M943.8,430
				c2.5-0.6,4.8-1.9,7.5-1C948.6,427.3,946.7,427.5,943.8,430z M966.7,430.5c3.2-0.3,5.4,1.5,7.5,3.5
				C972.9,430.7,971.6,430.1,966.7,430.5z"/>
			<path class="st9" d="M898.5,447.2c2,0.6,1.6,2.7,2.2,4.1c0.7,1.7,1.8,3.2,2.6,4.8c0.5,1,1.2,0.9,1.6-0.3c0.2-0.6,0.3-1.3,0.9-1.7
				c0.1,0,0.3,0,0.4,0.1c1,0.5,1.5,1.3,1.6,2.5c0.1,1.5,0.4,3,1.3,4.1c1,1.3,1,2.7,1.1,4.2c-2.3,1.3-4.8,2.3-7.2,3.4
				c-1.3-3.8-3.6-7.3-4.6-11.3c-0.2-0.9-0.5-1.7-1.5-1.9c0.1-1.1,0.1-2.2,0.2-3.3C897.2,450,897.4,448.4,898.5,447.2z"/>
			<path class="st9" d="M938.3,465.6c0,0.4,0.2,0.6,0.5,0.8c3.4,1.5,4,4.6,1.4,7.3c-2.2,2.3-2.2,2.2-4.9,0.4
				c-1.1-0.7-1.9-2.2-3.5-2.1c-1.2-2.2-3.5-3.3-5.3-4.9c-1.8-1.5-2.8-3.4-3.1-5.7c-0.1-0.6-0.2-1.5,0.6-1.7c0.8-0.2,1.5,0.1,1.8,0.9
				c0.2,0.6,0.6,0.9,1.2,0.9c1.1,2.2,3.4,2.8,5.2,4c0.8,0.6,1.4-0.3,1.2-1.1c-0.4-1.7,0.4-2.2,1.9-2.2c0,0.1,0.1,0.2,0.2,0.2
				C935.6,464.2,936.9,464.9,938.3,465.6z"/>
			<path class="st9" d="M995.2,434.4c3.6,1.5,4.8,4.5,3.1,7.9c-0.3,0.6-0.4,1.3-0.5,1.9c-1.7,1.6-3.5,3.1-5.9,3.6
				c-1.1-0.2-2.1-0.4-3.3-0.3C990.9,443,993.4,438.9,995.2,434.4z"/>
			<path class="st5" d="M953,463.4c0.5,0,1,0.1,1.5,0.1c0,4.8,2.3,7.5,6.3,7.6c2.7,0,5.4-2.2,6.1-4.9c0.1-0.5,0-1.1,0.5-1.4
				c0.5,0.1,1.1,0.1,1.6,0.2c-1.3,5.8-3.2,11.5-4.8,17.2c-0.3,1.2-0.6,2.3-1,3.5c-0.5,1.4-1.4,1.9-2.8,1.2c-2.2-1.1-4-2.7-5.8-4.3
				c-0.7-0.6-0.8-1.7-0.8-2.4c0.1-5.4-0.8-10.7-1-16C952.9,464,953,463.7,953,463.4z"/>
			<path class="st5" d="M956.3,508.7c-0.2-3-0.5-6-0.7-9.1c2.4,1.3,3.4,2.9,2.1,5.5c-0.6,1.1-0.7,2.4-1,3.6
				C956.6,508.7,956.5,508.7,956.3,508.7z"/>
			<path class="st10" d="M951.7,449c4.7,0.6,9.1,1.6,13.5,1.2c0.5,0,1.1-0.3,1.4,0.4c0.2,0.5-0.3,0.9-0.6,1.2
				c-2.5,2.7-5.5,4.2-9.1,4.5c-1.5,0.2-2.6-0.4-2.8-2.1C953.9,452.3,953.2,450.6,951.7,449z"/>
			<path class="st11" d="M967,434.9c1.5-1,3.1-0.7,4,0.8c0.9,1.5,0.4,3.5-1.1,4.4c-1.5,0.8-3.6,0.2-4.3-1.3
				C964.7,437.2,965.3,435.7,967,434.9c-0.6,0.7-1.1,1.4-0.1,2.2c0.6,0.5,1.4,0.4,1.7-0.3C969.2,435.3,968.2,434.9,967,434.9z"/>
			<path class="st11" d="M947.3,432.8c1.4-0.4,2.7-0.7,3.7,0.8c-0.1,1.6-0.8,3-1.2,4.4c0,0,0,0,0,0c-0.9-0.2-1.9-0.3-2.7-1.1
				c-0.7-0.7-1.3-1.2-0.1-2c0.9,0.5,1.8,0.4,2.1-0.7C949.2,433.2,948.2,432.9,947.3,432.8z"/>
			<path class="st10" d="M943.8,430c2.9-2.5,4.8-2.8,7.5-1C948.6,428.1,946.2,429.4,943.8,430z"/>
			<path class="st10" d="M966.7,430.5c4.9-0.4,6.3,0.2,7.5,3.5C972.1,432,969.9,430.2,966.7,430.5z"/>
			<path class="st10" d="M946.9,435c-1.2,0.8-0.5,1.3,0.1,2c0.8,0.8,1.7,0.8,2.7,1.1c-2,0.6-3.5,0.2-4.1-1.4
				c-0.5-1.4-0.7-2.9,1.2-3.5C946.7,433.7,946.5,434.4,946.9,435z"/>
			<path class="st5" d="M946.9,435c-0.4-0.6-0.2-1.3-0.1-1.9c0.2-0.1,0.3-0.2,0.5-0.3c0.9,0.1,1.9,0.4,1.6,1.5
				C948.7,435.5,947.8,435.5,946.9,435z"/>
			<path class="st10" d="M949.7,438.1c0.4-1.5,1.1-2.9,1.2-4.4C952,435.8,951.7,436.9,949.7,438.1z"/>
			<path class="st5" d="M967,434.9c1.2,0,2.2,0.3,1.6,1.9c-0.3,0.7-1,0.9-1.7,0.3C965.9,436.3,966.4,435.6,967,434.9
				C967,434.9,967,434.9,967,434.9z"/>
		</g>
		<path class="st12" d="M796.5,459.2c3.8,1,7.6,1.9,10.3,4.9c2.4,2.7,4.8,5.4,7.2,8c1.1,1.2,2.1,2.6,3.6,3.4
			c0.3,1.2,1.2,2.3,2.2,2.4c1,0.1,1.2-1.4,1.7-2.2c2.6-4.8,4.7-9.7,6-15c0.2-0.8,0.4-1.4,1.4-1.3c2.1,0.9,4.4,1.3,6.6,2
			c0.8,1,0.2,1.9-0.2,2.8c-3,7.4-5.6,14.8-9.7,21.7c-2.3,3.8-3.7,4.2-7.1,2.4c-0.2-0.1-0.5-0.1-0.8-0.1c-5.4-3.3-10.5-7-15.6-11.6
			c0.3,1.4,0.4,2.2,0.6,3c1.2,11.1,2.3,22.2,3.5,33.3c-14,1.5-28,3-42,4.5c-1-9-2-17.9-3-26.9c-0.1-0.8-0.2-1.5-0.2-2.3
			c-0.6,0.3-0.6,0.8-0.6,1.1c-1.3,5.9-1.6,11.9-1.6,17.9c0,3.6-0.1,7.2-0.1,10.8c-2.9,0.3-5.9,0.6-8.8,0.9c-0.5-6-0.4-12-0.3-18
			c0.2-7.9,0.6-15.8,2.4-23.5c1-4.3,2.6-8.3,5.8-11.5c1.8-1.8,3.9-3.3,6.5-3.7c2.9-0.5,5.8-0.8,8.8-1.1c0.7,0.2,0.6,0.9,0.6,1.4
			c0.4,4.5,5.8,6,8.9,3.9c2.4-1.6,2.7-3.8,2.4-6.3C788.8,459.1,792.7,458.9,796.5,459.2z"/>
		<path class="st13" d="M773.1,460.9c0.7-1.2-0.1-1.9-1-2.3c-1.3-0.5-2.6-0.8-4-1c-1.7-0.9-3.5-1.7-5.2-2.6c-0.1-0.6-0.5-0.9-1-1.2
			c-3.3-2.2-6.3-4.8-8.4-8.2c-0.3-0.6-0.8-0.8-1.5-0.8c-1.1,0-2.1,0-3.2,0c-1.4-1.1-3-1.8-4.1-3.2c-0.3-0.8-0.7-1.6-1-2.4
			c-1.1-3.1,0.7-6,3.8-6.3c1.1,3.6,2.1,7.2,4.5,10.7c0.9-3.3,1.6-6.2,1.3-9.2c-0.3-2.6,0.7-4.3,2.4-6.1c1.3-1.4,2.9-2.6,3.2-4.5
			c0.4-2.2,1.6-2.3,3.3-1.8c3.2,0.9,6.3,1.9,9.5,2.6c2.8,0.7,5.7,1.1,8.9,0.6c-1.3-0.9-2.5-1.2-3.3-2.4c0.5,0.1,0.8,0.1,1.1,0.2
			c5.1,1.4,10.3,2.4,15.6,2.1c2.5-0.1,3.8,1,4.6,3.6c0.8,2.6,1.4,5.1,2.8,7.5c0.3,0.5,0.4,1,1,1c0.6,0,0.6-0.6,0.8-1
			c1.5-3.3,1.7-6.8,1.3-10.4c4.6,0.9,6.5,4.7,4.4,9c-1.2,2.4-2.8,4.1-5.6,4.4c-1,0.1-1.6,0.9-2,1.6c-1.9,3.8-4.4,7.2-7.3,10.3
			c-0.2,0.2-0.2,0.5-0.3,0.7c-2.4,1.2-4.1,3.6-6.8,4.3c-2.1,0.6-2.4,1.8-2,3.6c0.3,2.5,0,4.7-2.4,6.3c-3.1,2.1-8.5,0.6-8.9-3.9
			C773.7,461.8,773.8,461.2,773.1,460.9z M768.4,433.1c-0.2-0.1-0.3-0.3-0.5-0.4c-0.5-1.1-1.5-0.7-2.3-0.5c-1.4,0.5-2,1.6-1.9,3
			c0.2,1.4,1,2.5,2.6,2.6c1.4,0.1,2.5-0.4,3-1.8C769.7,434.8,770,433.6,768.4,433.1z M777.4,445.7
			C777.4,445.7,777.4,445.7,777.4,445.7c-2.3,0.3-4.7,0.6-7,0.7c-1.3,0.1-1.6,0.7-1.1,1.9c1.2,3.3,5,5.5,8.7,5.1
			c4-0.4,7.1-3.3,7.6-6.8c0.2-1.4-0.3-1.8-1.6-1.6C781.8,445.2,779.6,445.4,777.4,445.7z M785.6,435.8c1.6-0.2,2.8-1.6,2.7-3.2
			c-0.1-1.6-1.5-2.8-3.2-2.6c-1.7,0.2-2.8,1.5-2.6,3.1C782.6,434.8,784,436,785.6,435.8z M782.3,427.2c2.6-0.9,5-0.2,7.5,1.4
			C788.3,425.7,785.4,425.2,782.3,427.2z M767.7,428.6c-2.8-1-4.9-0.2-6.6,2.8C763.4,430,765.2,428.3,767.7,428.6z"/>
		<path d="M804.5,426c0.4,3.6,0.2,7.1-1.3,10.4c-0.2,0.4-0.2,1-0.8,1c-0.6,0-0.8-0.5-1-1c-1.4-2.3-2-4.9-2.8-7.5
			c-0.8-2.7-2-3.8-4.6-3.6c-5.4,0.3-10.5-0.7-15.6-2.1c-0.3-0.1-0.6-0.1-1.1-0.2c0.8,1.1,2,1.5,3.3,2.4c-3.3,0.5-6.1,0-8.9-0.6
			c-3.2-0.8-6.3-1.7-9.5-2.6c-1.7-0.5-2.9-0.4-3.3,1.8c-0.3,1.9-1.9,3.2-3.2,4.5c-1.6,1.7-2.6,3.5-2.4,6.1c0.3,3-0.4,5.9-1.3,9.2
			c-2.4-3.5-3.4-7.1-4.5-10.7c-0.1-0.7-0.2-1.5-0.4-2.2c-0.9-5.7-1.4-11.3,1.9-16.6c0.7-1.2,2.5-2.1,2.1-3.4c-0.5-1.3-2.6-1-4.1-1.6
			c2.1-1.3,4.2-2.1,6.5-2c1.1,0.1,1.7-0.3,2.5-0.9c3.7-3.2,7.8-5.4,12.6-6.4c0.9-0.2,1.8-0.6,3,0c-1,0.9-1.9,1.7-2.8,2.5
			c5.6-1.5,11.2-3.2,17-1.1c3.1,2.5,6.6,2.3,10.3,1.3c-1.4,2.3-3.6,3.2-6.6,3.7c6.4,2.7,10.9,6.8,14.7,11.8
			c-0.8,0.4-1.5-0.3-2.2-0.2c-0.1-0.2-0.3-0.2-0.4,0c0,0,0.2,0.1,0.2,0.2c0.8,2.1,1.7,4.2,2.5,6.4c0,0,0,0,0,0
			C804.4,425,804.5,425.5,804.5,426z"/>
		<path class="st13" d="M837.6,449.2c0.1,0.7,0.3,1.4,0,2.2c-0.4,1.4,0.5,1.7,1.3,1.1c1.6-1.1,3.5-1.9,4.8-3.5
			c0.9,0,1.2-0.8,1.7-1.3c0.4-0.4,0.8-1,1.5-0.6c0.6,0.3,0.5,1,0.5,1.6c-0.1,1.1-0.6,2-1,3c-0.5,1.1-1.6,1.6-1.9,2.8
			c-0.6,0.2-1.2,0.5-1.4,1.1c-2.2,0.8-3.8,2.5-5.5,4.1c-0.6,0.6-2.2,0.3-2,1.8c-2.2-0.7-4.5-1-6.6-2c-0.5-1.9-0.1-3.9,1.3-4.8
			c2.2-1.4,3.9-3,5.3-5.1C836.2,449.3,836.8,448.8,837.6,449.2z"/>
		<path class="st9" d="M804.3,424.6C804.3,424.6,804.3,424.6,804.3,424.6C804.3,424.6,804.3,424.6,804.3,424.6z"/>
		<path class="st14" d="M777.4,445.7c2.2-0.2,4.4-0.4,6.6-0.7c1.4-0.2,1.8,0.2,1.6,1.6c-0.5,3.6-3.7,6.4-7.6,6.8
			c-3.8,0.4-7.5-1.8-8.7-5.1c-0.4-1.2-0.2-1.7,1.1-1.9C772.7,446.2,775,445.9,777.4,445.7C777.4,445.7,777.4,445.7,777.4,445.7z"/>
		<path class="st11" d="M785.6,435.8c-1.6,0.2-3-1-3.2-2.7c-0.2-1.7,0.9-3,2.6-3.1c1.7-0.2,3,1,3.2,2.6
			C788.3,434.3,787.2,435.7,785.6,435.8z M787.2,431.8c0-0.8-0.3-1.3-1-1.2c-0.6,0-1.2,0.3-1.2,1.1c0,0.7,0.4,1.2,1.1,1.1
			C786.8,432.8,787.1,432.3,787.2,431.8z"/>
		<path class="st11" d="M768.4,433.1c1.6,0.5,1.4,1.7,1,2.9c-0.5,1.4-1.6,1.9-3,1.8c-1.6-0.1-2.4-1.1-2.6-2.6
			c-0.2-1.4,0.5-2.5,1.9-3c0.8-0.3,1.7-0.6,2.3,0.5c-1-0.3-1.6,0.2-1.5,1.2c0,0.6,0.5,1.1,1.3,0.9C768.6,434.6,769,434,768.4,433.1z
			"/>
		<path class="st10" d="M782.3,427.2c3-2,5.9-1.5,7.5,1.4C787.3,427,784.9,426.3,782.3,427.2z"/>
		<path class="st10" d="M767.7,428.6c-2.5-0.3-4.3,1.4-6.6,2.8C762.9,428.4,764.9,427.5,767.7,428.6z"/>
		<path class="st5" d="M768.4,433.1c0.6,0.9,0.2,1.5-0.7,1.7c-0.7,0.2-1.2-0.3-1.3-0.9c-0.1-1,0.5-1.5,1.5-1.2
			C768,432.8,768.2,432.9,768.4,433.1z"/>
		<path class="st15" d="M801.8,418.2c-0.1-0.1-0.2-0.2-0.2-0.2c0.1-0.2,0.3-0.2,0.4,0C801.9,418.1,801.9,418.1,801.8,418.2z"/>
		<path class="st5" d="M787.2,431.8c0,0.5-0.3,1-1,1c-0.7,0-1.1-0.4-1.1-1.1c0-0.8,0.5-1.1,1.2-1.1
			C786.8,430.5,787.1,431,787.2,431.8z"/>
		<path class="st16" d="M934.5,329.9c10.8-0.1,21,2.4,30,8.5c5.5,3.7,9.7,8.5,11.7,15c2.2,7.3,0.2,13.6-4.2,19.3
			c-6.4,8.2-15.3,12.2-25.2,14.4c-4.2,0.9-8.5,1.3-12.7,1.2c-1.7-0.1-2.4,0.5-2.6,2.1c-0.3,2.2-0.9,4.5-1.3,6.7
			c-0.1,0.4,0.1,1.1-0.6,1.1c-0.4,0-0.6-0.5-0.8-0.8c-1.2-2.3-2.5-4.6-3.5-7c-1-2.2-2.6-3.1-4.8-3.6c-8.1-1.8-15.4-5.2-21.3-11.2
			c-5-5-7.8-11-7.2-18.2c0.4-5.6,3.1-10.3,7-14.3c7-7.1,15.8-10.7,25.5-12.4C927.7,329.9,931.1,329.9,934.5,329.9z"/>
		<path class="st16" d="M779.9,398.2c-1.6-3.1-2.9-5.7-4.2-8.3c-0.6-1.2-1.2-1.9-2.8-2c-6.9-0.6-13.6-2-19.7-5.6
			c-6.1-3.6-11-8.2-12.7-15.5c-1.3-5.6,0.1-10.7,3.5-15.3c5.7-7.7,13.7-11.6,22.7-13.6c9.3-2.1,18.6-1.8,27.7,1.2
			c6.5,2.1,12.1,5.6,16.3,11c5.6,7.1,5.1,17.5-1.2,24.6c-5.1,5.7-11.3,9.2-18.6,11.2c-2.1,0.6-4.1,1.1-6.2,1.4
			c-1.3,0.2-2.1,0.8-2.4,2.2C781.7,392.1,781.1,394.9,779.9,398.2z"/>
		<path class="st16" d="M855.7,330.9c6.8-0.3,13.9,1.4,20.5,4.9c5.4,2.9,10,6.9,11.9,13.1c1.8,6,0.6,11.4-3.2,16.2
			c-4.2,5.3-9.8,8.3-16.1,10.3c-4.5,1.4-9.1,1.9-13.8,1.8c-2,0-3.2,0.6-3.3,2.8c-0.1,1-0.5,1.9-0.7,2.9c-0.1,0.4,0,1-0.7,1.1
			c-0.6,0-0.7-0.6-0.9-0.9c-0.8-1.6-1.5-3.1-2.2-4.8c-0.5-1.1-1.2-1.6-2.4-1.9c-5.7-1.4-11.1-3.4-15.7-7.2c-5.2-4.3-8.7-9.6-8-16.6
			c0.5-5.4,3.3-9.7,7.5-13.1C836.4,333.3,845.2,330.8,855.7,330.9z"/>
	</g>
</g>
<g id="Layer_2">
</g>
</svg>
